Besley-BlackItalic.ufo
<glyph name="exclam" format="2">
  <advance width="756"/>
  <unicode hex="0021"/>
  <outline>
    <contour>
      <point x="10" y="200" type="curve" smooth="yes"/>
      <point x="10" y="332"/>
      <point x="118" y="440"/>
      <point x="250" y="440" type="curve" smooth="yes"/>
      <point x="382" y="440"/>
      <point x="490" y="332"/>
      <point x="490" y="200" type="curve" smooth="yes"/>
      <point x="490" y="68"/>
      <point x="382" y="-40"/>
      <point x="250" y="-40" type="curve" smooth="yes"/>
      <point x="118" y="-40"/>
      <point x="10" y="68"/>
    </contour>
    <contour>
      <point x="760" y="1196" type="curve" smooth="yes"/>
      <point x="638.755" y="872.679"/>
      <point x="482.323" y="825.292"/>
      <point x="402.973" y="562" type="curve" smooth="yes"/>
      <point x="393.821" y="531.633"/>
      <point x="383.341" y="530"/>
      <point x="343" y="530" type="curve" smooth="yes"/>
      <point x="297" y="530" type="line" smooth="yes"/>
      <point x="248.902" y="530"/>
      <point x="233.325" y="531.585"/>
      <point x="240.874" y="570" type="curve" smooth="yes"/>
      <point x="292.604" y="833.253"/>
      <point x="181.381" y="952.998"/>
      <point x="250" y="1298" type="curve" smooth="yes"/>
      <point x="278" y="1438"/>
      <point x="386" y="1518"/>
      <point x="526" y="1518" type="curve" smooth="yes"/>
      <point x="690" y="1518"/>
      <point x="782" y="1416"/>
      <point x="782" y="1314" type="curve" smooth="yes"/>
      <point x="782" y="1278"/>
      <point x="772" y="1227"/>
    </contour>
  </outline>
</glyph>
<glyph name="numbersign" format="2">
  <advance width="1320"/>
  <unicode hex="0023"/>
  <outline>
    <contour>
      <point x="611" y="1610" type="curve" smooth="yes"/>
      <point x="731" y="1610" type="line" smooth="yes"/>
      <point x="777.979" y="1610"/>
      <point x="782.476" y="1605.29"/>
      <point x="771.512" y="1566" type="curve" smooth="yes"/>
      <point x="657.302" y="1156" type="line" smooth="yes"/>
      <point x="646.446" y="1117.1"/>
      <point x="646.107" y="1110"/>
      <point x="699" y="1110" type="curve" smooth="yes"/>
      <point x="809" y="1110" type="line" smooth="yes"/>
      <point x="854.599" y="1110"/>
      <point x="849.821" y="1122.02"/>
      <point x="859.302" y="1156" type="curve" smooth="yes"/>
      <point x="975.953" y="1574" type="line" smooth="yes"/>
      <point x="984.758" y="1605.55"/>
      <point x="993.281" y="1610"/>
      <point x="1035" y="1610" type="curve" smooth="yes"/>
      <point x="1147" y="1610" type="line" smooth="yes"/>
      <point x="1199.47" y="1610"/>
      <point x="1195.5" y="1600.81"/>
      <point x="1183.84" y="1559" type="curve" smooth="yes"/>
      <point x="1071.07" y="1148" type="line" smooth="yes"/>
      <point x="1062.59" y="1117.6"/>
      <point x="1062.35" y="1110"/>
      <point x="1105" y="1110" type="curve" smooth="yes"/>
      <point x="1335" y="1110" type="line" smooth="yes"/>
      <point x="1369.55" y="1110"/>
      <point x="1380" y="1107.05"/>
      <point x="1380" y="1070" type="curve" smooth="yes"/>
      <point x="1380" y="944" type="line" smooth="yes"/>
      <point x="1380" y="906.363"/>
      <point x="1375.51" y="900"/>
      <point x="1339" y="900" type="curve" smooth="yes"/>
      <point x="1049" y="900" type="line" smooth="yes"/>
      <point x="995.031" y="900"/>
      <point x="999.144" y="890.266"/>
      <point x="987.907" y="850" type="curve" smooth="yes"/>
      <point x="941.581" y="684" type="line" smooth="yes"/>
      <point x="933.248" y="654.139"/>
      <point x="931.414" y="630"/>
      <point x="977" y="630" type="curve" smooth="yes"/>
      <point x="1191" y="630" type="line" smooth="yes"/>
      <point x="1236.26" y="630"/>
      <point x="1240" y="621.61"/>
      <point x="1240" y="578" type="curve" smooth="yes"/>
      <point x="1240" y="466" type="line" smooth="yes"/>
      <point x="1240" y="429.597"/>
      <point x="1239.46" y="420"/>
      <point x="1203" y="420" type="curve" smooth="yes"/>
      <point x="921" y="420" type="line" smooth="yes"/>
      <point x="866.054" y="420"/>
      <point x="866.731" y="415.786"/>
      <point x="855.07" y="374" type="curve" smooth="yes"/>
      <point x="730.047" y="-74" type="line" smooth="yes"/>
      <point x="720.47" y="-108.315"/>
      <point x="709.455" y="-110"/>
      <point x="665" y="-110" type="curve" smooth="yes"/>
      <point x="557" y="-110" type="line" smooth="yes"/>
      <point x="514.19" y="-110"/>
      <point x="506.101" y="-109.639"/>
      <point x="515.488" y="-76" type="curve" smooth="yes"/>
      <point x="642.744" y="380" type="line" smooth="yes"/>
      <point x="653.131" y="417.218"/>
      <point x="648.51" y="420"/>
      <point x="599" y="420" type="curve" smooth="yes"/>
      <point x="489" y="420" type="line" smooth="yes"/>
      <point x="449.571" y="420"/>
      <point x="450.784" y="415.976"/>
      <point x="442.419" y="386" type="curve" smooth="yes"/>
      <point x="315.721" y="-68" type="line" smooth="yes"/>
      <point x="306.382" y="-101.465"/>
      <point x="300.084" y="-110"/>
      <point x="255" y="-110" type="curve" smooth="yes"/>
      <point x="133" y="-110" type="line" smooth="yes"/>
      <point x="83.917" y="-110"/>
      <point x="97.1614" y="-84.3383"/>
      <point x="106.186" y="-52" type="curve" smooth="yes"/>
      <point x="226.744" y="380" type="line" smooth="yes"/>
      <point x="236.214" y="413.932"/>
      <point x="225.104" y="420"/>
      <point x="179" y="420" type="curve" smooth="yes"/>
      <point x="-13" y="420" type="line" smooth="yes"/>
      <point x="-46.1882" y="420"/>
      <point x="-60" y="421.608"/>
      <point x="-60" y="458" type="curve" smooth="yes"/>
      <point x="-60" y="580" type="line" smooth="yes"/>
      <point x="-60" y="618.137"/>
      <point x="-57.9287" y="630"/>
      <point x="-17" y="630" type="curve" smooth="yes"/>
      <point x="257" y="630" type="line" smooth="yes"/>
      <point x="300.968" y="630"/>
      <point x="298.354" y="636.603"/>
      <point x="307.674" y="670" type="curve" smooth="yes"/>
      <point x="360.14" y="858" type="line" smooth="yes"/>
      <point x="369.632" y="892.016"/>
      <point x="370.602" y="900"/>
      <point x="323" y="900" type="curve" smooth="yes"/>
      <point x="123" y="900" type="line" smooth="yes"/>
      <point x="84.3213" y="900"/>
      <point x="80" y="911.794"/>
      <point x="80" y="948" type="curve" smooth="yes"/>
      <point x="80" y="1078" type="line" smooth="yes"/>
      <point x="80" y="1108.66"/>
      <point x="97.2106" y="1110"/>
      <point x="125" y="1110" type="curve" smooth="yes"/>
      <point x="379" y="1110" type="line" smooth="yes"/>
      <point x="433.06" y="1110"/>
      <point x="431.831" y="1114.9"/>
      <point x="443.302" y="1156" type="curve" smooth="yes"/>
      <point x="564.419" y="1590" type="line" smooth="yes"/>
      <point x="571.158" y="1614.15"/>
      <point x="581.063" y="1610"/>
    </contour>
    <contour>
      <point x="747" y="900" type="curve" smooth="yes"/>
      <point x="615" y="900" type="line" smooth="yes"/>
      <point x="585.866" y="900"/>
      <point x="585.471" y="898.603"/>
      <point x="579.163" y="876" type="curve" smooth="yes"/>
      <point x="522.791" y="674" type="line" smooth="yes"/>
      <point x="512.883" y="638.497"/>
      <point x="511.28" y="630"/>
      <point x="561" y="630" type="curve" smooth="yes"/>
      <point x="665" y="630" type="line" smooth="yes"/>
      <point x="713.027" y="630"/>
      <point x="713.278" y="632.745"/>
      <point x="723.674" y="670" type="curve" smooth="yes"/>
      <point x="778.93" y="868" type="line" smooth="yes"/>
      <point x="787.304" y="898.005"/>
      <point x="778.488" y="900"/>
    </contour>
  </outline>
</glyph>
<glyph name="dollar" format="2">
  <advance width="1506"/>
  <unicode hex="0024"/>
  <outline>
    <contour>
      <point x="1034" y="1102" type="curve" smooth="yes"/>
      <point x="1034" y="1194"/>
      <point x="1118" y="1204"/>
      <point x="1118" y="1250" type="curve" smooth="yes"/>
      <point x="1118" y="1282.25"/>
      <point x="1108.11" y="1302.75"/>
      <point x="1067" y="1314.6" type="curve" smooth="yes"/>
      <point x="1028.48" y="1325.7"/>
      <point x="997.595" y="1314.41"/>
      <point x="985.326" y="1271" type="curve" smooth="yes"/>
      <point x="918.543" y="1035" type="line" smooth="yes"/>
      <point x="902.888" y="979.604"/>
      <point x="893.519" y="973.324"/>
      <point x="951" y="956.618" type="curve" smooth="yes"/>
      <point x="1161.91" y="895.319"/>
      <point x="1404" y="806.059"/>
      <point x="1404" y="490" type="curve" smooth="yes"/>
      <point x="1404" y="208.289"/>
      <point x="1012.48" y="-11.6972"/>
      <point x="665" y="-37.4719" type="curve" smooth="yes"/>
      <point x="621.884" y="-40.67"/>
      <point x="615.613" y="-36.9077"/>
      <point x="605.413" y="-73" type="curve" smooth="yes"/>
      <point x="587.891" y="-135" type="line" smooth="yes"/>
      <point x="579.955" y="-163.081"/>
      <point x="572.934" y="-170"/>
      <point x="535" y="-170" type="curve" smooth="yes"/>
      <point x="403" y="-170" type="line" smooth="yes"/>
      <point x="361.246" y="-170"/>
      <point x="359.018" y="-163.475"/>
      <point x="368.761" y="-129" type="curve" smooth="yes"/>
      <point x="389.37" y="-59" type="line" smooth="yes"/>
      <point x="400.326" y="-20.2309"/>
      <point x="395.509" y="-23.9579"/>
      <point x="357" y="-14.8257" type="curve" smooth="yes"/>
      <point x="69.4752" y="53.359"/>
      <point x="-1.7053e-13" y="246.275"/>
      <point x="0" y="392" type="curve" smooth="yes"/>
      <point x="0" y="528"/>
      <point x="80" y="634"/>
      <point x="218" y="634" type="curve" smooth="yes"/>
      <point x="352" y="634"/>
      <point x="422" y="562"/>
      <point x="422" y="448" type="curve" smooth="yes"/>
      <point x="422" y="316"/>
      <point x="338" y="340"/>
      <point x="338" y="280" type="curve" smooth="yes"/>
      <point x="338" y="243.265"/>
      <point x="358.859" y="210.542"/>
      <point x="427" y="191.485" type="curve" smooth="yes"/>
      <point x="457.185" y="183.043"/>
      <point x="458.566" y="185.85"/>
      <point x="466.804" y="215" type="curve" smooth="yes"/>
      <point x="561.718" y="554" type="line" smooth="yes"/>
      <point x="572.565" y="592.385"/>
      <point x="545.162" y="601.125"/>
      <point x="510.738" y="612" type="curve" smooth="yes"/>
      <point x="331.024" y="668.774"/>
      <point x="170" y="758.069"/>
      <point x="170" y="1016" type="curve" smooth="yes"/>
      <point x="170" y="1314.38"/>
      <point x="498.079" y="1492.61"/>
      <point x="769" y="1531.78" type="curve" smooth="yes"/>
      <point x="828.166" y="1540.33"/>
      <point x="839.296" y="1533.05"/>
      <point x="853.978" y="1585" type="curve" smooth="yes"/>
      <point x="867.935" y="1635" type="line" smooth="yes"/>
      <point x="876.159" y="1664.1"/>
      <point x="888.737" y="1670"/>
      <point x="925" y="1670" type="curve" smooth="yes"/>
      <point x="1035" y="1670" type="line" smooth="yes"/>
      <point x="1087.87" y="1670"/>
      <point x="1098.17" y="1667.67"/>
      <point x="1085.54" y="1623" type="curve" smooth="yes"/>
      <point x="1070.02" y="1571" type="line" smooth="yes"/>
      <point x="1054.59" y="1516.4"/>
      <point x="1065.09" y="1523.92"/>
      <point x="1119" y="1510.23" type="curve" smooth="yes"/>
      <point x="1306.88" y="1462.51"/>
      <point x="1476" y="1353.76"/>
      <point x="1476" y="1158" type="curve" smooth="yes"/>
      <point x="1476" y="1002"/>
      <point x="1376" y="916"/>
      <point x="1258" y="916" type="curve" smooth="yes"/>
      <point x="1144" y="916"/>
      <point x="1034" y="968"/>
    </contour>
    <contour>
      <point x="644" y="1140" type="curve" smooth="yes"/>
      <point x="644" y="1118.03"/>
      <point x="650.265" y="1099.3"/>
      <point x="661.657" y="1083" type="curve" smooth="yes"/>
      <point x="683.523" y="1051.71"/>
      <point x="698.762" y="1035.77"/>
      <point x="712.109" y="1083" type="curve" smooth="yes"/>
      <point x="764.109" y="1267" type="line" smooth="yes"/>
      <point x="776.202" y="1309.79"/>
      <point x="778.94" y="1318.15"/>
      <point x="737" y="1297.19" type="curve" smooth="yes"/>
      <point x="674.398" y="1265.9"/>
      <point x="644" y="1211.85"/>
    </contour>
    <contour>
      <point x="924" y="380" type="curve" smooth="yes"/>
      <point x="924" y="440.729"/>
      <point x="889.032" y="479.754"/>
      <point x="834.157" y="509" type="curve" smooth="yes"/>
      <point x="779.731" y="538.007"/>
      <point x="776.515" y="532.437"/>
      <point x="759.152" y="471" type="curve" smooth="yes"/>
      <point x="690.761" y="229" type="line" smooth="yes"/>
      <point x="674.506" y="171.483"/>
      <point x="685.097" y="174.678"/>
      <point x="745" y="188.228" type="curve" smooth="yes"/>
      <point x="862.205" y="214.74"/>
      <point x="924" y="278.398"/>
    </contour>
  </outline>
</glyph>
<glyph name="percent" format="2">
  <advance width="2260"/>
  <unicode hex="0025"/>
  <outline>
    <contour>
      <point x="120" y="1080" type="curve" smooth="yes"/>
      <point x="181" y="1366"/>
      <point x="397" y="1540"/>
      <point x="683" y="1540" type="curve" smooth="yes"/>
      <point x="909" y="1540"/>
      <point x="1141" y="1366"/>
      <point x="1080" y="1080" type="curve" smooth="yes"/>
      <point x="1019" y="794"/>
      <point x="742" y="620"/>
      <point x="496" y="620" type="curve" smooth="yes"/>
      <point x="270" y="620"/>
      <point x="59" y="794"/>
    </contour>
    <contour>
      <point x="510" y="1080" type="curve" smooth="yes"/>
      <point x="467" y="876"/>
      <point x="479" y="790"/>
      <point x="547" y="790" type="curve" smooth="yes"/>
      <point x="615" y="790"/>
      <point x="647" y="876"/>
      <point x="690" y="1080" type="curve" smooth="yes"/>
      <point x="733" y="1284"/>
      <point x="730" y="1370"/>
      <point x="662" y="1370" type="curve" smooth="yes"/>
      <point x="594" y="1370"/>
      <point x="553" y="1284"/>
    </contour>
    <contour>
      <point x="1659" y="1496" type="curve" smooth="yes"/>
      <point x="1816" y="1496" type="line" smooth="yes"/>
      <point x="1851" y="1496"/>
      <point x="1846.38" y="1486.29"/>
      <point x="1828" y="1464" type="curve" smooth="yes"/>
      <point x="621" y="24" type="line" smooth="yes"/>
      <point x="604" y="3"/>
      <point x="592" y="-4"/>
      <point x="557" y="-4" type="curve" smooth="yes"/>
      <point x="404" y="-4" type="line" smooth="yes"/>
      <point x="365" y="-4"/>
      <point x="379" y="19"/>
      <point x="394" y="37" type="curve" smooth="yes"/>
      <point x="1612" y="1474" type="line" smooth="yes"/>
      <point x="1623" y="1488"/>
      <point x="1636" y="1496"/>
    </contour>
    <contour>
      <point x="1139" y="420" type="curve" smooth="yes"/>
      <point x="1200" y="706"/>
      <point x="1427" y="880"/>
      <point x="1703" y="880" type="curve" smooth="yes"/>
      <point x="1929" y="880"/>
      <point x="2160" y="706"/>
      <point x="2099" y="420" type="curve" smooth="yes"/>
      <point x="2038" y="134"/>
      <point x="1762" y="-40"/>
      <point x="1536" y="-40" type="curve" smooth="yes"/>
      <point x="1310" y="-40"/>
      <point x="1078" y="134"/>
    </contour>
    <contour>
      <point x="1529" y="420" type="curve" smooth="yes"/>
      <point x="1486" y="216"/>
      <point x="1509" y="130"/>
      <point x="1577" y="130" type="curve" smooth="yes"/>
      <point x="1645" y="130"/>
      <point x="1666" y="216"/>
      <point x="1709" y="420" type="curve" smooth="yes"/>
      <point x="1752" y="624"/>
      <point x="1740" y="710"/>
      <point x="1672" y="710" type="curve" smooth="yes"/>
      <point x="1604" y="710"/>
      <point x="1572" y="624"/>
    </contour>
  </outline>
</glyph>
<glyph name="ampersand" format="2">
  <advance width="1840"/>
  <unicode hex="0026"/>
  <outline>
    <contour>
      <point x="1366" y="648" type="curve" smooth="yes"/>
      <point x="1276" y="648"/>
      <point x="1228" y="716"/>
      <point x="1228" y="812" type="curve" smooth="yes"/>
      <point x="1228" y="952"/>
      <point x="1380" y="1018"/>
      <point x="1518" y="1018" type="curve" smooth="yes"/>
      <point x="1694" y="1018"/>
      <point x="1780" y="912"/>
      <point x="1780" y="750" type="curve" smooth="yes"/>
      <point x="1780" y="592.058"/>
      <point x="1602.16" y="400.01"/>
      <point x="1351.1" y="246" type="curve" smooth="yes"/>
      <point x="1311.35" y="221.619"/>
      <point x="1283.15" y="203.652"/>
      <point x="1349" y="187.475" type="curve" smooth="yes"/>
      <point x="1365.43" y="183.439"/>
      <point x="1384.72" y="182"/>
      <point x="1408" y="182" type="curve" smooth="yes"/>
      <point x="1439.52" y="182"/>
      <point x="1480.06" y="202.282"/>
      <point x="1515.24" y="242" type="curve" smooth="yes"/>
      <point x="1542.29" y="272.54"/>
      <point x="1539" y="294.694"/>
      <point x="1577" y="266.419" type="curve" smooth="yes"/>
      <point x="1689" y="183.07" type="line" smooth="yes"/>
      <point x="1718.44" y="161.162"/>
      <point x="1721.65" y="159.483"/>
      <point x="1699" y="128.607" type="curve" smooth="yes"/>
      <point x="1605" y="0.449356"/>
      <point x="1445.53" y="-70"/>
      <point x="1262" y="-70" type="curve" smooth="yes"/>
      <point x="1165.31" y="-70"/>
      <point x="1057.22" y="-49.3872"/>
      <point x="972" y="24.0772" type="curve" smooth="yes"/>
      <point x="932.799" y="57.8704"/>
      <point x="920.948" y="47.7343"/>
      <point x="864" y="31.4127" type="curve" smooth="yes"/>
      <point x="728.778" y="-7.34283"/>
      <point x="590.941" y="-30"/>
      <point x="460" y="-30" type="curve" smooth="yes"/>
      <point x="174" y="-30"/>
      <point x="2" y="114"/>
      <point x="2" y="320" type="curve" smooth="yes"/>
      <point x="2" y="606.912"/>
      <point x="206.473" y="733.193"/>
      <point x="437.645" y="827" type="curve" smooth="yes"/>
      <point x="491.358" y="848.796"/>
      <point x="502.1" y="844.61"/>
      <point x="474.032" y="896" type="curve" smooth="yes"/>
      <point x="429.573" y="977.4"/>
      <point x="398" y="1077.77"/>
      <point x="398" y="1166" type="curve" smooth="yes"/>
      <point x="398" y="1406"/>
      <point x="708" y="1540"/>
      <point x="1080" y="1540" type="curve" smooth="yes"/>
      <point x="1334" y="1540"/>
      <point x="1512" y="1458"/>
      <point x="1512" y="1310" type="curve" smooth="yes"/>
      <point x="1512" y="1076.82"/>
      <point x="1279.93" y="985.53"/>
      <point x="1034" y="893.992" type="curve" smooth="yes"/>
      <point x="967.944" y="869.405"/>
      <point x="960.642" y="872.355"/>
      <point x="992.576" y="810" type="curve" smooth="yes"/>
      <point x="1175.92" y="452" type="line" smooth="yes"/>
      <point x="1204.22" y="396.721"/>
      <point x="1204.35" y="390.795"/>
      <point x="1255" y="425.877" type="curve" smooth="yes"/>
      <point x="1390.28" y="519.58"/>
      <point x="1470" y="615.5"/>
      <point x="1470" y="642" type="curve" smooth="yes"/>
      <point x="1470" y="654"/>
      <point x="1468" y="660"/>
      <point x="1458" y="660" type="curve" smooth="yes"/>
      <point x="1440" y="660"/>
      <point x="1434" y="648"/>
    </contour>
    <contour>
      <point x="462" y="380" type="curve" smooth="yes"/>
      <point x="462" y="256"/>
      <point x="522" y="220"/>
      <point x="630" y="220" type="curve" smooth="yes"/>
      <point x="682.254" y="220"/>
      <point x="733.017" y="224.266"/>
      <point x="782" y="231.948" type="curve" smooth="yes"/>
      <point x="842.393" y="241.418"/>
      <point x="826.803" y="250.104"/>
      <point x="803.921" y="292" type="curve" smooth="yes"/>
      <point x="623.137" y="623" type="line" smooth="yes"/>
      <point x="591.297" y="681.297"/>
      <point x="584.357" y="671.147"/>
      <point x="544.66" y="622" type="curve" smooth="yes"/>
      <point x="493.126" y="558.2"/>
      <point x="462" y="479.861"/>
    </contour>
    <contour>
      <point x="1084" y="1310" type="curve" smooth="yes"/>
      <point x="1084" y="1344"/>
      <point x="1072" y="1380"/>
      <point x="1026" y="1380" type="curve" smooth="yes"/>
      <point x="952" y="1380"/>
      <point x="848" y="1326"/>
      <point x="848" y="1220" type="curve" smooth="yes"/>
      <point x="848" y="1175.14"/>
      <point x="857.856" y="1130.28"/>
      <point x="879.148" y="1067" type="curve" smooth="yes"/>
      <point x="895.293" y="1019.01"/>
      <point x="897.374" y="1015.38"/>
      <point x="937.367" y="1044" type="curve" smooth="yes"/>
      <point x="1026.22" y="1107.59"/>
      <point x="1084" y="1189.84"/>
    </contour>
  </outline>
</glyph>
<glyph name="quotesingle" format="2">
  <advance width="614"/>
  <unicode hex="0027"/>
  <outline>
    <contour>
      <point x="569.926" y="1232" type="curve" smooth="yes"/>
      <point x="502.062" y="1151.22"/>
      <point x="400.99" y="1074.93"/>
      <point x="373.523" y="966" type="curve" smooth="yes"/>
      <point x="366.73" y="939.062"/>
      <point x="370.573" y="936"/>
      <point x="336" y="936" type="curve" smooth="yes"/>
      <point x="266" y="936" type="line" smooth="yes"/>
      <point x="228.489" y="936"/>
      <point x="231.884" y="941.096"/>
      <point x="228.905" y="974" type="curve" smooth="yes"/>
      <point x="211.796" y="1163.02"/>
      <point x="180" y="1219.95"/>
      <point x="180" y="1344" type="curve" smooth="yes"/>
      <point x="180" y="1482"/>
      <point x="298" y="1556"/>
      <point x="430" y="1556" type="curve" smooth="yes"/>
      <point x="522" y="1556"/>
      <point x="634" y="1498"/>
      <point x="634" y="1374" type="curve" smooth="yes"/>
      <point x="634" y="1321.33"/>
      <point x="606.889" y="1276"/>
    </contour>
  </outline>
</glyph>
<glyph name="parenleft" format="2">
  <advance width="960"/>
  <unicode hex="0028"/>
  <outline>
    <contour>
      <point x="783" y="-214" type="curve" smooth="yes"/>
      <point x="739" y="-302" type="line" smooth="yes"/>
      <point x="718.08" y="-343.84"/>
      <point x="711.439" y="-338.358"/>
      <point x="665.472" y="-322" type="curve" smooth="yes"/>
      <point x="294.863" y="-190.11"/>
      <point x="100" y="82.5787"/>
      <point x="100" y="470" type="curve" smooth="yes"/>
      <point x="100" y="1039.62"/>
      <point x="453.388" y="1437.28"/>
      <point x="993" y="1587.65" type="curve" smooth="yes"/>
      <point x="1034.7" y="1599.27"/>
      <point x="1039.08" y="1601.84"/>
      <point x="1057" y="1566" type="curve" smooth="yes"/>
      <point x="1109" y="1462" type="line" smooth="yes"/>
      <point x="1124.14" y="1431.73"/>
      <point x="1105.27" y="1437.44"/>
      <point x="1075" y="1427.37" type="curve" smooth="yes"/>
      <point x="754.647" y="1320.83"/>
      <point x="570" y="894.501"/>
      <point x="570" y="470" type="curve" smooth="yes"/>
      <point x="570" y="178.563"/>
      <point x="608.6" y="-68.7594"/>
      <point x="777.433" y="-168" type="curve" smooth="yes"/>
      <point x="804.105" y="-183.678"/>
      <point x="796.624" y="-186.751"/>
    </contour>
  </outline>
</glyph>
<glyph name="asterisk" format="2">
  <advance width="1318"/>
  <unicode hex="002A"/>
  <outline>
    <contour>
      <point x="792" y="974.822" type="curve" smooth="yes"/>
      <point x="869.996" y="949.02"/>
      <point x="942.285" y="946.815"/>
      <point x="1024" y="896" type="curve" smooth="yes"/>
      <point x="1143" y="822"/>
      <point x="1131" y="698"/>
      <point x="1085" y="618" type="curve" smooth="yes"/>
      <point x="1049" y="556"/>
      <point x="953" y="505"/>
      <point x="863" y="557" type="curve" smooth="yes"/>
      <point x="770.214" y="610.352"/>
      <point x="768.901" y="765.938"/>
      <point x="702.812" y="886" type="curve" smooth="yes"/>
      <point x="676.638" y="933.549"/>
      <point x="653.678" y="963.337"/>
      <point x="671.268" y="880" type="curve" smooth="yes"/>
      <point x="687.745" y="801.936"/>
      <point x="717" y="733.897"/>
      <point x="717" y="652" type="curve" smooth="yes"/>
      <point x="717" y="514"/>
      <point x="599" y="460"/>
      <point x="507" y="460" type="curve" smooth="yes"/>
      <point x="435" y="460"/>
      <point x="343" y="518"/>
      <point x="343" y="622" type="curve" smooth="yes"/>
      <point x="343" y="730.438"/>
      <point x="481.309" y="810.472"/>
      <point x="551.24" y="931" type="curve" smooth="yes"/>
      <point x="582.326" y="984.578"/>
      <point x="581.167" y="997.397"/>
      <point x="534" y="956.473" type="curve" smooth="yes"/>
      <point x="470.623" y="901.485"/>
      <point x="425.751" y="838.698"/>
      <point x="352" y="796" type="curve" smooth="yes"/>
      <point x="232" y="727"/>
      <point x="126" y="802"/>
      <point x="80" y="882" type="curve" smooth="yes"/>
      <point x="44" y="944"/>
      <point x="49" y="1053"/>
      <point x="139" y="1105" type="curve" smooth="yes"/>
      <point x="237.648" y="1161.72"/>
      <point x="384.277" y="1071.8"/>
      <point x="530" y="1079.67" type="curve" smooth="yes"/>
      <point x="585.484" y="1082.66"/>
      <point x="568.454" y="1090.41"/>
      <point x="532" y="1103.41" type="curve" smooth="yes"/>
      <point x="452.199" y="1131.88"/>
      <point x="379.692" y="1135.16"/>
      <point x="294" y="1184" type="curve" smooth="yes"/>
      <point x="194" y="1241"/>
      <point x="186" y="1382"/>
      <point x="232" y="1462" type="curve" smooth="yes"/>
      <point x="268" y="1524"/>
      <point x="365" y="1575"/>
      <point x="455" y="1523" type="curve" smooth="yes"/>
      <point x="552.498" y="1466.94"/>
      <point x="548.996" y="1298"/>
      <point x="625.779" y="1176" type="curve" smooth="yes"/>
      <point x="643.861" y="1147.27"/>
      <point x="661.194" y="1118.3"/>
      <point x="650.953" y="1178" type="curve" smooth="yes"/>
      <point x="635.934" y="1265.56"/>
      <point x="601" y="1338.51"/>
      <point x="601" y="1428" type="curve" smooth="yes"/>
      <point x="601" y="1566"/>
      <point x="719" y="1620"/>
      <point x="811" y="1620" type="curve" smooth="yes"/>
      <point x="883" y="1620"/>
      <point x="975" y="1562"/>
      <point x="975" y="1458" type="curve" smooth="yes"/>
      <point x="975" y="1353.82"/>
      <point x="847.329" y="1275.85"/>
      <point x="775.292" y="1163" type="curve" smooth="yes"/>
      <point x="738.564" y="1105.46"/>
      <point x="730.466" y="1075.76"/>
      <point x="790" y="1128.8" type="curve" smooth="yes"/>
      <point x="850.264" y="1182.49"/>
      <point x="894.598" y="1242.66"/>
      <point x="966" y="1284" type="curve" smooth="yes"/>
      <point x="1086" y="1353"/>
      <point x="1191" y="1278"/>
      <point x="1237" y="1198" type="curve" smooth="yes"/>
      <point x="1273" y="1136"/>
      <point x="1269" y="1027"/>
      <point x="1179" y="975" type="curve" smooth="yes"/>
      <point x="1084.64" y="920.742"/>
      <point x="946.377" y="1000.66"/>
      <point x="807" y="1000.82" type="curve" smooth="yes"/>
      <point x="742.32" y="1000.9"/>
      <point x="739.223" y="992.282"/>
    </contour>
  </outline>
</glyph>
<glyph name="plus" format="2">
  <advance width="1060"/>
  <unicode hex="002B"/>
  <outline>
    <contour>
      <point x="725" y="896" type="curve" smooth="yes"/>
      <point x="913" y="896" type="line" smooth="yes"/>
      <point x="936" y="896"/>
      <point x="947" y="892"/>
      <point x="947" y="868" type="curve" smooth="yes"/>
      <point x="947" y="691" type="line" smooth="yes"/>
      <point x="947" y="674"/>
      <point x="946" y="666"/>
      <point x="929" y="666" type="curve" smooth="yes"/>
      <point x="676" y="666" type="line" smooth="yes"/>
      <point x="644" y="666"/>
      <point x="632.269" y="661.676"/>
      <point x="626" y="632" type="curve" smooth="yes"/>
      <point x="562" y="389" type="line" smooth="yes"/>
      <point x="558.416" y="372.792"/>
      <point x="555" y="370"/>
      <point x="537" y="370" type="curve" smooth="yes"/>
      <point x="349" y="370" type="line" smooth="yes"/>
      <point x="329" y="370"/>
      <point x="319.681" y="370.981"/>
      <point x="324" y="390" type="curve" smooth="yes"/>
      <point x="388" y="625" type="line" smooth="yes"/>
      <point x="395.252" y="658.427"/>
      <point x="387" y="666"/>
      <point x="352" y="666" type="curve" smooth="yes"/>
      <point x="156" y="666" type="line" smooth="yes"/>
      <point x="131" y="666"/>
      <point x="127" y="671"/>
      <point x="127" y="695" type="curve" smooth="yes"/>
      <point x="127" y="869" type="line" smooth="yes"/>
      <point x="127" y="891"/>
      <point x="136" y="896"/>
      <point x="157" y="896" type="curve" smooth="yes"/>
      <point x="411" y="896" type="line" smooth="yes"/>
      <point x="438" y="896"/>
      <point x="451.158" y="902.229"/>
      <point x="457" y="930" type="curve" smooth="yes"/>
      <point x="513" y="1160" type="line" smooth="yes"/>
      <point x="517.633" y="1182.03"/>
      <point x="526" y="1190"/>
      <point x="551" y="1190" type="curve" smooth="yes"/>
      <point x="730" y="1190" type="line" smooth="yes"/>
      <point x="750" y="1190"/>
      <point x="756.721" y="1183.21"/>
      <point x="752" y="1161" type="curve" smooth="yes"/>
      <point x="695" y="934" type="line" smooth="yes"/>
      <point x="688.492" y="903.383"/>
      <point x="694" y="896"/>
    </contour>
  </outline>
</glyph>
<glyph name="comma" format="2">
  <advance width="590"/>
  <unicode hex="002C"/>
  <outline>
    <contour>
      <point x="-32" y="172" type="curve" smooth="yes"/>
      <point x="-32" y="316"/>
      <point x="86" y="406"/>
      <point x="222" y="406" type="curve" smooth="yes"/>
      <point x="360" y="406"/>
      <point x="500" y="324"/>
      <point x="500" y="98" type="curve" smooth="yes"/>
      <point x="500" y="-163.304"/>
      <point x="190.322" y="-299.101"/>
      <point x="-47" y="-311.124" type="curve" smooth="yes"/>
      <point x="-81.8203" y="-312.888"/>
      <point x="-86" y="-310.923"/>
      <point x="-86" y="-276" type="curve" smooth="yes"/>
      <point x="-86" y="-170" type="line" smooth="yes"/>
      <point x="-86" y="-146.21"/>
      <point x="-77.3814" y="-152.442"/>
      <point x="-56" y="-150.758" type="curve" smooth="yes"/>
      <point x="60.4969" y="-141.587"/>
      <point x="234.838" y="-101.551"/>
      <point x="302" y="-24.3955" type="curve" smooth="yes"/>
      <point x="334.505" y="12.9453"/>
      <point x="308.232" y="18.3533"/>
      <point x="278" y="0.659805" type="curve" smooth="yes"/>
      <point x="246.542" y="-17.7511"/>
      <point x="207.59" y="-30"/>
      <point x="156" y="-30" type="curve" smooth="yes"/>
      <point x="40" y="-30"/>
      <point x="-32" y="46"/>
    </contour>
  </outline>
</glyph>
<glyph name="hyphen" format="2">
  <advance width="920"/>
  <unicode hex="002D"/>
  <outline>
    <contour>
      <point x="148" y="890" type="curve" smooth="yes"/>
      <point x="774" y="890" type="line" smooth="yes"/>
      <point x="797" y="890"/>
      <point x="800" y="886"/>
      <point x="800" y="862" type="curve" smooth="yes"/>
      <point x="800" y="693" type="line" smooth="yes"/>
      <point x="800" y="669"/>
      <point x="798" y="660"/>
      <point x="772" y="660" type="curve" smooth="yes"/>
      <point x="146" y="660" type="line" smooth="yes"/>
      <point x="121" y="660"/>
      <point x="120" y="664"/>
      <point x="120" y="690" type="curve" smooth="yes"/>
      <point x="120" y="862" type="line" smooth="yes"/>
      <point x="120" y="885"/>
      <point x="127" y="890"/>
    </contour>
  </outline>
</glyph>
<glyph name="period" format="2">
  <advance width="610"/>
  <unicode hex="002E"/>
  <outline>
    <contour>
      <point x="-70" y="200" type="curve" smooth="yes"/>
      <point x="-70" y="332"/>
      <point x="38" y="440"/>
      <point x="170" y="440" type="curve" smooth="yes"/>
      <point x="302" y="440"/>
      <point x="410" y="332"/>
      <point x="410" y="200" type="curve" smooth="yes"/>
      <point x="410" y="68"/>
      <point x="302" y="-40"/>
      <point x="170" y="-40" type="curve" smooth="yes"/>
      <point x="38" y="-40"/>
      <point x="-70" y="68"/>
    </contour>
  </outline>
</glyph>
<glyph name="slash" format="2">
  <advance width="1040"/>
  <unicode hex="002F"/>
  <outline>
    <contour>
      <point x="933" y="1560" type="curve" smooth="yes"/>
      <point x="1046" y="1560" type="line" smooth="yes"/>
      <point x="1104.3" y="1560"/>
      <point x="1087.73" y="1536.52"/>
      <point x="1071.78" y="1506" type="curve" smooth="yes"/>
      <point x="147.858" y="-262" type="line" smooth="yes"/>
      <point x="132.159" y="-292.041"/>
      <point x="122.606" y="-300"/>
      <point x="75" y="-300" type="curve" smooth="yes"/>
      <point x="-15" y="-300" type="line" smooth="yes"/>
      <point x="-84.6416" y="-300"/>
      <point x="-94.0189" y="-288.671"/>
      <point x="-72.5462" y="-248" type="curve" smooth="yes"/>
      <point x="859.826" y="1518" type="line" smooth="yes"/>
      <point x="875.837" y="1548.33"/>
      <point x="884.241" y="1560"/>
    </contour>
  </outline>
</glyph>
<glyph name="zero" format="2">
  <advance width="1364"/>
  <unicode hex="0030"/>
  <outline>
    <contour>
      <point x="105.151" y="750" type="curve" smooth="yes"/>
      <point x="235.822" y="1316"/>
      <point x="496.92" y="1520"/>
      <point x="862.92" y="1520" type="curve" smooth="yes"/>
      <point x="1228.92" y="1520"/>
      <point x="1455.82" y="1316"/>
      <point x="1325.15" y="750" type="curve" smooth="yes"/>
      <point x="1194.48" y="184"/>
      <point x="923.383" y="-20"/>
      <point x="577.383" y="-20" type="curve" smooth="yes"/>
      <point x="231.383" y="-20"/>
      <point x="-25.5205" y="184"/>
    </contour>
    <contour>
      <point x="525.151" y="750" type="curve" smooth="yes"/>
      <point x="422.646" y="306"/>
      <point x="457.865" y="190"/>
      <point x="585.865" y="190" type="curve" smooth="yes"/>
      <point x="723.865" y="190"/>
      <point x="802.646" y="306"/>
      <point x="905.151" y="750" type="curve" smooth="yes"/>
      <point x="1007.66" y="1194"/>
      <point x="982.438" y="1310"/>
      <point x="844.438" y="1310" type="curve" smooth="yes"/>
      <point x="716.438" y="1310"/>
      <point x="627.656" y="1194"/>
    </contour>
  </outline>
</glyph>
<glyph name="one" format="2">
  <advance width="1200"/>
  <unicode hex="0031"/>
  <outline>
    <contour>
      <point x="-10" y="65" type="curve" smooth="yes"/>
      <point x="-10" y="166" type="line" smooth="yes"/>
      <point x="-10" y="208"/>
      <point x="0" y="210"/>
      <point x="43" y="210" type="curve" smooth="yes"/>
      <point x="295" y="210" type="line" smooth="yes"/>
      <point x="344" y="210"/>
      <point x="349.539" y="219.457"/>
      <point x="360" y="264" type="curve" smooth="yes"/>
      <point x="550" y="1073" type="line" smooth="yes"/>
      <point x="550" y="1113"/>
      <point x="541" y="1120"/>
      <point x="503" y="1120" type="curve" smooth="yes"/>
      <point x="299" y="1120" type="line" smooth="yes"/>
      <point x="266" y="1120"/>
      <point x="254" y="1123"/>
      <point x="254" y="1159" type="curve" smooth="yes"/>
      <point x="254" y="1279" type="line" smooth="yes"/>
      <point x="254" y="1333"/>
      <point x="286" y="1330"/>
      <point x="333" y="1331" type="curve" smooth="yes"/>
      <point x="517" y="1335"/>
      <point x="716" y="1360"/>
      <point x="829" y="1535" type="curve" smooth="yes"/>
      <point x="848.656" y="1565.44"/>
      <point x="871" y="1580"/>
      <point x="923" y="1580" type="curve" smooth="yes"/>
      <point x="989" y="1580" type="line" smooth="yes"/>
      <point x="1032" y="1580"/>
      <point x="1048.91" y="1572.96"/>
      <point x="1040" y="1534" type="curve" smooth="yes"/>
      <point x="750" y="266" type="line" smooth="yes"/>
      <point x="738.264" y="214.684"/>
      <point x="760" y="210"/>
      <point x="815" y="210" type="curve" smooth="yes"/>
      <point x="1037" y="210" type="line" smooth="yes"/>
      <point x="1070" y="210"/>
      <point x="1090" y="206"/>
      <point x="1090" y="170" type="curve" smooth="yes"/>
      <point x="1090" y="59" type="line" smooth="yes"/>
      <point x="1090" y="10"/>
      <point x="1088" y="0"/>
      <point x="1039" y="0" type="curve" smooth="yes"/>
      <point x="55" y="0" type="line" smooth="yes"/>
      <point x="-3" y="0"/>
      <point x="-10" y="5"/>
    </contour>
  </outline>
</glyph>
<glyph name="two" format="2">
  <advance width="1425"/>
  <unicode hex="0032"/>
  <outline>
    <contour>
      <point x="1334" y="510" type="curve" smooth="yes"/>
      <point x="1273" y="191"/>
      <point x="1043" y="-20"/>
      <point x="775" y="-20" type="curve" smooth="yes"/>
      <point x="541" y="-20"/>
      <point x="431" y="100"/>
      <point x="285" y="100" type="curve" smooth="yes"/>
      <point x="228" y="100"/>
      <point x="191" y="74"/>
      <point x="168" y="34" type="curve" smooth="yes"/>
      <point x="152" y="7"/>
      <point x="158" y="0"/>
      <point x="113" y="0" type="curve" smooth="yes"/>
      <point x="-29" y="0" type="line" smooth="yes"/>
      <point x="-68" y="0"/>
      <point x="-74.1667" y="4.00037"/>
      <point x="-74" y="42" type="curve" smooth="yes"/>
      <point x="-73" y="270"/>
      <point x="173.82" y="588.758"/>
      <point x="469" y="748" type="curve" smooth="yes"/>
      <point x="697" y="871"/>
      <point x="999" y="1022"/>
      <point x="999" y="1200" type="curve" smooth="yes"/>
      <point x="999" y="1298"/>
      <point x="937" y="1346"/>
      <point x="789" y="1346" type="curve" smooth="yes"/>
      <point x="661" y="1346"/>
      <point x="497" y="1298"/>
      <point x="497" y="1254" type="curve" smooth="yes"/>
      <point x="497" y="1218"/>
      <point x="659" y="1228"/>
      <point x="659" y="1056" type="curve" smooth="yes"/>
      <point x="659" y="922"/>
      <point x="554" y="850"/>
      <point x="440" y="850" type="curve" smooth="yes"/>
      <point x="322" y="850"/>
      <point x="207" y="926"/>
      <point x="207" y="1082" type="curve" smooth="yes"/>
      <point x="207" y="1356"/>
      <point x="565" y="1520"/>
      <point x="919" y="1520" type="curve" smooth="yes"/>
      <point x="1221" y="1520"/>
      <point x="1421" y="1450"/>
      <point x="1421" y="1190" type="curve" smooth="yes"/>
      <point x="1421" y="910"/>
      <point x="1010" y="792"/>
      <point x="709" y="660" type="curve" smooth="yes"/>
      <point x="541" y="586"/>
      <point x="403" y="501"/>
      <point x="340" y="441" type="curve" smooth="yes"/>
      <point x="288.079" y="391.551"/>
      <point x="220.945" y="307.38"/>
      <point x="242" y="301" type="curve" smooth="yes"/>
      <point x="275" y="291"/>
      <point x="284" y="356"/>
      <point x="366" y="414" type="curve" smooth="yes"/>
      <point x="418.562" y="451.178"/>
      <point x="519" y="469"/>
      <point x="585" y="469" type="curve" smooth="yes"/>
      <point x="755" y="469"/>
      <point x="785" y="381"/>
      <point x="937" y="381" type="curve" smooth="yes"/>
      <point x="1044" y="381"/>
      <point x="1125" y="431"/>
      <point x="1138" y="510" type="curve" smooth="yes"/>
      <point x="1144" y="552"/>
      <point x="1139" y="554"/>
      <point x="1187" y="554" type="curve" smooth="yes"/>
      <point x="1293" y="554" type="line" smooth="yes"/>
      <point x="1337" y="554"/>
      <point x="1341.89" y="551.253"/>
    </contour>
  </outline>
</glyph>
<glyph name="three" format="2">
  <advance width="1235"/>
  <unicode hex="0033"/>
  <outline>
    <contour>
      <point x="-20" y="348" type="curve" smooth="yes"/>
      <point x="-20" y="484"/>
      <point x="70" y="590"/>
      <point x="218" y="590" type="curve" smooth="yes"/>
      <point x="352" y="590"/>
      <point x="422" y="518"/>
      <point x="422" y="424" type="curve" smooth="yes"/>
      <point x="422" y="292"/>
      <point x="297" y="292"/>
      <point x="297" y="246" type="curve" smooth="yes"/>
      <point x="297" y="192"/>
      <point x="394" y="164"/>
      <point x="472" y="164" type="curve" smooth="yes"/>
      <point x="620" y="164"/>
      <point x="758" y="262"/>
      <point x="758" y="470" type="curve" smooth="yes"/>
      <point x="758" y="606"/>
      <point x="689" y="655"/>
      <point x="556" y="670" type="curve" smooth="yes"/>
      <point x="518.122" y="674.272"/>
      <point x="504" y="663"/>
      <point x="504" y="707" type="curve" smooth="yes"/>
      <point x="504" y="838" type="line" smooth="yes"/>
      <point x="504" y="877"/>
      <point x="513" y="869"/>
      <point x="547" y="872" type="curve" smooth="yes"/>
      <point x="731" y="886"/>
      <point x="878" y="1055"/>
      <point x="878" y="1202" type="curve" smooth="yes"/>
      <point x="878" y="1310"/>
      <point x="780" y="1346"/>
      <point x="652" y="1346" type="curve" smooth="yes"/>
      <point x="594" y="1346"/>
      <point x="528" y="1330"/>
      <point x="528" y="1296" type="curve" smooth="yes"/>
      <point x="528" y="1250"/>
      <point x="662" y="1260"/>
      <point x="662" y="1118" type="curve" smooth="yes"/>
      <point x="662" y="1034"/>
      <point x="582" y="952"/>
      <point x="458" y="952" type="curve" smooth="yes"/>
      <point x="340" y="952"/>
      <point x="220" y="1028"/>
      <point x="220" y="1174" type="curve" smooth="yes"/>
      <point x="220" y="1368"/>
      <point x="468" y="1520"/>
      <point x="782" y="1520" type="curve" smooth="yes"/>
      <point x="1114" y="1520"/>
      <point x="1280" y="1402"/>
      <point x="1280" y="1212" type="curve" smooth="yes"/>
      <point x="1280" y="988"/>
      <point x="1065" y="868"/>
      <point x="844" y="798" type="curve" smooth="yes"/>
      <point x="800" y="784"/>
      <point x="770" y="789"/>
      <point x="770" y="775" type="curve" smooth="yes"/>
      <point x="770" y="758"/>
      <point x="789" y="766"/>
      <point x="844" y="752" type="curve" smooth="yes"/>
      <point x="1082" y="689"/>
      <point x="1150" y="621"/>
      <point x="1150" y="460" type="curve" smooth="yes"/>
      <point x="1150" y="160"/>
      <point x="784" y="-20"/>
      <point x="482" y="-20" type="curve" smooth="yes"/>
      <point x="158" y="-20"/>
      <point x="-20" y="154"/>
    </contour>
  </outline>
</glyph>
<glyph name="four" format="2">
  <advance width="1310"/>
  <unicode hex="0034"/>
  <outline>
    <contour>
      <point x="1140" y="164" type="curve" smooth="yes"/>
      <point x="1140" y="36" type="line" smooth="yes"/>
      <point x="1140" y="3"/>
      <point x="1132" y="0"/>
      <point x="1098" y="0" type="curve" smooth="yes"/>
      <point x="366" y="0" type="line" smooth="yes"/>
      <point x="319" y="0"/>
      <point x="310" y="1"/>
      <point x="310" y="48" type="curve" smooth="yes"/>
      <point x="310" y="165" type="line" smooth="yes"/>
      <point x="310" y="201"/>
      <point x="317" y="210"/>
      <point x="354" y="210" type="curve" smooth="yes"/>
      <point x="533" y="210" type="line" smooth="yes"/>
      <point x="577" y="210"/>
      <point x="578.756" y="219.724"/>
      <point x="590" y="262" type="curve" smooth="yes"/>
      <point x="615" y="356" type="line" smooth="yes"/>
      <point x="628.479" y="406.681"/>
      <point x="600" y="410"/>
      <point x="546" y="410" type="curve" smooth="yes"/>
      <point x="88" y="410" type="line" smooth="yes"/>
      <point x="45" y="410"/>
      <point x="45" y="418"/>
      <point x="31" y="444" type="curve" smooth="yes"/>
      <point x="0" y="502" type="line" smooth="yes"/>
      <point x="-12" y="523"/>
      <point x="-5" y="532"/>
      <point x="6" y="554" type="curve" smooth="yes"/>
      <point x="163" y="868"/>
      <point x="795" y="1048"/>
      <point x="898" y="1444" type="curve" smooth="yes"/>
      <point x="909" y="1486"/>
      <point x="910" y="1500"/>
      <point x="966" y="1500" type="curve" smooth="yes"/>
      <point x="1236" y="1500" type="line" smooth="yes"/>
      <point x="1289" y="1500"/>
      <point x="1298" y="1495"/>
      <point x="1290" y="1448" type="curve" smooth="yes"/>
      <point x="1226" y="1062"/>
      <point x="577" y="911"/>
      <point x="381" y="692" type="curve" smooth="yes"/>
      <point x="354" y="662"/>
      <point x="329" y="620"/>
      <point x="407" y="620" type="curve" smooth="yes"/>
      <point x="632" y="620" type="line" smooth="yes"/>
      <point x="667" y="620"/>
      <point x="666.836" y="633.723"/>
      <point x="680" y="664" type="curve" smooth="yes"/>
      <point x="695" y="710" type="line" smooth="yes"/>
      <point x="712.027" y="749.162"/>
      <point x="711" y="754"/>
      <point x="742" y="771" type="curve" smooth="yes"/>
      <point x="808" y="806"/>
      <point x="947" y="854"/>
      <point x="988" y="940" type="curve" smooth="yes"/>
      <point x="997" y="960"/>
      <point x="1003" y="970"/>
      <point x="1034" y="970" type="curve" smooth="yes"/>
      <point x="1100" y="970" type="line" smooth="yes"/>
      <point x="1131" y="970"/>
      <point x="1147.05" y="967.558"/>
      <point x="1140" y="938" type="curve" smooth="yes"/>
      <point x="1078" y="678" type="line" smooth="yes"/>
      <point x="1070.5" y="646.55"/>
      <point x="1087" y="620"/>
      <point x="1124" y="620" type="curve" smooth="yes"/>
      <point x="1254" y="620" type="line" smooth="yes"/>
      <point x="1286" y="620"/>
      <point x="1290" y="612"/>
      <point x="1290" y="582" type="curve" smooth="yes"/>
      <point x="1290" y="466" type="line" smooth="yes"/>
      <point x="1290" y="420"/>
      <point x="1290" y="410"/>
      <point x="1244" y="410" type="curve" smooth="yes"/>
      <point x="1059" y="410" type="line" smooth="yes"/>
      <point x="1018" y="410"/>
      <point x="1015.78" y="403.457"/>
      <point x="1005" y="362" type="curve" smooth="yes"/>
      <point x="979" y="262" type="line" smooth="yes"/>
      <point x="967.978" y="219.606"/>
      <point x="984" y="210"/>
      <point x="1031" y="210" type="curve" smooth="yes"/>
      <point x="1096" y="210" type="line" smooth="yes"/>
      <point x="1135" y="210"/>
      <point x="1140" y="204"/>
    </contour>
  </outline>
</glyph>
<glyph name="five" format="2">
  <advance width="1300"/>
  <unicode hex="0035"/>
  <outline>
    <contour>
      <point x="-5" y="318" type="curve" smooth="yes"/>
      <point x="-5" y="464"/>
      <point x="95" y="550"/>
      <point x="223" y="550" type="curve" smooth="yes"/>
      <point x="347" y="550"/>
      <point x="427" y="468"/>
      <point x="427" y="384" type="curve" smooth="yes"/>
      <point x="427" y="292"/>
      <point x="353" y="252"/>
      <point x="353" y="206" type="curve" smooth="yes"/>
      <point x="353" y="162"/>
      <point x="409" y="144"/>
      <point x="487" y="144" type="curve" smooth="yes"/>
      <point x="645" y="144"/>
      <point x="833" y="392"/>
      <point x="833" y="600" type="curve" smooth="yes"/>
      <point x="833" y="768"/>
      <point x="755" y="812"/>
      <point x="637" y="812" type="curve" smooth="yes"/>
      <point x="558" y="812"/>
      <point x="446" y="763"/>
      <point x="360" y="655" type="curve" smooth="yes"/>
      <point x="344" y="634"/>
      <point x="333" y="624"/>
      <point x="294" y="624" type="curve" smooth="yes"/>
      <point x="230" y="624" type="line" smooth="yes"/>
      <point x="176" y="624"/>
      <point x="181" y="642"/>
      <point x="186" y="686" type="curve" smooth="yes"/>
      <point x="458" y="1460" type="line" smooth="yes"/>
      <point x="470.436" y="1495.39"/>
      <point x="472" y="1500"/>
      <point x="514" y="1500" type="curve" smooth="yes"/>
      <point x="789" y="1500" type="line" smooth="yes"/>
      <point x="990" y="1500"/>
      <point x="1152" y="1468"/>
      <point x="1218" y="1543" type="curve" smooth="yes"/>
      <point x="1231" y="1558"/>
      <point x="1241" y="1564"/>
      <point x="1272" y="1564" type="curve" smooth="yes"/>
      <point x="1377" y="1564" type="line" smooth="yes"/>
      <point x="1403" y="1564"/>
      <point x="1414" y="1557"/>
      <point x="1409" y="1534" type="curve" smooth="yes"/>
      <point x="1401" y="1500" type="line" smooth="yes"/>
      <point x="1365" y="1336"/>
      <point x="1229" y="1120"/>
      <point x="755" y="1120" type="curve" smooth="yes"/>
      <point x="530" y="1120" type="line" smooth="yes"/>
      <point x="492" y="1120"/>
      <point x="494.503" y="1108.95"/>
      <point x="483" y="1078" type="curve" smooth="yes"/>
      <point x="428" y="930" type="line" smooth="yes"/>
      <point x="413.781" y="894.927"/>
      <point x="388" y="850"/>
      <point x="396" y="846" type="curve" smooth="yes"/>
      <point x="411" y="837"/>
      <point x="432" y="872"/>
      <point x="464" y="896" type="curve" smooth="yes"/>
      <point x="540" y="952"/>
      <point x="670" y="1000"/>
      <point x="811" y="1000" type="curve" smooth="yes"/>
      <point x="1113" y="1000"/>
      <point x="1245" y="830"/>
      <point x="1245" y="600" type="curve" smooth="yes"/>
      <point x="1245" y="260"/>
      <point x="909" y="-20"/>
      <point x="527" y="-20" type="curve" smooth="yes"/>
      <point x="223" y="-20"/>
      <point x="-5" y="114"/>
    </contour>
  </outline>
</glyph>
<glyph name="seven" format="2">
  <advance width="1203"/>
  <unicode hex="0037"/>
  <outline>
    <contour>
      <point x="155" y="982" type="curve" smooth="yes"/>
      <point x="215" y="1317"/>
      <point x="434" y="1520"/>
      <point x="635" y="1520" type="curve" smooth="yes"/>
      <point x="829" y="1520"/>
      <point x="889" y="1400"/>
      <point x="1055" y="1400" type="curve" smooth="yes"/>
      <point x="1123" y="1400"/>
      <point x="1156" y="1427"/>
      <point x="1176" y="1471" type="curve" smooth="yes"/>
      <point x="1184" y="1489"/>
      <point x="1187" y="1500"/>
      <point x="1215" y="1500" type="curve" smooth="yes"/>
      <point x="1344" y="1500" type="line" smooth="yes"/>
      <point x="1379" y="1500"/>
      <point x="1385" y="1493"/>
      <point x="1380" y="1460" type="curve" smooth="yes"/>
      <point x="1357" y="1305"/>
      <point x="1056" y="933"/>
      <point x="841" y="726" type="curve" smooth="yes"/>
      <point x="697.767" y="588.097"/>
      <point x="593" y="512"/>
      <point x="593" y="444" type="curve" smooth="yes"/>
      <point x="593" y="358"/>
      <point x="749" y="378"/>
      <point x="749" y="216" type="curve" smooth="yes"/>
      <point x="749" y="102"/>
      <point x="659" y="-20"/>
      <point x="511" y="-20" type="curve" smooth="yes"/>
      <point x="363" y="-20"/>
      <point x="259" y="54"/>
      <point x="259" y="222" type="curve" smooth="yes"/>
      <point x="259" y="400"/>
      <point x="424.729" y="578.79"/>
      <point x="613" y="752" type="curve" smooth="yes"/>
      <point x="713" y="844"/>
      <point x="861" y="975"/>
      <point x="967" y="1100" type="curve" smooth="yes"/>
      <point x="999.73" y="1138.6"/>
      <point x="1021" y="1176"/>
      <point x="1011" y="1186" type="curve" smooth="yes"/>
      <point x="996" y="1201"/>
      <point x="972" y="1159"/>
      <point x="943" y="1136" type="curve" smooth="yes"/>
      <point x="896" y="1098"/>
      <point x="839" y="1066"/>
      <point x="755" y="1066" type="curve" smooth="yes"/>
      <point x="635" y="1066"/>
      <point x="585" y="1134"/>
      <point x="483" y="1134" type="curve" smooth="yes"/>
      <point x="396" y="1134"/>
      <point x="341" y="1082"/>
      <point x="331" y="980" type="curve" smooth="yes"/>
      <point x="329" y="957"/>
      <point x="336" y="946"/>
      <point x="308" y="946" type="curve" smooth="yes"/>
      <point x="192" y="946" type="line" smooth="yes"/>
      <point x="162" y="946"/>
      <point x="150.06" y="954.421"/>
    </contour>
  </outline>
</glyph>
<glyph name="eight" format="2">
  <advance width="1290"/>
  <unicode hex="0038"/>
  <outline>
    <contour>
      <point x="442.506" y="444" type="curve" smooth="yes"/>
      <point x="394.485" y="236"/>
      <point x="441.248" y="170"/>
      <point x="539.248" y="170" type="curve" smooth="yes"/>
      <point x="627.248" y="170"/>
      <point x="704.485" y="236"/>
      <point x="752.506" y="444" type="curve" smooth="yes"/>
      <point x="791.291" y="612"/>
      <point x="754.225" y="720"/>
      <point x="666.225" y="720" type="curve" smooth="yes"/>
      <point x="568.225" y="720"/>
      <point x="481.291" y="612"/>
    </contour>
    <contour>
      <point x="253.189" y="1140" type="curve" smooth="yes"/>
      <point x="303.98" y="1360"/>
      <point x="488.92" y="1520"/>
      <point x="810.92" y="1520" type="curve" smooth="yes"/>
      <point x="1142.92" y="1520"/>
      <point x="1333.98" y="1360"/>
      <point x="1283.19" y="1140" type="curve" smooth="yes"/>
      <point x="1249.48" y="994"/>
      <point x="1145.09" y="897"/>
      <point x="1009.39" y="842" type="curve" smooth="yes"/>
      <point x="975.159" y="828"/>
      <point x="949.235" y="824"/>
      <point x="946.003" y="810" type="curve" smooth="yes"/>
      <point x="943.232" y="798"/>
      <point x="967.848" y="792"/>
      <point x="994.077" y="780" type="curve" smooth="yes"/>
      <point x="1133.3" y="716"/>
      <point x="1206.44" y="591"/>
      <point x="1166.96" y="420" type="curve" smooth="yes"/>
      <point x="1106.94" y="160"/>
      <point x="897.383" y="-20"/>
      <point x="535.383" y="-20" type="curve" smooth="yes"/>
      <point x="173.383" y="-20"/>
      <point x="-23.0615" y="160"/>
      <point x="36.9648" y="420" type="curve" smooth="yes"/>
      <point x="78.5205" y="600"/>
      <point x="212.765" y="731"/>
      <point x="394.386" y="790" type="curve" smooth="yes"/>
      <point x="417.002" y="797"/>
      <point x="430.002" y="797"/>
      <point x="433.465" y="812" type="curve" smooth="yes"/>
      <point x="436.697" y="826"/>
      <point x="413.928" y="827"/>
      <point x="401.082" y="832" type="curve" smooth="yes"/>
      <point x="278.088" y="884"/>
      <point x="217.174" y="984"/>
    </contour>
    <contour>
      <point x="645.109" y="1105" type="curve" smooth="yes"/>
      <point x="610.94" y="957"/>
      <point x="649.781" y="900"/>
      <point x="707.781" y="900" type="curve" smooth="yes"/>
      <point x="785.781" y="900"/>
      <point x="830.94" y="957"/>
      <point x="865.109" y="1105" type="curve" smooth="yes"/>
      <point x="899.278" y="1253"/>
      <point x="885.055" y="1330"/>
      <point x="817.055" y="1330" type="curve" smooth="yes"/>
      <point x="749.055" y="1330"/>
      <point x="679.278" y="1253"/>
    </contour>
  </outline>
</glyph>
<glyph name="less" format="2">
  <advance width="1120"/>
  <unicode hex="003C"/>
  <outline>
    <contour>
      <point x="438" y="748" type="curve" smooth="yes"/>
      <point x="890" y="575" type="line" smooth="yes"/>
      <point x="919" y="564"/>
      <point x="930" y="553"/>
      <point x="930" y="511" type="curve" smooth="yes"/>
      <point x="930" y="393" type="line" smooth="yes"/>
      <point x="930" y="335"/>
      <point x="923" y="333"/>
      <point x="884" y="348" type="curve" smooth="yes"/>
      <point x="164" y="642" type="line" smooth="yes"/>
      <point x="131" y="655"/>
      <point x="120" y="672"/>
      <point x="120" y="720" type="curve" smooth="yes"/>
      <point x="120" y="830" type="line" smooth="yes"/>
      <point x="120" y="890"/>
      <point x="135" y="896"/>
      <point x="176" y="912" type="curve" smooth="yes"/>
      <point x="1020" y="1246" type="line" smooth="yes"/>
      <point x="1060" y="1262"/>
      <point x="1080" y="1265"/>
      <point x="1080" y="1199" type="curve" smooth="yes"/>
      <point x="1080" y="1112" type="line" smooth="yes"/>
      <point x="1080" y="1055"/>
      <point x="1072" y="1037"/>
      <point x="1032" y="1022" type="curve" smooth="yes"/>
      <point x="438" y="802" type="line" smooth="yes"/>
      <point x="403" y="789"/>
      <point x="382" y="788"/>
      <point x="382" y="776" type="curve" smooth="yes"/>
      <point x="382" y="759"/>
      <point x="399" y="763"/>
    </contour>
  </outline>
</glyph>
<glyph name="question" format="2">
  <advance width="1220"/>
  <unicode hex="003F"/>
  <outline>
    <contour>
      <point x="727" y="493.508" type="curve" smooth="yes"/>
      <point x="654.478" y="475.666"/>
      <point x="593.268" y="472"/>
      <point x="562" y="472" type="curve" smooth="yes"/>
      <point x="441" y="472"/>
      <point x="290" y="536"/>
      <point x="290" y="680" type="curve" smooth="yes"/>
      <point x="290" y="996"/>
      <point x="858" y="865"/>
      <point x="858" y="1200" type="curve" smooth="yes"/>
      <point x="858" y="1308"/>
      <point x="800" y="1366"/>
      <point x="702" y="1366" type="curve" smooth="yes"/>
      <point x="634" y="1366"/>
      <point x="578" y="1350"/>
      <point x="578" y="1326" type="curve" smooth="yes"/>
      <point x="578" y="1286"/>
      <point x="660" y="1282"/>
      <point x="660" y="1140" type="curve" smooth="yes"/>
      <point x="660" y="1016"/>
      <point x="514" y="940"/>
      <point x="404" y="940" type="curve" smooth="yes"/>
      <point x="294" y="940"/>
      <point x="150" y="1026"/>
      <point x="150" y="1162" type="curve" smooth="yes"/>
      <point x="150" y="1366"/>
      <point x="398" y="1540"/>
      <point x="762" y="1540" type="curve" smooth="yes"/>
      <point x="1104" y="1540"/>
      <point x="1280" y="1400"/>
      <point x="1280" y="1180" type="curve" smooth="yes"/>
      <point x="1280" y="726"/>
      <point x="531" y="783"/>
      <point x="531" y="701" type="curve" smooth="yes"/>
      <point x="531" y="678"/>
      <point x="553" y="666"/>
      <point x="600" y="666" type="curve" smooth="yes"/>
      <point x="622.116" y="666"/>
      <point x="674.803" y="669.743"/>
      <point x="728" y="688.071" type="curve" smooth="yes"/>
      <point x="766.117" y="701.203"/>
      <point x="769.188" y="713.87"/>
      <point x="774.64" y="661" type="curve" smooth="yes"/>
      <point x="785.567" y="555" type="line" smooth="yes"/>
      <point x="791.154" y="500.807"/>
      <point x="769.939" y="504.071"/>
    </contour>
    <component base="period" xOffset="338"/>
  </outline>
</glyph>
<glyph name="C" format="2">
  <advance width="1734"/>
  <unicode hex="0043"/>
  <anchor x="777" y="0" name="Anchor-2"/>
  <anchor x="1150" y="1500" name="Anchor-0"/>
  <outline>
    <contour>
      <point x="1638" y="497.146" type="curve" smooth="yes"/>
      <point x="1539.1" y="231.723"/>
      <point x="1233.38" y="-40"/>
      <point x="770" y="-40" type="curve" smooth="yes"/>
      <point x="364" y="-40"/>
      <point x="70" y="160"/>
      <point x="70" y="620" type="curve" smooth="yes"/>
      <point x="70" y="1122"/>
      <point x="454" y="1540"/>
      <point x="1030" y="1540" type="curve" smooth="yes"/>
      <point x="1187.31" y="1540"/>
      <point x="1299.86" y="1496.95"/>
      <point x="1378" y="1432.26" type="curve" smooth="yes"/>
      <point x="1413.42" y="1402.94"/>
      <point x="1415.27" y="1377.4"/>
      <point x="1452" y="1412.38" type="curve" smooth="yes"/>
      <point x="1502" y="1460" type="line" smooth="yes"/>
      <point x="1526.17" y="1483.02"/>
      <point x="1532.3" y="1500"/>
      <point x="1582" y="1500" type="curve" smooth="yes"/>
      <point x="1770" y="1500" type="line" smooth="yes"/>
      <point x="1813.61" y="1500"/>
      <point x="1812.22" y="1494.18"/>
      <point x="1805.26" y="1457" type="curve" smooth="yes"/>
      <point x="1705.37" y="920" type="line" smooth="yes"/>
      <point x="1698.64" y="884.072"/>
      <point x="1695.21" y="870"/>
      <point x="1650" y="870" type="curve" smooth="yes"/>
      <point x="1474" y="870" type="line" smooth="yes"/>
      <point x="1432.48" y="870"/>
      <point x="1427.52" y="872.703"/>
      <point x="1430.24" y="908" type="curve" smooth="yes"/>
      <point x="1449.59" y="1159.02"/>
      <point x="1282.33" y="1288"/>
      <point x="1086" y="1288" type="curve" smooth="yes"/>
      <point x="784" y="1288"/>
      <point x="580" y="980"/>
      <point x="580" y="630" type="curve" smooth="yes"/>
      <point x="580" y="346"/>
      <point x="710" y="256"/>
      <point x="878" y="256" type="curve" smooth="yes"/>
      <point x="1049.38" y="256"/>
      <point x="1217.58" y="351.612"/>
      <point x="1320" y="510.12" type="curve" smooth="yes"/>
      <point x="1341.49" y="543.375"/>
      <point x="1348.13" y="570"/>
      <point x="1406" y="570" type="curve" smooth="yes"/>
      <point x="1568" y="570" type="line" smooth="yes"/>
      <point x="1650.95" y="570"/>
      <point x="1661.16" y="559.292"/>
    </contour>
  </outline>
</glyph>
<glyph name="D" format="2">
  <advance width="1916"/>
  <unicode hex="0044"/>
  <anchor x="793" y="0" name="Anchor-2"/>
  <anchor x="1168" y="1500" name="Anchor-0"/>
  <outline>
    <contour>
      <point x="-100" y="53" type="curve" smooth="yes"/>
      <point x="-100" y="217" type="line" smooth="yes"/>
      <point x="-100" y="267.434"/>
      <point x="-78.095" y="270"/>
      <point x="-32" y="270" type="curve" smooth="yes"/>
      <point x="124" y="270" type="line" smooth="yes"/>
      <point x="176.032" y="270"/>
      <point x="184.497" y="274.204"/>
      <point x="193.413" y="316" type="curve" smooth="yes"/>
      <point x="373.6" y="1165" type="line" smooth="yes"/>
      <point x="386.938" y="1227.53"/>
      <point x="387.27" y="1230"/>
      <point x="312" y="1230" type="curve" smooth="yes"/>
      <point x="220" y="1230" type="line" smooth="yes"/>
      <point x="163.143" y="1230"/>
      <point x="154" y="1231.08"/>
      <point x="154" y="1288" type="curve" smooth="yes"/>
      <point x="154" y="1434" type="line" smooth="yes"/>
      <point x="154" y="1492.31"/>
      <point x="173.562" y="1500"/>
      <point x="228" y="1500" type="curve" smooth="yes"/>
      <point x="1086" y="1500" type="line" smooth="yes"/>
      <point x="1672" y="1500"/>
      <point x="1846" y="1216"/>
      <point x="1846" y="930" type="curve" smooth="yes"/>
      <point x="1846" y="284"/>
      <point x="1332" y="0"/>
      <point x="786" y="0" type="curve" smooth="yes"/>
      <point x="-38" y="0" type="line" smooth="yes"/>
      <point x="-83.0511" y="0"/>
      <point x="-100" y="4.41699"/>
    </contour>
    <contour>
      <point x="734" y="270" type="curve" smooth="yes"/>
      <point x="786" y="270" type="line" smooth="yes"/>
      <point x="1094" y="270"/>
      <point x="1336" y="526"/>
      <point x="1336" y="970" type="curve" smooth="yes"/>
      <point x="1336" y="1174"/>
      <point x="1214" y="1230"/>
      <point x="1046" y="1230" type="curve" smooth="yes"/>
      <point x="922" y="1230" type="line" smooth="yes"/>
      <point x="869.613" y="1230"/>
      <point x="868.194" y="1229.04"/>
      <point x="859.013" y="1186" type="curve" smooth="yes"/>
      <point x="675.12" y="324" type="line" smooth="yes"/>
      <point x="665.282" y="277.883"/>
      <point x="674.878" y="270"/>
    </contour>
  </outline>
</glyph>
<glyph name="E" format="2">
  <advance width="1618"/>
  <unicode hex="0045"/>
  <anchor x="1298" y="50" name="Anchor-3"/>
  <anchor x="676" y="0" name="Anchor-2"/>
  <anchor x="1008" y="1500" name="Anchor-0"/>
  <outline>
    <contour>
      <point x="744.24" y="654" type="curve" smooth="yes"/>
      <point x="670.8" y="330" type="line" smooth="yes"/>
      <point x="660.411" y="284.166"/>
      <point x="654.123" y="270"/>
      <point x="716" y="270" type="curve" smooth="yes"/>
      <point x="816" y="270" type="line" smooth="yes"/>
      <point x="1073.11" y="270"/>
      <point x="1252.73" y="328.113"/>
      <point x="1340" y="594.712" type="curve" smooth="yes"/>
      <point x="1353.67" y="636.486"/>
      <point x="1356.78" y="650"/>
      <point x="1416" y="650" type="curve" smooth="yes"/>
      <point x="1514" y="650" type="line" smooth="yes"/>
      <point x="1579.39" y="650"/>
      <point x="1572.85" y="635.359"/>
      <point x="1562.22" y="586" type="curve" smooth="yes"/>
      <point x="1449.78" y="64" type="line" smooth="yes"/>
      <point x="1438.02" y="9.37987"/>
      <point x="1432.62" y="0"/>
      <point x="1364" y="0" type="curve" smooth="yes"/>
      <point x="-54" y="0" type="line" smooth="yes"/>
      <point x="-91.6897" y="0"/>
      <point x="-100" y="3.8125"/>
      <point x="-100" y="44" type="curve" smooth="yes"/>
      <point x="-100" y="209" type="line" smooth="yes"/>
      <point x="-100" y="265.935"/>
      <point x="-91.014" y="270"/>
      <point x="-36" y="270" type="curve" smooth="yes"/>
      <point x="106" y="270" type="line" smooth="yes"/>
      <point x="167.149" y="270"/>
      <point x="177.741" y="272.386"/>
      <point x="188.987" y="322" type="curve" smooth="yes"/>
      <point x="382.56" y="1176" type="line" smooth="yes"/>
      <point x="391.441" y="1215.18"/>
      <point x="396.392" y="1230"/>
      <point x="343" y="1230" type="curve" smooth="yes"/>
      <point x="224" y="1230" type="line" smooth="yes"/>
      <point x="183.563" y="1230"/>
      <point x="168" y="1230.37"/>
      <point x="168" y="1274" type="curve" smooth="yes"/>
      <point x="168" y="1466" type="line" smooth="yes"/>
      <point x="168" y="1496.06"/>
      <point x="174.797" y="1500"/>
      <point x="206" y="1500" type="curve" smooth="yes"/>
      <point x="1682" y="1500" type="line" smooth="yes"/>
      <point x="1745.17" y="1500"/>
      <point x="1733.08" y="1476.2"/>
      <point x="1723.54" y="1430" type="curve" smooth="yes"/>
      <point x="1626.87" y="962" type="line" smooth="yes"/>
      <point x="1616.03" y="909.496"/>
      <point x="1615.01" y="890"/>
      <point x="1548" y="890" type="curve" smooth="yes"/>
      <point x="1442" y="890" type="line" smooth="yes"/>
      <point x="1387.53" y="890"/>
      <point x="1397.06" y="910.723"/>
      <point x="1402.43" y="950" type="curve" smooth="yes"/>
      <point x="1431.8" y="1164.86"/>
      <point x="1343.13" y="1230"/>
      <point x="1120" y="1230" type="curve" smooth="yes"/>
      <point x="926" y="1230" type="line" smooth="yes"/>
      <point x="890.822" y="1230"/>
      <point x="874.212" y="1226.44"/>
      <point x="867.36" y="1196" type="curve" smooth="yes"/>
      <point x="799.827" y="896" type="line" smooth="yes"/>
      <point x="796.243" y="880.078"/>
      <point x="803.29" y="876.545"/>
      <point x="814" y="876.545" type="curve" smooth="yes"/>
      <point x="814.684" y="876.545" type="line" smooth="yes"/>
      <point x="919.009" y="876.545"/>
      <point x="986.238" y="916.117"/>
      <point x="1028" y="995.401" type="curve" smooth="yes"/>
      <point x="1050.39" y="1037.91"/>
      <point x="1048.91" y="1066"/>
      <point x="1120" y="1066" type="curve" smooth="yes"/>
      <point x="1186" y="1066" type="line" smooth="yes"/>
      <point x="1243.78" y="1066"/>
      <point x="1244.52" y="1059.29"/>
      <point x="1234.54" y="1014" type="curve" smooth="yes"/>
      <point x="1128.34" y="532" type="line" smooth="yes"/>
      <point x="1118.41" y="486.951"/>
      <point x="1113.95" y="476"/>
      <point x="1056" y="476" type="curve" smooth="yes"/>
      <point x="974" y="476" type="line" smooth="yes"/>
      <point x="925.567" y="476"/>
      <point x="930.761" y="487.735"/>
      <point x="933.301" y="524" type="curve" smooth="yes"/>
      <point x="940.43" y="625.776"/>
      <point x="869.894" y="676"/>
      <point x="773" y="676" type="curve" smooth="yes"/>
      <point x="770" y="676" type="line" smooth="yes"/>
      <point x="751.586" y="676"/>
      <point x="747.419" y="668.025"/>
    </contour>
  </outline>
</glyph>
<glyph name="F" format="2">
  <advance width="1638"/>
  <unicode hex="0046"/>
  <anchor x="376" y="0" name="Anchor-2"/>
  <anchor x="1058" y="1500" name="Anchor-0"/>
  <outline>
    <contour>
      <point x="-100" y="37" type="curve" smooth="yes"/>
      <point x="-100" y="220" type="line" smooth="yes"/>
      <point x="-100" y="261.408"/>
      <point x="-98.3592" y="270"/>
      <point x="-57" y="270" type="curve" smooth="yes"/>
      <point x="105" y="270" type="line" smooth="yes"/>
      <point x="154.44" y="270"/>
      <point x="159.159" y="274.818"/>
      <point x="168.267" y="315" type="curve" smooth="yes"/>
      <point x="364.147" y="1183" type="line" smooth="yes"/>
      <point x="372.512" y="1219.91"/>
      <point x="374.58" y="1230"/>
      <point x="325" y="1230" type="curve" smooth="yes"/>
      <point x="201" y="1230" type="line" smooth="yes"/>
      <point x="149.815" y="1230"/>
      <point x="148" y="1238.45"/>
      <point x="148" y="1290" type="curve" smooth="yes"/>
      <point x="148" y="1458" type="line" smooth="yes"/>
      <point x="148" y="1490.93"/>
      <point x="149.088" y="1500"/>
      <point x="182" y="1500" type="curve" smooth="yes"/>
      <point x="1696" y="1500" type="line" smooth="yes"/>
      <point x="1755.91" y="1500"/>
      <point x="1756.53" y="1493.2"/>
      <point x="1746.37" y="1446" type="curve" smooth="yes"/>
      <point x="1630.06" y="906" type="line" smooth="yes"/>
      <point x="1622.2" y="869.511"/>
      <point x="1619.67" y="850"/>
      <point x="1572" y="850" type="curve" smooth="yes"/>
      <point x="1430" y="850" type="line" smooth="yes"/>
      <point x="1375.35" y="850"/>
      <point x="1382.33" y="865.54"/>
      <point x="1388.47" y="906" type="curve" smooth="yes"/>
      <point x="1423.8" y="1138.56"/>
      <point x="1325.91" y="1230"/>
      <point x="1090" y="1230" type="curve" smooth="yes"/>
      <point x="916" y="1230" type="line" smooth="yes"/>
      <point x="870.508" y="1230"/>
      <point x="854.318" y="1226.7"/>
      <point x="845.547" y="1188" type="curve" smooth="yes"/>
      <point x="771.387" y="862" type="line" smooth="yes"/>
      <point x="768.98" y="851.381"/>
      <point x="764.438" y="826.89"/>
      <point x="782" y="826.89" type="curve" smooth="yes"/>
      <point x="783.429" y="826.89" type="line" smooth="yes"/>
      <point x="906.575" y="826.89"/>
      <point x="987.487" y="891.506"/>
      <point x="1028" y="1001.88" type="curve" smooth="yes"/>
      <point x="1035.54" y="1022.41"/>
      <point x="1033.82" y="1026"/>
      <point x="1063" y="1026" type="curve" smooth="yes"/>
      <point x="1189" y="1026" type="line" smooth="yes"/>
      <point x="1232.56" y="1026"/>
      <point x="1234.58" y="1020.24"/>
      <point x="1226.4" y="987" type="curve" smooth="yes"/>
      <point x="1084.12" y="409" type="line" smooth="yes"/>
      <point x="1076.96" y="379.889"/>
      <point x="1068.48" y="376"/>
      <point x="1031" y="376" type="curve" smooth="yes"/>
      <point x="919" y="376" type="line" smooth="yes"/>
      <point x="875.902" y="376"/>
      <point x="877.998" y="384.137"/>
      <point x="881.636" y="419" type="curve" smooth="yes"/>
      <point x="898.272" y="578.412"/>
      <point x="849.526" y="626"/>
      <point x="736" y="626" type="curve" smooth="yes"/>
      <point x="735" y="626" type="line" smooth="yes"/>
      <point x="725.041" y="626"/>
      <point x="716.648" y="620.508"/>
      <point x="714.947" y="613" type="curve" smooth="yes"/>
      <point x="644.227" y="301" type="line" smooth="yes"/>
      <point x="638.023" y="273.629"/>
      <point x="642.736" y="270"/>
      <point x="678" y="270" type="curve" smooth="yes"/>
      <point x="878" y="270" type="line" smooth="yes"/>
      <point x="912.788" y="270"/>
      <point x="914" y="261.031"/>
      <point x="914" y="226" type="curve" smooth="yes"/>
      <point x="914" y="38" type="line" smooth="yes"/>
      <point x="914" y="1.78223"/>
      <point x="905.529" y="0"/>
      <point x="869" y="0" type="curve" smooth="yes"/>
      <point x="-54" y="0" type="line" smooth="yes"/>
      <point x="-86.16" y="0"/>
      <point x="-100" y="1.71094"/>
    </contour>
  </outline>
</glyph>
<glyph name="G" format="2">
  <advance width="1914"/>
  <unicode hex="0047"/>
  <anchor x="747" y="0" name="Anchor-2"/>
  <anchor x="1150" y="1500" name="Anchor-0"/>
  <outline>
    <contour>
      <point x="1048" y="780" type="curve" smooth="yes"/>
      <point x="1848" y="780" type="line" smooth="yes"/>
      <point x="1889.36" y="780"/>
      <point x="1894" y="773.864"/>
      <point x="1894" y="731" type="curve" smooth="yes"/>
      <point x="1894" y="603" type="line" smooth="yes"/>
      <point x="1894" y="557.204"/>
      <point x="1889.66" y="550"/>
      <point x="1842" y="550" type="curve" smooth="yes"/>
      <point x="1730" y="550" type="line" smooth="yes"/>
      <point x="1689.09" y="550"/>
      <point x="1679.9" y="547.476"/>
      <point x="1673.64" y="513" type="curve" smooth="yes"/>
      <point x="1631.82" y="283" type="line" smooth="yes"/>
      <point x="1621.54" y="226.479"/>
      <point x="1602.24" y="232.037"/>
      <point x="1554" y="204.82" type="curve" smooth="yes"/>
      <point x="1411.76" y="124.576"/>
      <point x="1158.81" y="-40"/>
      <point x="768" y="-40" type="curve" smooth="yes"/>
      <point x="352" y="-40"/>
      <point x="70" y="214"/>
      <point x="70" y="620" type="curve" smooth="yes"/>
      <point x="70" y="1122"/>
      <point x="454" y="1540"/>
      <point x="1030" y="1540" type="curve" smooth="yes"/>
      <point x="1184.64" y="1540"/>
      <point x="1296.04" y="1498.39"/>
      <point x="1374" y="1435.53" type="curve" smooth="yes"/>
      <point x="1419.2" y="1399.08"/>
      <point x="1416.07" y="1378.16"/>
      <point x="1462" y="1421.9" type="curve" smooth="yes"/>
      <point x="1520" y="1477.14" type="line" smooth="yes"/>
      <point x="1537.26" y="1493.58"/>
      <point x="1551.75" y="1500"/>
      <point x="1588" y="1500" type="curve" smooth="yes"/>
      <point x="1762" y="1500" type="line" smooth="yes"/>
      <point x="1807.35" y="1500"/>
      <point x="1813.03" y="1495.49"/>
      <point x="1805.44" y="1455" type="curve" smooth="yes"/>
      <point x="1705.43" y="925" type="line" smooth="yes"/>
      <point x="1696.23" y="875.868"/>
      <point x="1687.3" y="870"/>
      <point x="1630" y="870" type="curve" smooth="yes"/>
      <point x="1486" y="870" type="line" smooth="yes"/>
      <point x="1432.47" y="870"/>
      <point x="1428.35" y="872.316"/>
      <point x="1430.97" y="919" type="curve" smooth="yes"/>
      <point x="1444.66" y="1162.79"/>
      <point x="1279.44" y="1288"/>
      <point x="1086" y="1288" type="curve" smooth="yes"/>
      <point x="784" y="1288"/>
      <point x="580" y="980"/>
      <point x="580" y="630" type="curve" smooth="yes"/>
      <point x="580" y="366"/>
      <point x="652" y="244"/>
      <point x="850" y="244" type="curve" smooth="yes"/>
      <point x="981.349" y="244"/>
      <point x="1065.44" y="270.78"/>
      <point x="1154" y="348.107" type="curve" smooth="yes"/>
      <point x="1177.09" y="368.273"/>
      <point x="1187.75" y="378.312"/>
      <point x="1193.75" y="419" type="curve" smooth="yes"/>
      <point x="1206.8" y="511" type="line" smooth="yes"/>
      <point x="1211.43" y="542.359"/>
      <point x="1210.79" y="550"/>
      <point x="1176" y="550" type="curve" smooth="yes"/>
      <point x="1040" y="550" type="line" smooth="yes"/>
      <point x="1002.58" y="550"/>
      <point x="994" y="551.646"/>
      <point x="994" y="589" type="curve" smooth="yes"/>
      <point x="994" y="739" type="line" smooth="yes"/>
      <point x="994" y="779.728"/>
      <point x="1010.72" y="780"/>
    </contour>
  </outline>
</glyph>
<glyph name="H" format="2">
  <advance width="1966"/>
  <unicode hex="0048"/>
  <anchor x="866" y="0" name="Anchor-2"/>
  <anchor x="1245" y="1500" name="Anchor-0"/>
  <outline>
    <contour>
      <point x="-100" y="45" type="curve" smooth="yes"/>
      <point x="-100" y="207" type="line" smooth="yes"/>
      <point x="-100" y="264.814"/>
      <point x="-94.1882" y="270"/>
      <point x="-38" y="270" type="curve" smooth="yes"/>
      <point x="102" y="270" type="line" smooth="yes"/>
      <point x="165.534" y="270"/>
      <point x="161.703" y="278.014"/>
      <point x="172.537" y="329" type="curve" smooth="yes"/>
      <point x="355.712" y="1191" type="line" smooth="yes"/>
      <point x="362.743" y="1224.08"/>
      <point x="360.438" y="1230"/>
      <point x="318" y="1230" type="curve" smooth="yes"/>
      <point x="208" y="1230" type="line" smooth="yes"/>
      <point x="164.54" y="1230"/>
      <point x="156" y="1233.61"/>
      <point x="156" y="1279" type="curve" smooth="yes"/>
      <point x="156" y="1437" type="line" smooth="yes"/>
      <point x="156" y="1497.83"/>
      <point x="166.289" y="1500"/>
      <point x="225" y="1500" type="curve" smooth="yes"/>
      <point x="1018" y="1500" type="line" smooth="yes"/>
      <point x="1051.41" y="1500"/>
      <point x="1056" y="1493.7"/>
      <point x="1056" y="1459" type="curve" smooth="yes"/>
      <point x="1056" y="1275" type="line" smooth="yes"/>
      <point x="1056" y="1230.69"/>
      <point x="1046.52" y="1230"/>
      <point x="1002" y="1230" type="curve" smooth="yes"/>
      <point x="888" y="1230" type="line" smooth="yes"/>
      <point x="847.013" y="1230"/>
      <point x="842.162" y="1220.77"/>
      <point x="835" y="1187" type="curve" smooth="yes"/>
      <point x="784.394" y="949" type="line" smooth="yes"/>
      <point x="776.933" y="913.825"/>
      <point x="772.638" y="900"/>
      <point x="820" y="900" type="curve" smooth="yes"/>
      <point x="1248" y="900" type="line" smooth="yes"/>
      <point x="1282.83" y="900"/>
      <point x="1284.07" y="900.348"/>
      <point x="1290.15" y="929" type="curve" smooth="yes"/>
      <point x="1345.85" y="1191" type="line" smooth="yes"/>
      <point x="1352.17" y="1220.81"/>
      <point x="1353.96" y="1230"/>
      <point x="1318" y="1230" type="curve" smooth="yes"/>
      <point x="1232" y="1230" type="line" smooth="yes"/>
      <point x="1186.69" y="1230"/>
      <point x="1186" y="1239.48"/>
      <point x="1186" y="1285" type="curve" smooth="yes"/>
      <point x="1186" y="1461" type="line" smooth="yes"/>
      <point x="1186" y="1494.1"/>
      <point x="1191.49" y="1500"/>
      <point x="1226" y="1500" type="curve" smooth="yes"/>
      <point x="2014" y="1500" type="line" smooth="yes"/>
      <point x="2056.38" y="1500"/>
      <point x="2066" y="1499.46"/>
      <point x="2066" y="1457" type="curve" smooth="yes"/>
      <point x="2066" y="1271" type="line" smooth="yes"/>
      <point x="2066" y="1236.41"/>
      <point x="2061.51" y="1230"/>
      <point x="2028" y="1230" type="curve" smooth="yes"/>
      <point x="1880" y="1230" type="line" smooth="yes"/>
      <point x="1841.54" y="1230"/>
      <point x="1832.73" y="1223.43"/>
      <point x="1825.84" y="1191" type="curve" smooth="yes"/>
      <point x="1641.26" y="323" type="line" smooth="yes"/>
      <point x="1631.83" y="278.593"/>
      <point x="1630.9" y="270"/>
      <point x="1688" y="270" type="curve" smooth="yes"/>
      <point x="1776" y="270" type="line" smooth="yes"/>
      <point x="1819.61" y="270"/>
      <point x="1830" y="267.562"/>
      <point x="1830" y="221" type="curve" smooth="yes"/>
      <point x="1830" y="51" type="line" smooth="yes"/>
      <point x="1830" y="4.51465"/>
      <point x="1822.94" y="0"/>
      <point x="1778" y="0" type="curve" smooth="yes"/>
      <point x="978" y="0" type="line" smooth="yes"/>
      <point x="941.782" y="0"/>
      <point x="940" y="8.4707"/>
      <point x="940" y="45" type="curve" smooth="yes"/>
      <point x="940" y="229" type="line" smooth="yes"/>
      <point x="940" y="265.527"/>
      <point x="947.523" y="270"/>
      <point x="982" y="270" type="curve" smooth="yes"/>
      <point x="1102" y="270" type="line" smooth="yes"/>
      <point x="1155.63" y="270"/>
      <point x="1151.69" y="277.984"/>
      <point x="1160.81" y="321" type="curve" smooth="yes"/>
      <point x="1221.88" y="609" type="line" smooth="yes"/>
      <point x="1230.48" y="649.55"/>
      <point x="1224.92" y="652"/>
      <point x="1174" y="652" type="curve" smooth="yes"/>
      <point x="756" y="652" type="line" smooth="yes"/>
      <point x="721.642" y="652"/>
      <point x="720.841" y="651.252"/>
      <point x="714.851" y="623" type="curve" smooth="yes"/>
      <point x="650.814" y="321" type="line" smooth="yes"/>
      <point x="643.349" y="285.793"/>
      <point x="637.622" y="270"/>
      <point x="686" y="270" type="curve" smooth="yes"/>
      <point x="772" y="270" type="line" smooth="yes"/>
      <point x="810.999" y="270"/>
      <point x="820" y="266.614"/>
      <point x="820" y="225" type="curve" smooth="yes"/>
      <point x="820" y="49" type="line" smooth="yes"/>
      <point x="820" y="0.469727"/>
      <point x="805.447" y="0"/>
      <point x="760" y="0" type="curve" smooth="yes"/>
      <point x="-46" y="0" type="line" smooth="yes"/>
      <point x="-90.3779" y="0"/>
      <point x="-100" y="0.535073"/>
    </contour>
  </outline>
</glyph>
<glyph name="I" format="2">
  <advance width="1146"/>
  <unicode hex="0049"/>
  <anchor x="473" y="0" name="Anchor-3"/>
  <anchor x="473" y="0" name="Anchor-2"/>
  <anchor x="781" y="1500" name="Anchor-0"/>
  <outline>
    <contour>
      <point x="-40" y="33" type="curve" smooth="yes"/>
      <point x="-40" y="239" type="line" smooth="yes"/>
      <point x="-40" y="269.356"/>
      <point x="-30.5215" y="270"/>
      <point x="0" y="270" type="curve" smooth="yes"/>
      <point x="208" y="270" type="line" smooth="yes"/>
      <point x="246.35" y="270"/>
      <point x="243.199" y="276.503"/>
      <point x="249.949" y="307" type="curve" smooth="yes"/>
      <point x="445.379" y="1189" type="line" smooth="yes"/>
      <point x="453.047" y="1223.64"/>
      <point x="450.402" y="1230"/>
      <point x="410" y="1230" type="curve" smooth="yes"/>
      <point x="248" y="1230" type="line" smooth="yes"/>
      <point x="209.392" y="1230"/>
      <point x="206" y="1237.08"/>
      <point x="206" y="1277" type="curve" smooth="yes"/>
      <point x="206" y="1464" type="line" smooth="yes"/>
      <point x="206" y="1493.51"/>
      <point x="212.156" y="1500"/>
      <point x="240" y="1500" type="curve" smooth="yes"/>
      <point x="1154" y="1500" type="line" smooth="yes"/>
      <point x="1185.35" y="1500"/>
      <point x="1186" y="1490.52"/>
      <point x="1186" y="1459" type="curve" smooth="yes"/>
      <point x="1186" y="1273" type="line" smooth="yes"/>
      <point x="1186" y="1234.7"/>
      <point x="1178.9" y="1230"/>
      <point x="1142" y="1230" type="curve" smooth="yes"/>
      <point x="946" y="1230" type="line" smooth="yes"/>
      <point x="913.06" y="1230"/>
      <point x="914.008" y="1227.31"/>
      <point x="908.22" y="1201" type="curve" smooth="yes"/>
      <point x="713.3" y="315" type="line" smooth="yes"/>
      <point x="704.544" y="275.2"/>
      <point x="707.034" y="270"/>
      <point x="758" y="270" type="curve" smooth="yes"/>
      <point x="916" y="270" type="line" smooth="yes"/>
      <point x="952.734" y="270"/>
      <point x="960" y="266.745"/>
      <point x="960" y="231" type="curve" smooth="yes"/>
      <point x="960" y="51" type="line" smooth="yes"/>
      <point x="960" y="5.37012"/>
      <point x="954.23" y="0"/>
      <point x="910" y="0" type="curve" smooth="yes"/>
      <point x="0" y="0" type="line" smooth="yes"/>
      <point x="-31.4258" y="0"/>
      <point x="-40" y="1.65768"/>
    </contour>
  </outline>
</glyph>
<glyph name="J" format="2">
  <advance width="1452"/>
  <unicode hex="004A"/>
  <anchor x="408" y="0" name="Anchor-2"/>
  <anchor x="1070" y="1500" name="Anchor-0"/>
  <outline>
    <contour>
      <point x="-80" y="430" type="curve" smooth="yes"/>
      <point x="-80" y="654"/>
      <point x="68" y="800"/>
      <point x="248" y="800" type="curve" smooth="yes"/>
      <point x="398" y="800"/>
      <point x="506" y="698"/>
      <point x="506" y="562" type="curve" smooth="yes"/>
      <point x="506" y="364"/>
      <point x="332" y="366"/>
      <point x="332" y="302" type="curve" smooth="yes"/>
      <point x="332" y="288"/>
      <point x="348" y="220"/>
      <point x="472" y="220" type="curve" smooth="yes"/>
      <point x="574" y="220"/>
      <point x="649" y="290"/>
      <point x="692" y="480" type="curve" smooth="yes"/>
      <point x="848.971" y="1175" type="line" smooth="yes"/>
      <point x="859.683" y="1222.5"/>
      <point x="859.558" y="1230"/>
      <point x="802" y="1230" type="curve" smooth="yes"/>
      <point x="626" y="1230" type="line" smooth="yes"/>
      <point x="589.266" y="1230"/>
      <point x="582" y="1233.26"/>
      <point x="582" y="1269" type="curve" smooth="yes"/>
      <point x="582" y="1459" type="line" smooth="yes"/>
      <point x="582" y="1498.21"/>
      <point x="590.467" y="1500"/>
      <point x="630" y="1500" type="curve" smooth="yes"/>
      <point x="1522" y="1500" type="line" smooth="yes"/>
      <point x="1577.44" y="1500"/>
      <point x="1592" y="1496.29"/>
      <point x="1592" y="1437" type="curve" smooth="yes"/>
      <point x="1592" y="1289" type="line" smooth="yes"/>
      <point x="1592" y="1236.15"/>
      <point x="1587.43" y="1230"/>
      <point x="1536" y="1230" type="curve" smooth="yes"/>
      <point x="1398" y="1230" type="line" smooth="yes"/>
      <point x="1333.46" y="1230"/>
      <point x="1335.8" y="1223.69"/>
      <point x="1323.66" y="1173" type="curve" smooth="yes"/>
      <point x="1172" y="540" type="line" smooth="yes"/>
      <point x="1082" y="163"/>
      <point x="874" y="-30"/>
      <point x="472" y="-30" type="curve" smooth="yes"/>
      <point x="158" y="-30"/>
      <point x="-80" y="170"/>
    </contour>
  </outline>
</glyph>
<glyph name="K" format="2">
  <advance width="1860"/>
  <unicode hex="004B"/>
  <anchor x="860" y="0" name="Anchor-2"/>
  <anchor x="1230" y="1500" name="Anchor-0"/>
  <outline>
    <contour>
      <point x="-100" y="48" type="curve" smooth="yes"/>
      <point x="-100" y="215" type="line" smooth="yes"/>
      <point x="-100" y="265.793"/>
      <point x="-90.981" y="270"/>
      <point x="-42" y="270" type="curve" smooth="yes"/>
      <point x="76" y="270" type="line" smooth="yes"/>
      <point x="123.665" y="270"/>
      <point x="122.265" y="273.93"/>
      <point x="130.64" y="312" type="curve" smooth="yes"/>
      <point x="320.48" y="1174" type="line" smooth="yes"/>
      <point x="331.879" y="1225.81"/>
      <point x="326.251" y="1230"/>
      <point x="266" y="1230" type="curve" smooth="yes"/>
      <point x="182" y="1230" type="line" smooth="yes"/>
      <point x="144.114" y="1230"/>
      <point x="130" y="1231.16"/>
      <point x="130" y="1272" type="curve" smooth="yes"/>
      <point x="130" y="1462" type="line" smooth="yes"/>
      <point x="130" y="1493.1"/>
      <point x="133.848" y="1500"/>
      <point x="164" y="1500" type="curve" smooth="yes"/>
      <point x="878" y="1500" type="line" smooth="yes"/>
      <point x="923.091" y="1500"/>
      <point x="942" y="1496.45"/>
      <point x="942" y="1447" type="curve" smooth="yes"/>
      <point x="942" y="1270" type="line" smooth="yes"/>
      <point x="942" y="1226.38"/>
      <point x="931.011" y="1224"/>
      <point x="890" y="1224" type="curve" smooth="yes"/>
      <point x="826" y="1224" type="line" smooth="yes"/>
      <point x="772.47" y="1224"/>
      <point x="780.174" y="1205.04"/>
      <point x="771.108" y="1164" type="curve" smooth="yes"/>
      <point x="698.659" y="836" type="line" smooth="yes"/>
      <point x="691.44" y="803.32"/>
      <point x="698.579" y="792.543"/>
      <point x="736" y="824.523" type="curve" smooth="yes"/>
      <point x="1144" y="1173.19" type="line" smooth="yes"/>
      <point x="1174.53" y="1199.28"/>
      <point x="1225.04" y="1224"/>
      <point x="1140" y="1224" type="curve" smooth="yes"/>
      <point x="1094" y="1224" type="line" smooth="yes"/>
      <point x="1060.98" y="1224"/>
      <point x="1056" y="1230.84"/>
      <point x="1056" y="1262" type="curve" smooth="yes"/>
      <point x="1056" y="1450" type="line" smooth="yes"/>
      <point x="1056" y="1499.27"/>
      <point x="1081.2" y="1500"/>
      <point x="1126" y="1500" type="curve" smooth="yes"/>
      <point x="1812" y="1500" type="line" smooth="yes"/>
      <point x="1859.84" y="1500"/>
      <point x="1860" y="1500"/>
      <point x="1860" y="1452" type="curve" smooth="yes"/>
      <point x="1860" y="1272" type="line" smooth="yes"/>
      <point x="1860" y="1230.75"/>
      <point x="1856.11" y="1224"/>
      <point x="1816" y="1224" type="curve" smooth="yes"/>
      <point x="1670" y="1224" type="line" smooth="yes"/>
      <point x="1617.93" y="1224"/>
      <point x="1606.52" y="1217.12"/>
      <point x="1580" y="1195.61" type="curve" smooth="yes"/>
      <point x="1148" y="845.324" type="line" smooth="yes"/>
      <point x="1090.66" y="798.826"/>
      <point x="1128.05" y="798.329"/>
      <point x="1188" y="775.123" type="curve" smooth="yes"/>
      <point x="1563.82" y="629.646"/>
      <point x="1343.89" y="270"/>
      <point x="1606" y="270" type="curve" smooth="yes"/>
      <point x="1696" y="270" type="line" smooth="yes"/>
      <point x="1737.45" y="270"/>
      <point x="1744" y="265.14"/>
      <point x="1744" y="222" type="curve" smooth="yes"/>
      <point x="1744" y="52" type="line" smooth="yes"/>
      <point x="1744" y="2.0957"/>
      <point x="1733.05" y="0"/>
      <point x="1686" y="0" type="curve" smooth="yes"/>
      <point x="1274" y="0" type="line" smooth="yes"/>
      <point x="885.809" y="0"/>
      <point x="977.294" y="329.479"/>
      <point x="890.577" y="576" type="curve" smooth="yes"/>
      <point x="871.085" y="631.41"/>
      <point x="863.758" y="614.844"/>
      <point x="826" y="584.228" type="curve" smooth="yes"/>
      <point x="644" y="436.651" type="line" smooth="yes"/>
      <point x="625" y="421.245"/>
      <point x="605.177" y="412.783"/>
      <point x="598.819" y="384" type="curve" smooth="yes"/>
      <point x="584.241" y="318" type="line" smooth="yes"/>
      <point x="575.02" y="276.255"/>
      <point x="576.323" y="270"/>
      <point x="630" y="270" type="curve" smooth="yes"/>
      <point x="734" y="270" type="line" smooth="yes"/>
      <point x="762.165" y="270"/>
      <point x="772" y="266.312"/>
      <point x="772" y="236" type="curve" smooth="yes"/>
      <point x="772" y="46" type="line" smooth="yes"/>
      <point x="772" y="0.336914"/>
      <point x="756.625" y="0"/>
      <point x="714" y="0" type="curve" smooth="yes"/>
      <point x="-62" y="0" type="line" smooth="yes"/>
      <point x="-99.8717" y="0"/>
      <point x="-100" y="10"/>
    </contour>
  </outline>
</glyph>
<glyph name="M" format="2">
  <advance width="2306"/>
  <unicode hex="004D"/>
  <anchor x="995" y="0" name="Anchor-2"/>
  <anchor x="1470" y="1500" name="Anchor-0"/>
  <outline>
    <contour>
      <point x="1503" y="851" type="curve" smooth="yes"/>
      <point x="1041" y="25" type="line" smooth="yes"/>
      <point x="1022" y="-9"/>
      <point x="1023" y="-20"/>
      <point x="966" y="-20" type="curve" smooth="yes"/>
      <point x="804" y="-20" type="line" smooth="yes"/>
      <point x="739" y="-20"/>
      <point x="738" y="-19"/>
      <point x="729" y="37" type="curve" smooth="yes"/>
      <point x="607" y="821" type="line" smooth="yes"/>
      <point x="591" y="927"/>
      <point x="597.849" y="1004"/>
      <point x="578" y="1004" type="curve" smooth="yes"/>
      <point x="558" y="1004"/>
      <point x="552" y="934"/>
      <point x="526" y="829" type="curve" smooth="yes"/>
      <point x="400" y="317" type="line" smooth="yes"/>
      <point x="389" y="272"/>
      <point x="395" y="270"/>
      <point x="452" y="270" type="curve" smooth="yes"/>
      <point x="558" y="270" type="line" smooth="yes"/>
      <point x="598" y="270"/>
      <point x="600" y="262"/>
      <point x="600" y="221" type="curve" smooth="yes"/>
      <point x="600" y="49" type="line" smooth="yes"/>
      <point x="600" y="5"/>
      <point x="594" y="0"/>
      <point x="548" y="0" type="curve" smooth="yes"/>
      <point x="-54" y="0" type="line" smooth="yes"/>
      <point x="-110" y="0"/>
      <point x="-120" y="1"/>
      <point x="-120" y="57" type="curve" smooth="yes"/>
      <point x="-120" y="232" type="line" smooth="yes"/>
      <point x="-120" y="263"/>
      <point x="-114" y="270"/>
      <point x="-84" y="270" type="curve" smooth="yes"/>
      <point x="54" y="270" type="line" smooth="yes"/>
      <point x="121" y="270"/>
      <point x="117" y="279"/>
      <point x="130" y="331" type="curve" smooth="yes"/>
      <point x="342" y="1167" type="line" smooth="yes"/>
      <point x="356" y="1221"/>
      <point x="358" y="1230"/>
      <point x="286" y="1230" type="curve" smooth="yes"/>
      <point x="214" y="1230" type="line" smooth="yes"/>
      <point x="160" y="1230"/>
      <point x="154" y="1235"/>
      <point x="154" y="1287" type="curve" smooth="yes"/>
      <point x="154" y="1455" type="line" smooth="yes"/>
      <point x="154" y="1500"/>
      <point x="170" y="1500"/>
      <point x="212" y="1500" type="curve" smooth="yes"/>
      <point x="928" y="1500" type="line" smooth="yes"/>
      <point x="997" y="1500"/>
      <point x="1003" y="1494"/>
      <point x="1013" y="1433" type="curve" smooth="yes"/>
      <point x="1111" y="843" type="line" smooth="yes"/>
      <point x="1127" y="745"/>
      <point x="1128" y="688"/>
      <point x="1142" y="688" type="curve" smooth="yes"/>
      <point x="1159" y="688"/>
      <point x="1192" y="764"/>
      <point x="1235" y="839" type="curve" smooth="yes"/>
      <point x="1586" y="1445" type="line" smooth="yes"/>
      <point x="1611" y="1489"/>
      <point x="1622" y="1500"/>
      <point x="1694" y="1500" type="curve" smooth="yes"/>
      <point x="2300" y="1500" type="line" smooth="yes"/>
      <point x="2339" y="1500"/>
      <point x="2346" y="1497"/>
      <point x="2346" y="1459" type="curve" smooth="yes"/>
      <point x="2346" y="1299" type="line" smooth="yes"/>
      <point x="2346" y="1238"/>
      <point x="2343" y="1230"/>
      <point x="2282" y="1230" type="curve" smooth="yes"/>
      <point x="2128" y="1230" type="line" smooth="yes"/>
      <point x="2084" y="1230"/>
      <point x="2083" y="1229"/>
      <point x="2077" y="1191" type="curve" smooth="yes"/>
      <point x="1937" y="331" type="line" smooth="yes"/>
      <point x="1928" y="277"/>
      <point x="1932" y="270"/>
      <point x="1994" y="270" type="curve" smooth="yes"/>
      <point x="2112" y="270" type="line" smooth="yes"/>
      <point x="2155" y="270"/>
      <point x="2162" y="267"/>
      <point x="2162" y="225" type="curve" smooth="yes"/>
      <point x="2162" y="57" type="line" smooth="yes"/>
      <point x="2162" y="3"/>
      <point x="2152" y="0"/>
      <point x="2100" y="0" type="curve" smooth="yes"/>
      <point x="1350" y="0" type="line" smooth="yes"/>
      <point x="1293" y="0"/>
      <point x="1282" y="2"/>
      <point x="1282" y="61" type="curve" smooth="yes"/>
      <point x="1282" y="209" type="line" smooth="yes"/>
      <point x="1282" y="265"/>
      <point x="1288" y="270"/>
      <point x="1342" y="270" type="curve" smooth="yes"/>
      <point x="1398" y="270" type="line" smooth="yes"/>
      <point x="1476" y="270"/>
      <point x="1472" y="278"/>
      <point x="1483" y="343" type="curve" smooth="yes"/>
      <point x="1566" y="841" type="line" smooth="yes"/>
      <point x="1582" y="934"/>
      <point x="1634" y="1000"/>
      <point x="1601" y="1000" type="curve" smooth="yes"/>
      <point x="1581.1" y="1000"/>
      <point x="1547" y="930"/>
    </contour>
  </outline>
</glyph>
<glyph name="O" format="2">
  <advance width="1900"/>
  <unicode hex="004F"/>
  <anchor x="766" y="0" name="Anchor-2"/>
  <anchor x="1140" y="1500" name="Anchor-0"/>
  <outline>
    <contour>
      <point x="1090" y="1540" type="line"/>
      <point x="1516" y="1540"/>
      <point x="1830" y="1346"/>
      <point x="1830" y="900" type="curve" smooth="yes"/>
      <point x="1830" y="354"/>
      <point x="1396" y="-40"/>
      <point x="810" y="-40" type="curve"/>
      <point x="830" y="220" type="line"/>
      <point x="1138" y="220"/>
      <point x="1320" y="606"/>
      <point x="1320" y="930" type="curve" smooth="yes"/>
      <point x="1320" y="1154"/>
      <point x="1258" y="1280"/>
      <point x="1070" y="1280" type="curve"/>
    </contour>
    <contour>
      <point x="810" y="-40" type="line"/>
      <point x="384" y="-40"/>
      <point x="70" y="154"/>
      <point x="70" y="600" type="curve" smooth="yes"/>
      <point x="70" y="1146"/>
      <point x="504" y="1540"/>
      <point x="1090" y="1540" type="curve"/>
      <point x="1070" y="1280" type="line"/>
      <point x="782" y="1280"/>
      <point x="580" y="894"/>
      <point x="580" y="570" type="curve" smooth="yes"/>
      <point x="580" y="346"/>
      <point x="642" y="220"/>
      <point x="830" y="220" type="curve"/>
    </contour>
  </outline>
</glyph>
<glyph name="P" format="2">
  <advance width="1594"/>
  <unicode hex="0050"/>
  <anchor x="322" y="0" name="Anchor-2"/>
  <anchor x="980" y="1500" name="Anchor-0"/>
  <outline>
    <contour>
      <point x="760" y="820" type="curve" smooth="yes"/>
      <point x="814" y="820" type="line" smooth="yes"/>
      <point x="1006" y="820"/>
      <point x="1114" y="962"/>
      <point x="1114" y="1100" type="curve" smooth="yes"/>
      <point x="1114" y="1178"/>
      <point x="1056" y="1230"/>
      <point x="964" y="1230" type="curve" smooth="yes"/>
      <point x="854" y="1230" type="line" smooth="yes"/>
      <point x="803.079" y="1230"/>
      <point x="805.307" y="1224.87"/>
      <point x="796.587" y="1184" type="curve" smooth="yes"/>
      <point x="726.613" y="856" type="line" smooth="yes"/>
      <point x="720.459" y="827.154"/>
      <point x="721.852" y="820"/>
    </contour>
    <contour>
      <point x="650.24" y="498" type="curve" smooth="yes"/>
      <point x="609.707" y="308" type="line" smooth="yes"/>
      <point x="602.667" y="275.002"/>
      <point x="605.835" y="270"/>
      <point x="648" y="270" type="curve" smooth="yes"/>
      <point x="790" y="270" type="line" smooth="yes"/>
      <point x="857.581" y="270"/>
      <point x="860" y="262.061"/>
      <point x="860" y="194" type="curve" smooth="yes"/>
      <point x="860" y="60" type="line" smooth="yes"/>
      <point x="860" y="1.28165"/>
      <point x="851.042" y="0"/>
      <point x="792" y="0" type="curve" smooth="yes"/>
      <point x="-32" y="0" type="line" smooth="yes"/>
      <point x="-74.5676" y="0"/>
      <point x="-100" y="1.88086"/>
      <point x="-100" y="49" type="curve" smooth="yes"/>
      <point x="-100" y="230" type="line" smooth="yes"/>
      <point x="-100" y="263.131"/>
      <point x="-96.1475" y="270"/>
      <point x="-64" y="270" type="curve" smooth="yes"/>
      <point x="86" y="270" type="line" smooth="yes"/>
      <point x="124.9" y="270"/>
      <point x="122.624" y="274.802"/>
      <point x="129.28" y="306" type="curve" smooth="yes"/>
      <point x="315.014" y="1174" type="line" smooth="yes"/>
      <point x="326.547" y="1228.06"/>
      <point x="312.061" y="1230"/>
      <point x="252" y="1230" type="curve" smooth="yes"/>
      <point x="162" y="1230" type="line" smooth="yes"/>
      <point x="123.996" y="1230"/>
      <point x="120" y="1236.64"/>
      <point x="120" y="1276" type="curve" smooth="yes"/>
      <point x="120" y="1462" type="line" smooth="yes"/>
      <point x="120" y="1493.08"/>
      <point x="124.859" y="1500"/>
      <point x="158" y="1500" type="curve" smooth="yes"/>
      <point x="1034" y="1500" type="line" smooth="yes"/>
      <point x="1416" y="1500"/>
      <point x="1614" y="1360"/>
      <point x="1614" y="1100" type="curve" smooth="yes"/>
      <point x="1614" y="680"/>
      <point x="1196" y="550"/>
      <point x="834" y="550" type="curve" smooth="yes"/>
      <point x="704" y="550" type="line" smooth="yes"/>
      <point x="653.008" y="550"/>
      <point x="658.778" y="538.02"/>
    </contour>
  </outline>
</glyph>
<glyph name="R" format="2">
  <advance width="1834"/>
  <unicode hex="0052"/>
  <anchor x="776" y="0" name="Anchor-2"/>
  <anchor x="1060" y="1500" name="Anchor-0"/>
  <outline>
    <contour>
      <point x="1780" y="155" type="curve" smooth="yes"/>
      <point x="1664" y="16"/>
      <point x="1476" y="-30"/>
      <point x="1338" y="-30" type="curve" smooth="yes"/>
      <point x="1150" y="-30"/>
      <point x="1018" y="44"/>
      <point x="1018" y="194" type="curve" smooth="yes"/>
      <point x="1018" y="294"/>
      <point x="1044" y="366"/>
      <point x="1044" y="446" type="curve" smooth="yes"/>
      <point x="1044" y="496"/>
      <point x="1004" y="610"/>
      <point x="838" y="610" type="curve" smooth="yes"/>
      <point x="764" y="610" type="line" smooth="yes"/>
      <point x="720" y="610"/>
      <point x="712" y="602"/>
      <point x="704" y="565" type="curve" smooth="yes"/>
      <point x="653" y="323" type="line" smooth="yes"/>
      <point x="645" y="284"/>
      <point x="640" y="270"/>
      <point x="692" y="270" type="curve" smooth="yes"/>
      <point x="790" y="270" type="line" smooth="yes"/>
      <point x="830" y="270"/>
      <point x="840" y="269"/>
      <point x="840" y="229" type="curve" smooth="yes"/>
      <point x="840" y="55" type="line" smooth="yes"/>
      <point x="840" y="5"/>
      <point x="834" y="0"/>
      <point x="786" y="0" type="curve" smooth="yes"/>
      <point x="-15" y="0" type="line" smooth="yes"/>
      <point x="-54" y="0"/>
      <point x="-60" y="7"/>
      <point x="-60" y="45" type="curve" smooth="yes"/>
      <point x="-60" y="225" type="line" smooth="yes"/>
      <point x="-60" y="264"/>
      <point x="-55" y="270"/>
      <point x="-14" y="270" type="curve" smooth="yes"/>
      <point x="120" y="270" type="line" smooth="yes"/>
      <point x="170" y="270"/>
      <point x="164" y="282"/>
      <point x="172" y="321" type="curve" smooth="yes"/>
      <point x="355" y="1177" type="line" smooth="yes"/>
      <point x="365" y="1224"/>
      <point x="363" y="1230"/>
      <point x="308" y="1230" type="curve" smooth="yes"/>
      <point x="212" y="1230" type="line" smooth="yes"/>
      <point x="167" y="1230"/>
      <point x="160" y="1233"/>
      <point x="160" y="1277" type="curve" smooth="yes"/>
      <point x="160" y="1461" type="line" smooth="yes"/>
      <point x="160" y="1499"/>
      <point x="169" y="1500"/>
      <point x="208" y="1500" type="curve" smooth="yes"/>
      <point x="1118" y="1500" type="line" smooth="yes"/>
      <point x="1480" y="1500"/>
      <point x="1718" y="1420"/>
      <point x="1718" y="1160" type="curve" smooth="yes"/>
      <point x="1718" y="971"/>
      <point x="1575" y="859"/>
      <point x="1374" y="794" type="curve" smooth="yes"/>
      <point x="1313" y="775"/>
      <point x="1281" y="773"/>
      <point x="1281" y="757" type="curve" smooth="yes"/>
      <point x="1281" y="742"/>
      <point x="1311" y="739"/>
      <point x="1374" y="717" type="curve" smooth="yes"/>
      <point x="1471" y="683"/>
      <point x="1530" y="625"/>
      <point x="1530" y="492" type="curve" smooth="yes"/>
      <point x="1530" y="400"/>
      <point x="1486" y="366"/>
      <point x="1486" y="322" type="curve" smooth="yes"/>
      <point x="1486" y="300"/>
      <point x="1504" y="284"/>
      <point x="1526" y="284" type="curve" smooth="yes"/>
      <point x="1553" y="284"/>
      <point x="1582" y="291"/>
      <point x="1630" y="341" type="curve" smooth="yes"/>
      <point x="1656" y="368"/>
      <point x="1655" y="371"/>
      <point x="1683" y="341" type="curve" smooth="yes"/>
      <point x="1787" y="231" type="line" smooth="yes"/>
      <point x="1818" y="198"/>
      <point x="1809" y="190"/>
    </contour>
    <contour>
      <point x="834" y="890" type="curve" smooth="yes"/>
      <point x="978" y="890" type="line" smooth="yes"/>
      <point x="1130" y="890"/>
      <point x="1238" y="992"/>
      <point x="1238" y="1112" type="curve" smooth="yes"/>
      <point x="1238" y="1182"/>
      <point x="1170" y="1230"/>
      <point x="1078" y="1230" type="curve" smooth="yes"/>
      <point x="906" y="1230" type="line" smooth="yes"/>
      <point x="855" y="1230"/>
      <point x="845" y="1224"/>
      <point x="836" y="1181" type="curve" smooth="yes"/>
      <point x="785" y="943" type="line" smooth="yes"/>
      <point x="775" y="897"/>
      <point x="776" y="890"/>
    </contour>
  </outline>
</glyph>
<glyph name="S" format="2">
  <advance width="1498"/>
  <unicode hex="0053"/>
  <anchor x="645" y="0" name="Anchor-2"/>
  <anchor x="1030" y="1500" name="Anchor-0"/>
  <outline>
    <contour>
      <point x="644" y="1140" type="curve" smooth="yes"/>
      <point x="644" y="898"/>
      <point x="1404" y="1050"/>
      <point x="1404" y="490" type="curve" smooth="yes"/>
      <point x="1404" y="190"/>
      <point x="1146" y="-50"/>
      <point x="744" y="-50" type="curve" smooth="yes"/>
      <point x="544.543" y="-50"/>
      <point x="416.286" y="2.01406"/>
      <point x="336" y="75.3342" type="curve" smooth="yes"/>
      <point x="303.084" y="105.394"/>
      <point x="306.304" y="112.545"/>
      <point x="270" y="82.1368" type="curve" smooth="yes"/>
      <point x="188" y="13.453" type="line" smooth="yes"/>
      <point x="168.583" y="-2.81112"/>
      <point x="152.454" y="-10"/>
      <point x="114" y="-10" type="curve" smooth="yes"/>
      <point x="-8" y="-10" type="line" smooth="yes"/>
      <point x="-54.2012" y="-10"/>
      <point x="-82.3515" y="-19.7196"/>
      <point x="-72.2581" y="22" type="curve" smooth="yes"/>
      <point x="57.9032" y="560" type="line" smooth="yes"/>
      <point x="67.1746" y="598.321"/>
      <point x="71.8125" y="610"/>
      <point x="122" y="610" type="curve" smooth="yes"/>
      <point x="236" y="610" type="line" smooth="yes"/>
      <point x="306.623" y="610"/>
      <point x="294.792" y="585.873"/>
      <point x="295.18" y="528" type="curve" smooth="yes"/>
      <point x="297" y="256.505"/>
      <point x="492.192" y="178"/>
      <point x="664" y="178" type="curve" smooth="yes"/>
      <point x="854" y="178"/>
      <point x="924" y="262"/>
      <point x="924" y="380" type="curve" smooth="yes"/>
      <point x="924" y="662"/>
      <point x="170" y="476"/>
      <point x="170" y="1016" type="curve" smooth="yes"/>
      <point x="170" y="1316"/>
      <point x="436" y="1550"/>
      <point x="784" y="1550" type="curve" smooth="yes"/>
      <point x="957.721" y="1550"/>
      <point x="1092.47" y="1493.98"/>
      <point x="1182" y="1410.07" type="curve" smooth="yes"/>
      <point x="1203.13" y="1390.26"/>
      <point x="1204.15" y="1377.41"/>
      <point x="1228" y="1397.74" type="curve" smooth="yes"/>
      <point x="1328" y="1482.96" type="line" smooth="yes"/>
      <point x="1345.86" y="1498.17"/>
      <point x="1368.32" y="1500"/>
      <point x="1404" y="1500" type="curve" smooth="yes"/>
      <point x="1518" y="1500" type="line" smooth="yes"/>
      <point x="1573.79" y="1500"/>
      <point x="1576.93" y="1494.41"/>
      <point x="1566.75" y="1446" type="curve" smooth="yes"/>
      <point x="1464.51" y="960" type="line" smooth="yes"/>
      <point x="1452.51" y="902.894"/>
      <point x="1438.64" y="910"/>
      <point x="1372" y="910" type="curve" smooth="yes"/>
      <point x="1268" y="910" type="line" smooth="yes"/>
      <point x="1222.16" y="910"/>
      <point x="1215.82" y="913.791"/>
      <point x="1217.33" y="955" type="curve" smooth="yes"/>
      <point x="1225.1" y="1166.93"/>
      <point x="1070.7" y="1318"/>
      <point x="856" y="1318" type="curve" smooth="yes"/>
      <point x="718" y="1318"/>
      <point x="644" y="1224"/>
    </contour>
  </outline>
</glyph>
<glyph name="T" format="2">
  <advance width="1628"/>
  <unicode hex="0054"/>
  <anchor x="666" y="0" name="Anchor-2"/>
  <anchor x="1039" y="1500" name="Anchor-0"/>
  <outline>
    <contour>
      <point x="212" y="58" type="curve" smooth="yes"/>
      <point x="212" y="222" type="line" smooth="yes"/>
      <point x="212" y="269.302"/>
      <point x="221.477" y="270"/>
      <point x="269" y="270" type="curve" smooth="yes"/>
      <point x="427" y="270" type="line" smooth="yes"/>
      <point x="489.215" y="270"/>
      <point x="484.174" y="280.19"/>
      <point x="494.804" y="330" type="curve" smooth="yes"/>
      <point x="686.653" y="1229" type="line" smooth="yes"/>
      <point x="688.623" y="1238.23"/>
      <point x="675.88" y="1240"/>
      <point x="664" y="1240" type="curve" smooth="yes"/>
      <point x="662" y="1240" type="line" smooth="yes"/>
      <point x="479.001" y="1240"/>
      <point x="408.966" y="1163.07"/>
      <point x="339.683" y="945" type="curve" smooth="yes"/>
      <point x="323.278" y="893.363"/>
      <point x="318.166" y="880"/>
      <point x="256" y="880" type="curve" smooth="yes"/>
      <point x="158" y="880" type="line" smooth="yes"/>
      <point x="82.248" y="880"/>
      <point x="81.309" y="885.636"/>
      <point x="95.0968" y="945" type="curve" smooth="yes"/>
      <point x="211.458" y="1446" type="line" smooth="yes"/>
      <point x="222.471" y="1493.42"/>
      <point x="229.644" y="1500"/>
      <point x="290" y="1500" type="curve" smooth="yes"/>
      <point x="1660" y="1500" type="line" smooth="yes"/>
      <point x="1736.44" y="1500"/>
      <point x="1746.69" y="1494.5"/>
      <point x="1728.66" y="1419" type="curve" smooth="yes"/>
      <point x="1611.94" y="930" type="line" smooth="yes"/>
      <point x="1603.18" y="893.309"/>
      <point x="1598.99" y="880"/>
      <point x="1551" y="880" type="curve" smooth="yes"/>
      <point x="1421" y="880" type="line" smooth="yes"/>
      <point x="1343.85" y="880"/>
      <point x="1355.58" y="898.684"/>
      <point x="1366.12" y="954" type="curve" smooth="yes"/>
      <point x="1407.24" y="1169.76"/>
      <point x="1359.32" y="1240"/>
      <point x="1184" y="1240" type="curve" smooth="yes"/>
      <point x="1152" y="1240" type="line" smooth="yes"/>
      <point x="1124.12" y="1240"/>
      <point x="1122.48" y="1222.86"/>
      <point x="1117.81" y="1201" type="curve" smooth="yes"/>
      <point x="938.645" y="348" type="line" smooth="yes"/>
      <point x="926.751" y="292.264"/>
      <point x="913.799" y="270"/>
      <point x="989" y="270" type="curve" smooth="yes"/>
      <point x="1117" y="270" type="line" smooth="yes"/>
      <point x="1167.29" y="270"/>
      <point x="1172" y="264.024"/>
      <point x="1172" y="212" type="curve" smooth="yes"/>
      <point x="1172" y="73" type="line" smooth="yes"/>
      <point x="1172" y="4.59473"/>
      <point x="1165.52" y="0"/>
      <point x="1099" y="0" type="curve" smooth="yes"/>
      <point x="271" y="0" type="line" smooth="yes"/>
      <point x="219.217" y="0"/>
      <point x="212" y="4.19922"/>
    </contour>
  </outline>
</glyph>
<glyph name="U" format="2">
  <advance width="1830"/>
  <unicode hex="0055"/>
  <anchor x="1228" y="90" name="Anchor-3"/>
  <anchor x="866" y="0" name="Anchor-2"/>
  <anchor x="1170" y="1500" name="Anchor-0"/>
  <outline>
    <contour>
      <point x="836.5" y="1174" type="curve" smooth="yes"/>
      <point x="698" y="620" type="line" smooth="yes"/>
      <point x="676" y="534"/>
      <point x="670" y="462"/>
      <point x="670" y="410" type="curve" smooth="yes"/>
      <point x="670" y="320"/>
      <point x="718" y="236"/>
      <point x="868" y="236" type="curve" smooth="yes"/>
      <point x="1036" y="236"/>
      <point x="1223" y="294"/>
      <point x="1298" y="600" type="curve" smooth="yes"/>
      <point x="1439.24" y="1176" type="line" smooth="yes"/>
      <point x="1450.09" y="1220.38"/>
      <point x="1453.15" y="1230"/>
      <point x="1398" y="1230" type="curve" smooth="yes"/>
      <point x="1290" y="1230" type="line" smooth="yes"/>
      <point x="1240.17" y="1230"/>
      <point x="1240" y="1240"/>
      <point x="1240" y="1290" type="curve" smooth="yes"/>
      <point x="1240" y="1448" type="line" smooth="yes"/>
      <point x="1240" y="1488.9"/>
      <point x="1241.08" y="1500"/>
      <point x="1282" y="1500" type="curve" smooth="yes"/>
      <point x="1910" y="1500" type="line" smooth="yes"/>
      <point x="1949.86" y="1500"/>
      <point x="1950" y="1490"/>
      <point x="1950" y="1450" type="curve" smooth="yes"/>
      <point x="1950" y="1270" type="line" smooth="yes"/>
      <point x="1950" y="1236.87"/>
      <point x="1936.15" y="1230"/>
      <point x="1904" y="1230" type="curve" smooth="yes"/>
      <point x="1782" y="1230" type="line" smooth="yes"/>
      <point x="1739.17" y="1230"/>
      <point x="1730.9" y="1225.49"/>
      <point x="1722.71" y="1192" type="curve" smooth="yes"/>
      <point x="1578" y="600" type="line" smooth="yes"/>
      <point x="1469" y="156"/>
      <point x="1254" y="-50"/>
      <point x="798" y="-50" type="curve" smooth="yes"/>
      <point x="364" y="-50"/>
      <point x="186" y="134"/>
      <point x="186" y="364" type="curve" smooth="yes"/>
      <point x="186" y="438"/>
      <point x="198" y="517"/>
      <point x="218" y="600" type="curve" smooth="yes"/>
      <point x="360.756" y="1184" type="line" smooth="yes"/>
      <point x="370.358" y="1223.28"/>
      <point x="367.747" y="1230"/>
      <point x="316" y="1230" type="curve" smooth="yes"/>
      <point x="206" y="1230" type="line" smooth="yes"/>
      <point x="166.55" y="1230"/>
      <point x="160" y="1236.91"/>
      <point x="160" y="1278" type="curve" smooth="yes"/>
      <point x="160" y="1457" type="line" smooth="yes"/>
      <point x="160" y="1494.28"/>
      <point x="171.082" y="1500"/>
      <point x="206" y="1500" type="curve" smooth="yes"/>
      <point x="1030" y="1500" type="line" smooth="yes"/>
      <point x="1084.72" y="1500"/>
      <point x="1100" y="1495.59"/>
      <point x="1100" y="1437" type="curve" smooth="yes"/>
      <point x="1100" y="1280" type="line" smooth="yes"/>
      <point x="1100" y="1236.17"/>
      <point x="1092.27" y="1230"/>
      <point x="1050" y="1230" type="curve" smooth="yes"/>
      <point x="916" y="1230" type="line" smooth="yes"/>
      <point x="849.863" y="1230"/>
      <point x="849.645" y="1226.58"/>
    </contour>
  </outline>
</glyph>
<glyph name="W" format="2">
  <advance width="2618"/>
  <unicode hex="0057"/>
  <anchor x="1216" y="0" name="Anchor-2"/>
  <anchor x="1630" y="1500" name="Anchor-0"/>
  <outline>
    <contour>
      <point x="987" y="638" type="curve" smooth="yes"/>
      <point x="1322" y="1100" type="line" smooth="yes"/>
      <point x="1338" y="1121"/>
      <point x="1361" y="1139"/>
      <point x="1357" y="1172" type="curve" smooth="yes"/>
      <point x="1354" y="1200" type="line" smooth="yes"/>
      <point x="1351" y="1228"/>
      <point x="1352" y="1230"/>
      <point x="1320" y="1230" type="curve" smooth="yes"/>
      <point x="1206" y="1230" type="line" smooth="yes"/>
      <point x="1169" y="1230"/>
      <point x="1162" y="1236"/>
      <point x="1162" y="1274" type="curve" smooth="yes"/>
      <point x="1162" y="1426" type="line" smooth="yes"/>
      <point x="1162" y="1495"/>
      <point x="1168" y="1500"/>
      <point x="1236" y="1500" type="curve" smooth="yes"/>
      <point x="1904" y="1500" type="line" smooth="yes"/>
      <point x="1946" y="1500"/>
      <point x="1962" y="1498"/>
      <point x="1962" y="1452" type="curve" smooth="yes"/>
      <point x="1962" y="1282" type="line" smooth="yes"/>
      <point x="1962" y="1230"/>
      <point x="1952" y="1230"/>
      <point x="1900" y="1230" type="curve" smooth="yes"/>
      <point x="1848" y="1230" type="line" smooth="yes"/>
      <point x="1799" y="1230"/>
      <point x="1801" y="1215"/>
      <point x="1806" y="1174" type="curve" smooth="yes"/>
      <point x="1856" y="754" type="line" smooth="yes"/>
      <point x="1865" y="679"/>
      <point x="1846.91" y="591"/>
      <point x="1870" y="591" type="curve" smooth="yes"/>
      <point x="1885" y="591"/>
      <point x="1900" y="627"/>
      <point x="1917" y="654" type="curve" smooth="yes"/>
      <point x="2243" y="1172" type="line" smooth="yes"/>
      <point x="2275" y="1222"/>
      <point x="2294" y="1230"/>
      <point x="2206" y="1230" type="curve" smooth="yes"/>
      <point x="2151" y="1230" type="line" smooth="yes"/>
      <point x="2104" y="1230"/>
      <point x="2100" y="1239"/>
      <point x="2100" y="1284" type="curve" smooth="yes"/>
      <point x="2100" y="1458" type="line" smooth="yes"/>
      <point x="2100" y="1499"/>
      <point x="2109" y="1500"/>
      <point x="2150" y="1500" type="curve" smooth="yes"/>
      <point x="2724" y="1500" type="line" smooth="yes"/>
      <point x="2781" y="1500"/>
      <point x="2788" y="1494"/>
      <point x="2788" y="1435" type="curve" smooth="yes"/>
      <point x="2788" y="1278" type="line" smooth="yes"/>
      <point x="2788" y="1235"/>
      <point x="2782" y="1230"/>
      <point x="2738" y="1230" type="curve" smooth="yes"/>
      <point x="2618" y="1230" type="line" smooth="yes"/>
      <point x="2571" y="1230"/>
      <point x="2571" y="1213"/>
      <point x="2554" y="1186" type="curve" smooth="yes"/>
      <point x="1825" y="42" type="line" smooth="yes"/>
      <point x="1799" y="1"/>
      <point x="1790" y="-20"/>
      <point x="1718" y="-20" type="curve" smooth="yes"/>
      <point x="1574" y="-20" type="line" smooth="yes"/>
      <point x="1507" y="-20"/>
      <point x="1492" y="-15"/>
      <point x="1485" y="48" type="curve" smooth="yes"/>
      <point x="1424" y="582" type="line" smooth="yes"/>
      <point x="1412" y="688"/>
      <point x="1428" y="770"/>
      <point x="1404" y="770" type="curve" smooth="yes"/>
      <point x="1390.85" y="770"/>
      <point x="1360" y="727"/>
      <point x="1319" y="672" type="curve" smooth="yes"/>
      <point x="846" y="36" type="line" smooth="yes"/>
      <point x="814" y="-6"/>
      <point x="801" y="-20"/>
      <point x="722" y="-20" type="curve" smooth="yes"/>
      <point x="576" y="-20" type="line" smooth="yes"/>
      <point x="506" y="-20"/>
      <point x="509" y="-14"/>
      <point x="501" y="46" type="curve" smooth="yes"/>
      <point x="350" y="1140" type="line" smooth="yes"/>
      <point x="341" y="1206"/>
      <point x="353" y="1230"/>
      <point x="274" y="1230" type="curve" smooth="yes"/>
      <point x="184" y="1230" type="line" smooth="yes"/>
      <point x="131" y="1230"/>
      <point x="120" y="1232"/>
      <point x="120" y="1288" type="curve" smooth="yes"/>
      <point x="120" y="1436" type="line" smooth="yes"/>
      <point x="120" y="1491"/>
      <point x="121" y="1500"/>
      <point x="176" y="1500" type="curve" smooth="yes"/>
      <point x="914" y="1500" type="line" smooth="yes"/>
      <point x="972" y="1500"/>
      <point x="1000" y="1496"/>
      <point x="1000" y="1432" type="curve" smooth="yes"/>
      <point x="1000" y="1300" type="line" smooth="yes"/>
      <point x="1000" y="1250"/>
      <point x="998" y="1230"/>
      <point x="944" y="1230" type="curve" smooth="yes"/>
      <point x="854" y="1230" type="line" smooth="yes"/>
      <point x="810" y="1230"/>
      <point x="807" y="1213"/>
      <point x="812" y="1176" type="curve" smooth="yes"/>
      <point x="878" y="644" type="line" smooth="yes"/>
      <point x="889" y="559"/>
      <point x="877.845" y="529"/>
      <point x="894" y="529" type="curve" smooth="yes"/>
      <point x="913" y="529"/>
      <point x="952" y="589"/>
    </contour>
  </outline>
</glyph>
<glyph name="Y" format="2">
  <advance width="1670"/>
  <unicode hex="0059"/>
  <anchor x="761" y="0" name="Anchor-2"/>
  <anchor x="1020" y="1500" name="Anchor-0"/>
  <outline>
    <contour>
      <point x="308" y="40" type="curve" smooth="yes"/>
      <point x="308" y="220" type="line" smooth="yes"/>
      <point x="308" y="270"/>
      <point x="318" y="270"/>
      <point x="368" y="270" type="curve" smooth="yes"/>
      <point x="512" y="270" type="line" smooth="yes"/>
      <point x="560" y="270"/>
      <point x="554" y="283"/>
      <point x="563" y="320" type="curve" smooth="yes"/>
      <point x="605" y="504" type="line" smooth="yes"/>
      <point x="621" y="574"/>
      <point x="615" y="597"/>
      <point x="588" y="654" type="curve" smooth="yes"/>
      <point x="344" y="1172" type="line" smooth="yes"/>
      <point x="322" y="1220"/>
      <point x="323" y="1230"/>
      <point x="250" y="1230" type="curve" smooth="yes"/>
      <point x="172" y="1230" type="line" smooth="yes"/>
      <point x="124" y="1230"/>
      <point x="120" y="1238"/>
      <point x="120" y="1284" type="curve" smooth="yes"/>
      <point x="120" y="1446" type="line" smooth="yes"/>
      <point x="120" y="1490"/>
      <point x="122" y="1500"/>
      <point x="166" y="1500" type="curve" smooth="yes"/>
      <point x="900" y="1500" type="line" smooth="yes"/>
      <point x="955" y="1500"/>
      <point x="960" y="1495"/>
      <point x="960" y="1438" type="curve" smooth="yes"/>
      <point x="960" y="1300" type="line" smooth="yes"/>
      <point x="960" y="1234"/>
      <point x="952" y="1230"/>
      <point x="888" y="1230" type="curve" smooth="yes"/>
      <point x="846" y="1230" type="line" smooth="yes"/>
      <point x="789" y="1230"/>
      <point x="788" y="1217"/>
      <point x="804" y="1182" type="curve" smooth="yes"/>
      <point x="919" y="930" type="line" smooth="yes"/>
      <point x="947" y="868"/>
      <point x="933.864" y="837"/>
      <point x="966" y="837" type="curve" smooth="yes"/>
      <point x="990" y="837"/>
      <point x="1004" y="867"/>
      <point x="1030" y="896" type="curve" smooth="yes"/>
      <point x="1290" y="1184" type="line" smooth="yes"/>
      <point x="1320" y="1217"/>
      <point x="1341" y="1230"/>
      <point x="1264" y="1230" type="curve" smooth="yes"/>
      <point x="1198" y="1230" type="line" smooth="yes"/>
      <point x="1158" y="1230"/>
      <point x="1150" y="1235"/>
      <point x="1150" y="1274" type="curve" smooth="yes"/>
      <point x="1150" y="1443" type="line" smooth="yes"/>
      <point x="1150" y="1495"/>
      <point x="1158" y="1500"/>
      <point x="1208" y="1500" type="curve" smooth="yes"/>
      <point x="1772" y="1500" type="line" smooth="yes"/>
      <point x="1820" y="1500"/>
      <point x="1830" y="1498"/>
      <point x="1830" y="1450" type="curve" smooth="yes"/>
      <point x="1830" y="1268" type="line" smooth="yes"/>
      <point x="1830" y="1234"/>
      <point x="1821" y="1230"/>
      <point x="1786" y="1230" type="curve" smooth="yes"/>
      <point x="1716" y="1230" type="line" smooth="yes"/>
      <point x="1677" y="1230"/>
      <point x="1662" y="1225"/>
      <point x="1644" y="1206" type="curve" smooth="yes"/>
      <point x="1159" y="678" type="line" smooth="yes"/>
      <point x="1130" y="646"/>
      <point x="1114" y="629"/>
      <point x="1102" y="576" type="curve" smooth="yes"/>
      <point x="1045" y="328" type="line" smooth="yes"/>
      <point x="1033" y="274"/>
      <point x="1039" y="270"/>
      <point x="1102" y="270" type="curve" smooth="yes"/>
      <point x="1200" y="270" type="line" smooth="yes"/>
      <point x="1268" y="270"/>
      <point x="1278" y="268"/>
      <point x="1278" y="198" type="curve" smooth="yes"/>
      <point x="1278" y="69" type="line" smooth="yes"/>
      <point x="1278" y="3"/>
      <point x="1260" y="0"/>
      <point x="1198" y="0" type="curve" smooth="yes"/>
      <point x="357" y="0" type="line" smooth="yes"/>
      <point x="318" y="0"/>
      <point x="308" y="1"/>
    </contour>
  </outline>
</glyph>
<glyph name="Z" format="2">
  <advance width="1570"/>
  <unicode hex="005A"/>
  <anchor x="686" y="0" name="Anchor-2"/>
  <anchor x="860" y="1500" name="Anchor-0"/>
  <outline>
    <contour>
      <point x="-110" y="82" type="curve" smooth="yes"/>
      <point x="-110" y="306" type="line" smooth="yes"/>
      <point x="-110" y="378"/>
      <point x="-95" y="381"/>
      <point x="-56" y="411" type="curve" smooth="yes"/>
      <point x="812" y="1066" type="line" smooth="yes"/>
      <point x="851" y="1095"/>
      <point x="1022" y="1180"/>
      <point x="1022" y="1216" type="curve" smooth="yes"/>
      <point x="1022" y="1236.05"/>
      <point x="969" y="1230"/>
      <point x="942" y="1230" type="curve" smooth="yes"/>
      <point x="730" y="1230" type="line" smooth="yes"/>
      <point x="479" y="1230"/>
      <point x="386" y="1158"/>
      <point x="318" y="936" type="curve" smooth="yes"/>
      <point x="305" y="892"/>
      <point x="303" y="870"/>
      <point x="240" y="870" type="curve" smooth="yes"/>
      <point x="120" y="870" type="line" smooth="yes"/>
      <point x="56" y="870"/>
      <point x="63" y="891"/>
      <point x="71" y="940" type="curve" smooth="yes"/>
      <point x="152" y="1450" type="line" smooth="yes"/>
      <point x="159" y="1495"/>
      <point x="166" y="1500"/>
      <point x="220" y="1500" type="curve" smooth="yes"/>
      <point x="1492" y="1500" type="line" smooth="yes"/>
      <point x="1550" y="1500"/>
      <point x="1550" y="1490"/>
      <point x="1550" y="1432" type="curve" smooth="yes"/>
      <point x="1550" y="1190" type="line" smooth="yes"/>
      <point x="1550" y="1124"/>
      <point x="1538" y="1121"/>
      <point x="1502" y="1094" type="curve" smooth="yes"/>
      <point x="624" y="431" type="line" smooth="yes"/>
      <point x="571" y="391"/>
      <point x="421" y="327.713"/>
      <point x="421" y="293" type="curve" smooth="yes"/>
      <point x="421" y="260"/>
      <point x="471" y="270"/>
      <point x="540" y="270" type="curve" smooth="yes"/>
      <point x="830" y="270" type="line" smooth="yes"/>
      <point x="1089" y="270"/>
      <point x="1180" y="347"/>
      <point x="1257" y="620" type="curve" smooth="yes"/>
      <point x="1269" y="663"/>
      <point x="1276" y="670"/>
      <point x="1334" y="670" type="curve" smooth="yes"/>
      <point x="1450" y="670" type="line" smooth="yes"/>
      <point x="1511" y="670"/>
      <point x="1507" y="655"/>
      <point x="1500" y="606" type="curve" smooth="yes"/>
      <point x="1419" y="62" type="line" smooth="yes"/>
      <point x="1410" y="4"/>
      <point x="1402" y="0"/>
      <point x="1334" y="0" type="curve" smooth="yes"/>
      <point x="-36" y="0" type="line" smooth="yes"/>
      <point x="-109" y="0"/>
      <point x="-110" y="9"/>
    </contour>
  </outline>
</glyph>
<glyph name="bracketleft" format="2">
  <advance width="810"/>
  <unicode hex="005B"/>
  <outline>
    <contour>
      <point x="361" y="1560" type="curve" smooth="yes"/>
      <point x="873" y="1560" type="line" smooth="yes"/>
      <point x="913.283" y="1560"/>
      <point x="930" y="1557.17"/>
      <point x="930" y="1513" type="curve" smooth="yes"/>
      <point x="930" y="1372" type="line" smooth="yes"/>
      <point x="930" y="1311.79"/>
      <point x="919.037" y="1310"/>
      <point x="861" y="1310" type="curve" smooth="yes"/>
      <point x="737" y="1310" type="line" smooth="yes"/>
      <point x="672.822" y="1310"/>
      <point x="657.33" y="1306.92"/>
      <point x="645.392" y="1252" type="curve" smooth="yes"/>
      <point x="377.826" y="22" type="line" smooth="yes"/>
      <point x="365.22" y="-35.9901"/>
      <point x="361.094" y="-50"/>
      <point x="438" y="-50" type="curve" smooth="yes"/>
      <point x="547" y="-50" type="line" smooth="yes"/>
      <point x="600.348" y="-50"/>
      <point x="610" y="-50.5342"/>
      <point x="610" y="-104" type="curve" smooth="yes"/>
      <point x="610" y="-244" type="line" smooth="yes"/>
      <point x="610" y="-293.547"/>
      <point x="602.95" y="-300"/>
      <point x="555" y="-300" type="curve" smooth="yes"/>
      <point x="-41" y="-300" type="line" smooth="yes"/>
      <point x="-101.691" y="-300"/>
      <point x="-109.517" y="-297.052"/>
      <point x="-98.1074" y="-244" type="curve" smooth="yes"/>
      <point x="276.667" y="1498" type="line" smooth="yes"/>
      <point x="288.148" y="1551.39"/>
      <point x="293.965" y="1560"/>
    </contour>
  </outline>
</glyph>
<glyph name="backslash" format="2">
  <advance width="1040"/>
  <unicode hex="005C"/>
  <outline>
    <contour>
      <point x="522.994" y="1476" type="curve" smooth="yes"/>
      <point x="828.219" y="-234" type="line" smooth="yes"/>
      <point x="838.809" y="-293.329"/>
      <point x="838.043" y="-300"/>
      <point x="765" y="-300" type="curve" smooth="yes"/>
      <point x="625" y="-300" type="line" smooth="yes"/>
      <point x="554.881" y="-300"/>
      <point x="560.29" y="-290.124"/>
      <point x="550.228" y="-232" type="curve" smooth="yes"/>
      <point x="251.426" y="1494" type="line" smooth="yes"/>
      <point x="240.936" y="1554.59"/>
      <point x="243.035" y="1560"/>
      <point x="317" y="1560" type="curve" smooth="yes"/>
      <point x="439" y="1560" type="line" smooth="yes"/>
      <point x="520.715" y="1560"/>
      <point x="511.214" y="1542"/>
    </contour>
  </outline>
</glyph>
<glyph name="asciicircum" format="2">
  <advance width="1090"/>
  <unicode hex="005E"/>
  <outline>
    <contour>
      <point x="676" y="1279.08" type="curve" smooth="yes"/>
      <point x="362" y="1125.44" type="line" smooth="yes"/>
      <point x="314.703" y="1102.3"/>
      <point x="308.664" y="1100.97"/>
      <point x="268" y="1130.55" type="curve" smooth="yes"/>
      <point x="238" y="1152.36" type="line" smooth="yes"/>
      <point x="198.358" y="1181.19"/>
      <point x="200.44" y="1180.36"/>
      <point x="238" y="1211.09" type="curve" smooth="yes"/>
      <point x="590" y="1499.09" type="line" smooth="yes"/>
      <point x="626.074" y="1528.61"/>
      <point x="639.388" y="1540"/>
      <point x="710" y="1540" type="curve" smooth="yes"/>
      <point x="772" y="1540" type="line" smooth="yes"/>
      <point x="838.047" y="1540"/>
      <point x="851.723" y="1537.78"/>
      <point x="879.556" y="1502" type="curve" smooth="yes"/>
      <point x="1106.67" y="1210" type="line" smooth="yes"/>
      <point x="1129.62" y="1180.49"/>
      <point x="1130.54" y="1180.39"/>
      <point x="1100" y="1158.18" type="curve" smooth="yes"/>
      <point x="1058" y="1127.64" type="line" smooth="yes"/>
      <point x="1021.53" y="1101.11"/>
      <point x="1018.83" y="1100.84"/>
      <point x="982" y="1127.17" type="curve" smooth="yes"/>
      <point x="784" y="1268.74" type="line" smooth="yes"/>
      <point x="736.969" y="1302.37"/>
      <point x="730.418" y="1305.7"/>
    </contour>
  </outline>
</glyph>
<glyph name="grave" format="2">
  <advance width="790"/>
  <unicode hex="0060"/>
  <outline>
    <contour>
      <point x="440" y="1340" type="line" smooth="yes"/>
      <point x="343" y="1333"/>
      <point x="250" y="1412"/>
      <point x="250" y="1510" type="curve" smooth="yes"/>
      <point x="250" y="1608"/>
      <point x="359" y="1724"/>
      <point x="460" y="1676" type="curve" smooth="yes"/>
      <point x="823" y="1504.63" type="line" smooth="yes"/>
      <point x="853.879" y="1490.06"/>
      <point x="853.839" y="1475.18"/>
      <point x="852.366" y="1431" type="curve" smooth="yes"/>
      <point x="850.166" y="1379.98"/>
      <point x="852.396" y="1370.91"/>
      <point x="805" y="1367.44" type="curve" smooth="yes"/>
    </contour>
  </outline>
</glyph>
<glyph name="a" format="2">
  <advance width="1588"/>
  <unicode hex="0061"/>
  <anchor x="911" y="1040" name="Anchor-0"/>
  <anchor x="545" y="0" name="Anchor-2"/>
  <anchor x="1187" y="10" name="Anchor-3"/>
  <outline>
    <contour>
      <point x="846" y="640" type="curve" smooth="yes"/>
      <point x="846" y="750"/>
      <point x="824" y="850"/>
      <point x="768" y="850" type="curve" smooth="yes"/>
      <point x="642" y="850"/>
      <point x="510" y="608"/>
      <point x="510" y="360" type="curve" smooth="yes"/>
      <point x="510" y="232"/>
      <point x="538" y="188"/>
      <point x="598" y="188" type="curve" smooth="yes"/>
      <point x="680" y="188"/>
      <point x="846" y="372"/>
    </contour>
    <contour>
      <point x="1518" y="273" type="curve" smooth="yes"/>
      <point x="1412" y="71"/>
      <point x="1242" y="-50"/>
      <point x="1022" y="-50" type="curve" smooth="yes"/>
      <point x="919" y="-50"/>
      <point x="842" y="-7"/>
      <point x="792" y="49" type="curve" smooth="yes"/>
      <point x="780" y="63"/>
      <point x="771" y="72"/>
      <point x="763" y="79" type="curve" smooth="yes"/>
      <point x="741" y="98"/>
      <point x="729" y="90"/>
      <point x="692" y="61" type="curve" smooth="yes"/>
      <point x="616" y="1"/>
      <point x="522" y="-40"/>
      <point x="404" y="-40" type="curve" smooth="yes"/>
      <point x="206" y="-40"/>
      <point x="20" y="40"/>
      <point x="20" y="340" type="curve" smooth="yes"/>
      <point x="20" y="780"/>
      <point x="326" y="1078"/>
      <point x="604" y="1078" type="curve" smooth="yes"/>
      <point x="745" y="1078"/>
      <point x="829" y="1031"/>
      <point x="883" y="937" type="curve" smooth="yes"/>
      <point x="900" y="908"/>
      <point x="914" y="895"/>
      <point x="927" y="954" type="curve" smooth="yes"/>
      <point x="939" y="1008" type="line" smooth="yes"/>
      <point x="944" y="1032"/>
      <point x="951" y="1040"/>
      <point x="992" y="1040" type="curve" smooth="yes"/>
      <point x="1330" y="1040" type="line" smooth="yes"/>
      <point x="1381" y="1040"/>
      <point x="1380" y="1031"/>
      <point x="1370" y="994" type="curve" smooth="yes"/>
      <point x="1184" y="302" type="line" smooth="yes"/>
      <point x="1181" y="290"/>
      <point x="1178" y="272"/>
      <point x="1178" y="262" type="curve" smooth="yes"/>
      <point x="1178" y="240"/>
      <point x="1186" y="234"/>
      <point x="1206" y="234" type="curve" smooth="yes"/>
      <point x="1246" y="234"/>
      <point x="1291" y="277"/>
      <point x="1341" y="372" type="curve" smooth="yes"/>
      <point x="1365" y="418"/>
      <point x="1375" y="417"/>
      <point x="1414" y="399" type="curve" smooth="yes"/>
      <point x="1496" y="361" type="line" smooth="yes"/>
      <point x="1544" y="338"/>
      <point x="1547" y="328"/>
    </contour>
  </outline>
</glyph>
<glyph name="b" format="2">
  <advance width="1368"/>
  <unicode hex="0062"/>
  <anchor x="1091" y="1040" name="Anchor-0"/>
  <anchor x="545" y="0" name="Anchor-2"/>
  <outline>
    <contour>
      <point x="459.597" y="254" type="curve" smooth="yes"/>
      <point x="476.004" y="210.643"/>
      <point x="505.842" y="190"/>
      <point x="546" y="190" type="curve" smooth="yes"/>
      <point x="654" y="190"/>
      <point x="808" y="392"/>
      <point x="808" y="700" type="curve" smooth="yes"/>
      <point x="808" y="788"/>
      <point x="786" y="846"/>
      <point x="738" y="846" type="curve" smooth="yes"/>
      <point x="660.352" y="846"/>
      <point x="558" y="760"/>
      <point x="510.977" y="555.209" type="curve" smooth="yes"/>
      <point x="457.587" y="323" type="line" smooth="yes"/>
      <point x="451.58" y="296.871"/>
      <point x="450.556" y="277.892"/>
    </contour>
    <contour>
      <point x="34.1848" y="302" type="curve" smooth="yes"/>
      <point x="260.456" y="1291" type="line" smooth="yes"/>
      <point x="270.45" y="1334.68"/>
      <point x="267.421" y="1350"/>
      <point x="208" y="1350" type="curve" smooth="yes"/>
      <point x="115" y="1350" type="line" smooth="yes"/>
      <point x="84.7081" y="1350"/>
      <point x="82" y="1357.67"/>
      <point x="82" y="1389" type="curve" smooth="yes"/>
      <point x="82" y="1519" type="line" smooth="yes"/>
      <point x="82" y="1553.15"/>
      <point x="85.8557" y="1560"/>
      <point x="119" y="1560" type="curve" smooth="yes"/>
      <point x="688" y="1560" type="line" smooth="yes"/>
      <point x="736.673" y="1560"/>
      <point x="738.128" y="1554.91"/>
      <point x="728.493" y="1513" type="curve" smooth="yes"/>
      <point x="615.313" y="1009" type="line" smooth="yes"/>
      <point x="605.233" y="964.111"/>
      <point x="606.326" y="939.356"/>
      <point x="651" y="974.323" type="curve" smooth="yes"/>
      <point x="726.995" y="1033.81"/>
      <point x="807.896" y="1078"/>
      <point x="894" y="1078" type="curve" smooth="yes"/>
      <point x="1132" y="1078"/>
      <point x="1288" y="940"/>
      <point x="1288" y="660" type="curve" smooth="yes"/>
      <point x="1288" y="280"/>
      <point x="982" y="-50"/>
      <point x="524" y="-50" type="curve" smooth="yes"/>
      <point x="269.843" y="-50"/>
      <point x="129.007" y="53.4051"/>
      <point x="55" y="172" type="curve" smooth="yes"/>
      <point x="25.3343" y="219.538"/>
      <point x="20.2643" y="241.155"/>
    </contour>
  </outline>
</glyph>
<glyph name="c" format="2">
  <advance width="1382"/>
  <unicode hex="0063"/>
  <anchor x="800" y="1040" name="Anchor-0"/>
  <anchor x="539" y="0" name="Anchor-2"/>
  <outline>
    <contour>
      <point x="1302" y="734" type="curve" smooth="yes"/>
      <point x="1302" y="558"/>
      <point x="1182" y="480"/>
      <point x="1054" y="480" type="curve" smooth="yes"/>
      <point x="938" y="480"/>
      <point x="850" y="552"/>
      <point x="850" y="686" type="curve" smooth="yes"/>
      <point x="850" y="782"/>
      <point x="934" y="810"/>
      <point x="934" y="844" type="curve" smooth="yes"/>
      <point x="934" y="868"/>
      <point x="916" y="886"/>
      <point x="868" y="886" type="curve" smooth="yes"/>
      <point x="726" y="886"/>
      <point x="470" y="688"/>
      <point x="470" y="380" type="curve" smooth="yes"/>
      <point x="470" y="232"/>
      <point x="526" y="188"/>
      <point x="604" y="188" type="curve" smooth="yes"/>
      <point x="680.534" y="188"/>
      <point x="783.996" y="218.095"/>
      <point x="858" y="309.297" type="curve" smooth="yes"/>
      <point x="876.207" y="331.736"/>
      <point x="885.026" y="346"/>
      <point x="929" y="346" type="curve" smooth="yes"/>
      <point x="1095" y="346" type="line" smooth="yes"/>
      <point x="1136.88" y="346"/>
      <point x="1155.12" y="334.09"/>
      <point x="1132.78" y="302" type="curve" smooth="yes"/>
      <point x="1012.9" y="129.805"/>
      <point x="825.128" y="-40"/>
      <point x="510" y="-40" type="curve" smooth="yes"/>
      <point x="252" y="-40"/>
      <point x="20" y="78"/>
      <point x="20" y="380" type="curve" smooth="yes"/>
      <point x="20" y="780"/>
      <point x="378" y="1080"/>
      <point x="780" y="1080" type="curve" smooth="yes"/>
      <point x="1064" y="1080"/>
      <point x="1302" y="938"/>
    </contour>
  </outline>
</glyph>
<glyph name="d" format="2">
  <advance width="1568"/>
  <unicode hex="0064"/>
  <anchor x="640" y="1040" name="Anchor-0"/>
  <anchor x="1628" y="1040" name="Anchor-1"/>
  <anchor x="602" y="0" name="Anchor-2"/>
  <outline>
    <contour>
      <point x="826" y="640" type="curve" smooth="yes"/>
      <point x="826" y="750"/>
      <point x="804" y="850"/>
      <point x="748" y="850" type="curve" smooth="yes"/>
      <point x="622" y="850"/>
      <point x="490" y="608"/>
      <point x="490" y="360" type="curve" smooth="yes"/>
      <point x="490" y="232"/>
      <point x="518" y="188"/>
      <point x="578" y="188" type="curve" smooth="yes"/>
      <point x="660" y="188"/>
      <point x="826" y="372"/>
    </contour>
    <contour>
      <point x="1508" y="292" type="curve" smooth="yes"/>
      <point x="1403" y="78"/>
      <point x="1229" y="-50"/>
      <point x="1002" y="-50" type="curve" smooth="yes"/>
      <point x="882" y="-50"/>
      <point x="810" y="9"/>
      <point x="762" y="80" type="curve" smooth="yes"/>
      <point x="754" y="93"/>
      <point x="746" y="100"/>
      <point x="738" y="104" type="curve" smooth="yes"/>
      <point x="722" y="112"/>
      <point x="707" y="102"/>
      <point x="689" y="85" type="curve" smooth="yes"/>
      <point x="610" y="9"/>
      <point x="517" y="-40"/>
      <point x="384" y="-40" type="curve" smooth="yes"/>
      <point x="186" y="-40"/>
      <point x="20" y="40"/>
      <point x="20" y="340" type="curve" smooth="yes"/>
      <point x="20" y="780"/>
      <point x="326" y="1078"/>
      <point x="584" y="1078" type="curve" smooth="yes"/>
      <point x="712" y="1078"/>
      <point x="804" y="1040"/>
      <point x="848" y="961" type="curve" smooth="yes"/>
      <point x="877" y="909"/>
      <point x="897" y="900"/>
      <point x="910" y="952" type="curve" smooth="yes"/>
      <point x="997" y="1313" type="line" smooth="yes"/>
      <point x="1005" y="1346"/>
      <point x="999" y="1350"/>
      <point x="956" y="1350" type="curve" smooth="yes"/>
      <point x="833" y="1350" type="line" smooth="yes"/>
      <point x="790" y="1350"/>
      <point x="776" y="1353"/>
      <point x="776" y="1399" type="curve" smooth="yes"/>
      <point x="776" y="1517" type="line" smooth="yes"/>
      <point x="776" y="1552"/>
      <point x="780" y="1560"/>
      <point x="814" y="1560" type="curve" smooth="yes"/>
      <point x="1406" y="1560" type="line" smooth="yes"/>
      <point x="1482" y="1560"/>
      <point x="1490" y="1552"/>
      <point x="1475" y="1494" type="curve" smooth="yes"/>
      <point x="1164" y="302" type="line" smooth="yes"/>
      <point x="1161" y="290"/>
      <point x="1158" y="272"/>
      <point x="1158" y="262" type="curve" smooth="yes"/>
      <point x="1158" y="240"/>
      <point x="1166" y="234"/>
      <point x="1186" y="234" type="curve" smooth="yes"/>
      <point x="1228" y="234"/>
      <point x="1278" y="283"/>
      <point x="1332" y="393" type="curve" smooth="yes"/>
      <point x="1346" y="421"/>
      <point x="1355" y="420"/>
      <point x="1384" y="406" type="curve" smooth="yes"/>
      <point x="1485" y="355" type="line" smooth="yes"/>
      <point x="1523" y="337"/>
      <point x="1526" y="329"/>
    </contour>
  </outline>
</glyph>
<glyph name="e" format="2">
  <advance width="1320"/>
  <unicode hex="0065"/>
  <anchor x="774" y="1040" name="Anchor-0"/>
  <anchor x="547" y="0" name="Anchor-2"/>
  <anchor x="873" y="102" name="Anchor-3"/>
  <outline>
    <contour>
      <point x="20" y="380" type="curve" smooth="yes"/>
      <point x="20" y="740"/>
      <point x="372" y="1080"/>
      <point x="834" y="1080" type="curve" smooth="yes"/>
      <point x="1118" y="1080"/>
      <point x="1280" y="970"/>
      <point x="1280" y="806" type="curve" smooth="yes"/>
      <point x="1280" y="515.961"/>
      <point x="816.275" y="422.829"/>
      <point x="498" y="394.989" type="curve" smooth="yes"/>
      <point x="474.604" y="392.943"/>
      <point x="470" y="385.563"/>
      <point x="470" y="365" type="curve" smooth="yes"/>
      <point x="470" y="217"/>
      <point x="526" y="188"/>
      <point x="604" y="188" type="curve" smooth="yes"/>
      <point x="680.88" y="188"/>
      <point x="784.93" y="218.367"/>
      <point x="859" y="310.536" type="curve" smooth="yes"/>
      <point x="876.844" y="332.74"/>
      <point x="885.626" y="346"/>
      <point x="929" y="346" type="curve" smooth="yes"/>
      <point x="1083" y="346" type="line" smooth="yes"/>
      <point x="1141.61" y="346"/>
      <point x="1152.76" y="329.725"/>
      <point x="1124" y="289.569" type="curve" smooth="yes"/>
      <point x="1003.79" y="121.727"/>
      <point x="817.541" y="-40"/>
      <point x="510" y="-40" type="curve" smooth="yes"/>
      <point x="252" y="-40"/>
      <point x="20" y="78"/>
    </contour>
    <contour>
      <point x="521" y="568.901" type="curve" smooth="yes"/>
      <point x="714.619" y="592.833"/>
      <point x="878" y="664.008"/>
      <point x="878" y="808" type="curve" smooth="yes"/>
      <point x="878" y="846"/>
      <point x="862" y="884"/>
      <point x="804" y="884" type="curve" smooth="yes"/>
      <point x="698.387" y="884"/>
      <point x="558.802" y="804.344"/>
      <point x="499.102" y="602" type="curve" smooth="yes"/>
      <point x="490.039" y="571.28"/>
      <point x="493.42" y="565.492"/>
    </contour>
  </outline>
</glyph>
<glyph name="f" format="2">
  <advance width="980"/>
  <unicode hex="0066"/>
  <anchor x="1101" y="1692" name="Anchor-0"/>
  <anchor x="301" y="0" name="Anchor-2"/>
  <outline>
    <contour>
      <point x="13.4593" y="-233" type="curve" smooth="yes"/>
      <point x="216.353" y="777" type="line" smooth="yes"/>
      <point x="225.449" y="822.277"/>
      <point x="224.405" y="830"/>
      <point x="167" y="830" type="curve" smooth="yes"/>
      <point x="84" y="830" type="line" smooth="yes"/>
      <point x="51.7762" y="830"/>
      <point x="50" y="838.479"/>
      <point x="50" y="871" type="curve" smooth="yes"/>
      <point x="50" y="988" type="line" smooth="yes"/>
      <point x="50" y="1030.9"/>
      <point x="51.0814" y="1040"/>
      <point x="94" y="1040" type="curve" smooth="yes"/>
      <point x="216" y="1040" type="line" smooth="yes"/>
      <point x="263.488" y="1040"/>
      <point x="270.468" y="1047.27"/>
      <point x="276.673" y="1078" type="curve" smooth="yes"/>
      <point x="290" y="1144" type="line" smooth="yes"/>
      <point x="364" y="1508"/>
      <point x="664" y="1600"/>
      <point x="964" y="1600" type="curve" smooth="yes"/>
      <point x="1226" y="1600"/>
      <point x="1430" y="1482"/>
      <point x="1430" y="1308" type="curve" smooth="yes"/>
      <point x="1430" y="1162"/>
      <point x="1302" y="1074"/>
      <point x="1174" y="1074" type="curve" smooth="yes"/>
      <point x="1058" y="1074"/>
      <point x="944" y="1136"/>
      <point x="944" y="1260" type="curve" smooth="yes"/>
      <point x="944" y="1352"/>
      <point x="1000" y="1376"/>
      <point x="1000" y="1400" type="curve" smooth="yes"/>
      <point x="1000" y="1412"/>
      <point x="982" y="1420"/>
      <point x="958" y="1420" type="curve" smooth="yes"/>
      <point x="878" y="1420"/>
      <point x="751" y="1356"/>
      <point x="700" y="1100" type="curve" smooth="yes"/>
      <point x="696.8" y="1084" type="line" smooth="yes"/>
      <point x="690.207" y="1051.03"/>
      <point x="690.448" y="1040"/>
      <point x="734" y="1040" type="curve" smooth="yes"/>
      <point x="902" y="1040" type="line" smooth="yes"/>
      <point x="944.728" y="1040"/>
      <point x="950" y="1032.33"/>
      <point x="950" y="988" type="curve" smooth="yes"/>
      <point x="950" y="868" type="line" smooth="yes"/>
      <point x="950" y="831.782"/>
      <point x="941.529" y="830"/>
      <point x="905" y="830" type="curve" smooth="yes"/>
      <point x="700" y="830" type="line" smooth="yes"/>
      <point x="648.684" y="830"/>
      <point x="643.951" y="819.756"/>
      <point x="635.8" y="779" type="curve" smooth="yes"/>
      <point x="431.6" y="-242" type="line" smooth="yes"/>
      <point x="421.241" y="-293.793"/>
      <point x="414.146" y="-300"/>
      <point x="350" y="-300" type="curve" smooth="yes"/>
      <point x="74" y="-300" type="line" smooth="yes"/>
      <point x="5.60352" y="-300"/>
      <point x="2.91861" y="-285.471"/>
    </contour>
  </outline>
</glyph>
<glyph name="g" format="2">
  <advance width="1318"/>
  <unicode hex="0067"/>
  <anchor x="821" y="1040" name="Anchor-0"/>
  <anchor x="245" y="-565" name="Anchor-2"/>
  <outline>
    <contour>
      <point x="-150" y="-310" type="curve" smooth="yes"/>
      <point x="-150" y="-188.425"/>
      <point x="-40.5212" y="-106.007"/>
      <point x="97" y="-56.3163" type="curve" smooth="yes"/>
      <point x="157.031" y="-34.6252"/>
      <point x="138.036" y="-39.7415"/>
      <point x="103.973" y="-2.00001" type="curve" smooth="yes"/>
      <point x="72.8372" y="32.4974"/>
      <point x="54" y="74.194"/>
      <point x="54" y="122" type="curve" smooth="yes"/>
      <point x="54" y="247.175"/>
      <point x="146.279" y="330.861"/>
      <point x="254" y="383.342" type="curve" smooth="yes"/>
      <point x="315.65" y="413.377"/>
      <point x="312.908" y="402.316"/>
      <point x="266.479" y="444" type="curve" smooth="yes"/>
      <point x="213.569" y="491.503"/>
      <point x="182" y="555.324"/>
      <point x="182" y="634" type="curve" smooth="yes"/>
      <point x="182" y="932"/>
      <point x="502" y="1080"/>
      <point x="774" y="1080" type="curve" smooth="yes"/>
      <point x="776" y="1080"/>
      <point x="778.002" y="1080.01"/>
      <point x="780" y="1079.91" type="curve" smooth="yes"/>
      <point x="800.698" y="1078.87"/>
      <point x="807.487" y="1083.8"/>
      <point x="814" y="1108.42" type="curve" smooth="yes"/>
      <point x="851.593" y="1250.53"/>
      <point x="945.744" y="1394"/>
      <point x="1130" y="1394" type="curve" smooth="yes"/>
      <point x="1312" y="1394"/>
      <point x="1408" y="1278"/>
      <point x="1408" y="1174" type="curve" smooth="yes"/>
      <point x="1408" y="1086"/>
      <point x="1340" y="992"/>
      <point x="1222" y="992" type="curve" smooth="yes"/>
      <point x="1126" y="992"/>
      <point x="1030" y="1052"/>
      <point x="1030" y="1150" type="curve" smooth="yes"/>
      <point x="1030" y="1226"/>
      <point x="1098" y="1246"/>
      <point x="1064" y="1246" type="curve" smooth="yes"/>
      <point x="1027.15" y="1246"/>
      <point x="979.266" y="1176.4"/>
      <point x="958.661" y="1081" type="curve" smooth="yes"/>
      <point x="953.431" y="1056.78"/>
      <point x="954.541" y="1056.4"/>
      <point x="975.536" y="1049" type="curve" smooth="yes"/>
      <point x="1097.35" y="1006.04"/>
      <point x="1176" y="918.682"/>
      <point x="1176" y="792" type="curve" smooth="yes"/>
      <point x="1176" y="492"/>
      <point x="876" y="340"/>
      <point x="602" y="340" type="curve" smooth="yes"/>
      <point x="571.682" y="340"/>
      <point x="541.764" y="341.596"/>
      <point x="513" y="345.039" type="curve" smooth="yes"/>
      <point x="470.573" y="350.118"/>
      <point x="450.974" y="354.345"/>
      <point x="428.118" y="326" type="curve" smooth="yes"/>
      <point x="417.788" y="313.189"/>
      <point x="412" y="297.752"/>
      <point x="412" y="280" type="curve" smooth="yes"/>
      <point x="412" y="258"/>
      <point x="428" y="238"/>
      <point x="486" y="238" type="curve" smooth="yes"/>
      <point x="536" y="238"/>
      <point x="772" y="240"/>
      <point x="828" y="240" type="curve" smooth="yes"/>
      <point x="1020" y="240"/>
      <point x="1130" y="148"/>
      <point x="1130" y="-18" type="curve" smooth="yes"/>
      <point x="1130" y="-389"/>
      <point x="770" y="-530"/>
      <point x="384" y="-530" type="curve" smooth="yes"/>
      <point x="48" y="-530"/>
      <point x="-150" y="-454"/>
    </contour>
    <contour>
      <point x="285.015" y="-130" type="curve" smooth="yes"/>
      <point x="254.823" y="-158.976"/>
      <point x="236" y="-191.978"/>
      <point x="236" y="-230" type="curve" smooth="yes"/>
      <point x="236" y="-304"/>
      <point x="326" y="-326"/>
      <point x="464" y="-326" type="curve" smooth="yes"/>
      <point x="637" y="-326"/>
      <point x="756" y="-286"/>
      <point x="756" y="-176" type="curve" smooth="yes"/>
      <point x="756" y="-130"/>
      <point x="712" y="-118"/>
      <point x="600" y="-118" type="curve" smooth="yes"/>
      <point x="558" y="-118"/>
      <point x="456" y="-118"/>
      <point x="412" y="-118" type="curve" smooth="yes"/>
      <point x="390.986" y="-118"/>
      <point x="369.567" y="-116.784"/>
      <point x="348" y="-114.092" type="curve" smooth="yes"/>
      <point x="312.981" y="-109.722"/>
      <point x="305.514" y="-110.327"/>
    </contour>
    <contour>
      <point x="586" y="604" type="curve" smooth="yes"/>
      <point x="586" y="554"/>
      <point x="602" y="520"/>
      <point x="644" y="520" type="curve" smooth="yes"/>
      <point x="730" y="520"/>
      <point x="792" y="690"/>
      <point x="792" y="816" type="curve" smooth="yes"/>
      <point x="792" y="866"/>
      <point x="774" y="900"/>
      <point x="732" y="900" type="curve" smooth="yes"/>
      <point x="646" y="900"/>
      <point x="586" y="730"/>
    </contour>
  </outline>
</glyph>
<glyph name="h" format="2">
  <advance width="1568"/>
  <unicode hex="0068"/>
  <anchor x="1187" y="1039" name="Anchor-0"/>
  <anchor x="599" y="0" name="Anchor-2"/>
  <outline>
    <contour>
      <point x="1501" y="286.915" type="curve" smooth="yes"/>
      <point x="1400.75" y="89.6907"/>
      <point x="1226.65" y="-40"/>
      <point x="1006" y="-40" type="curve" smooth="yes"/>
      <point x="826" y="-40"/>
      <point x="732" y="44"/>
      <point x="732" y="146" type="curve" smooth="yes"/>
      <point x="732" y="184"/>
      <point x="741" y="220"/>
      <point x="750" y="250" type="curve" smooth="yes"/>
      <point x="854" y="620" type="line" smooth="yes"/>
      <point x="892" y="748"/>
      <point x="896" y="826"/>
      <point x="824" y="826" type="curve" smooth="yes"/>
      <point x="705.168" y="826"/>
      <point x="555" y="588"/>
      <point x="495.005" y="326.839" type="curve" smooth="yes"/>
      <point x="433.934" y="62" type="line" smooth="yes"/>
      <point x="421.895" y="9.54199"/>
      <point x="416.049" y="0"/>
      <point x="351" y="0" type="curve" smooth="yes"/>
      <point x="87" y="0" type="line" smooth="yes"/>
      <point x="10.127" y="0"/>
      <point x="1.8808" y="8.15012"/>
      <point x="15.6923" y="68" type="curve" smooth="yes"/>
      <point x="301.846" y="1308" type="line" smooth="yes"/>
      <point x="310.491" y="1345.46"/>
      <point x="307.333" y="1350"/>
      <point x="259" y="1350" type="curve" smooth="yes"/>
      <point x="175" y="1350" type="line" smooth="yes"/>
      <point x="135.896" y="1350"/>
      <point x="130" y="1355.33"/>
      <point x="130" y="1396" type="curve" smooth="yes"/>
      <point x="130" y="1498" type="line" smooth="yes"/>
      <point x="130" y="1558.21"/>
      <point x="140.963" y="1560"/>
      <point x="199" y="1560" type="curve" smooth="yes"/>
      <point x="707" y="1560" type="line" smooth="yes"/>
      <point x="773.613" y="1560"/>
      <point x="777.124" y="1554.9"/>
      <point x="764.066" y="1498" type="curve" smooth="yes"/>
      <point x="641.685" y="966" type="line" smooth="yes"/>
      <point x="624.251" y="890.215"/>
      <point x="631.387" y="872.532"/>
      <point x="699" y="939.439" type="curve" smooth="yes"/>
      <point x="799.906" y="1039.29"/>
      <point x="897.025" y="1078"/>
      <point x="1022" y="1078" type="curve" smooth="yes"/>
      <point x="1180" y="1078"/>
      <point x="1391" y="1014"/>
      <point x="1284" y="682" type="curve" smooth="yes"/>
      <point x="1164" y="310" type="line" smooth="yes"/>
      <point x="1159" y="294"/>
      <point x="1156" y="280"/>
      <point x="1156" y="272" type="curve" smooth="yes"/>
      <point x="1156" y="252"/>
      <point x="1166" y="244"/>
      <point x="1184" y="244" type="curve" smooth="yes"/>
      <point x="1219.76" y="244"/>
      <point x="1260.81" y="274.386"/>
      <point x="1310.36" y="362" type="curve" smooth="yes"/>
      <point x="1334.82" y="405.255"/>
      <point x="1332.36" y="438.445"/>
      <point x="1387" y="412.626" type="curve" smooth="yes"/>
      <point x="1469" y="373.879" type="line" smooth="yes"/>
      <point x="1525.96" y="346.966"/>
      <point x="1530.54" y="345.021"/>
    </contour>
  </outline>
</glyph>
<glyph name="i" format="2">
  <advance width="932"/>
  <unicode hex="0069"/>
  <anchor x="402" y="30" name="Anchor-3"/>
  <anchor x="297" y="10" name="Anchor-2"/>
  <outline>
    <contour>
      <point x="698.263" y="980" type="curve" smooth="yes"/>
      <point x="528" y="302" type="line" smooth="yes"/>
      <point x="525" y="290"/>
      <point x="522" y="272"/>
      <point x="522" y="262" type="curve" smooth="yes"/>
      <point x="522" y="240"/>
      <point x="530" y="234"/>
      <point x="550" y="234" type="curve" smooth="yes"/>
      <point x="589.056" y="234"/>
      <point x="633.879" y="275.81"/>
      <point x="683.244" y="368" type="curve" smooth="yes"/>
      <point x="707.422" y="413.152"/>
      <point x="704.065" y="424.804"/>
      <point x="755" y="400.736" type="curve" smooth="yes"/>
      <point x="859" y="351.593" type="line" smooth="yes"/>
      <point x="904.979" y="329.867"/>
      <point x="880.283" y="306.7"/>
      <point x="859" y="266.835" type="curve" smooth="yes"/>
      <point x="752.979" y="68.2451"/>
      <point x="583.786" y="-50"/>
      <point x="366" y="-50" type="curve" smooth="yes"/>
      <point x="202" y="-50"/>
      <point x="100" y="34"/>
      <point x="100" y="154" type="curve" smooth="yes"/>
      <point x="100" y="192"/>
      <point x="113" y="249"/>
      <point x="120" y="280" type="curve" smooth="yes"/>
      <point x="230.266" y="772" type="line" smooth="yes"/>
      <point x="241.294" y="821.315"/>
      <point x="243.039" y="830"/>
      <point x="183" y="830" type="curve" smooth="yes"/>
      <point x="87" y="830" type="line" smooth="yes"/>
      <point x="44.6463" y="830"/>
      <point x="40" y="836.117"/>
      <point x="40" y="880" type="curve" smooth="yes"/>
      <point x="40" y="998" type="line" smooth="yes"/>
      <point x="40" y="1037.05"/>
      <point x="50.3228" y="1040"/>
      <point x="87" y="1040" type="curve" smooth="yes"/>
      <point x="645" y="1040" type="line" smooth="yes"/>
      <point x="710.876" y="1040"/>
      <point x="712.381" y="1035.42"/>
    </contour>
    <contour>
      <point x="312" y="1380" type="curve" smooth="yes"/>
      <point x="312" y="1516"/>
      <point x="420" y="1590"/>
      <point x="552" y="1590" type="curve" smooth="yes"/>
      <point x="684" y="1590"/>
      <point x="792" y="1516"/>
      <point x="792" y="1380" type="curve" smooth="yes"/>
      <point x="792" y="1244"/>
      <point x="684" y="1170"/>
      <point x="552" y="1170" type="curve" smooth="yes"/>
      <point x="420" y="1170"/>
      <point x="312" y="1244"/>
    </contour>
  </outline>
</glyph>
<glyph name="j" format="2">
  <advance width="858"/>
  <unicode hex="006A"/>
  <anchor x="-139" y="-565" name="Anchor-2"/>
  <outline>
    <contour>
      <point x="759.846" y="970" type="curve" smooth="yes"/>
      <point x="536" y="0" type="line" smooth="yes"/>
      <point x="458" y="-322"/>
      <point x="322" y="-520"/>
      <point x="-78" y="-520" type="curve" smooth="yes"/>
      <point x="-360" y="-520"/>
      <point x="-514" y="-382"/>
      <point x="-514" y="-248" type="curve" smooth="yes"/>
      <point x="-514" y="-92"/>
      <point x="-376" y="-14"/>
      <point x="-248" y="-14" type="curve" smooth="yes"/>
      <point x="-112" y="-14"/>
      <point x="-18" y="-76"/>
      <point x="-18" y="-190" type="curve" smooth="yes"/>
      <point x="-18" y="-282"/>
      <point x="-76" y="-290"/>
      <point x="-76" y="-318" type="curve" smooth="yes"/>
      <point x="-76" y="-330"/>
      <point x="-56" y="-340"/>
      <point x="-22" y="-340" type="curve" smooth="yes"/>
      <point x="118" y="-340"/>
      <point x="92" y="-128"/>
      <point x="170" y="206" type="curve" smooth="yes"/>
      <point x="294.298" y="764" type="line" smooth="yes"/>
      <point x="305.601" y="814.74"/>
      <point x="303.175" y="830"/>
      <point x="235" y="830" type="curve" smooth="yes"/>
      <point x="155" y="830" type="line" smooth="yes"/>
      <point x="110.09" y="830"/>
      <point x="106" y="846.164"/>
      <point x="106" y="888" type="curve" smooth="yes"/>
      <point x="106" y="982" type="line" smooth="yes"/>
      <point x="106" y="1032.71"/>
      <point x="111.782" y="1040"/>
      <point x="161" y="1040" type="curve" smooth="yes"/>
      <point x="703" y="1040" type="line" smooth="yes"/>
      <point x="779.179" y="1040"/>
      <point x="773.079" y="1027.34"/>
    </contour>
    <contour>
      <point x="378" y="1380" type="curve" smooth="yes"/>
      <point x="378" y="1516"/>
      <point x="486" y="1590"/>
      <point x="618" y="1590" type="curve" smooth="yes"/>
      <point x="750" y="1590"/>
      <point x="858" y="1516"/>
      <point x="858" y="1380" type="curve" smooth="yes"/>
      <point x="858" y="1244"/>
      <point x="750" y="1170"/>
      <point x="618" y="1170" type="curve" smooth="yes"/>
      <point x="486" y="1170"/>
      <point x="378" y="1244"/>
    </contour>
  </outline>
</glyph>
<glyph name="m" format="2">
  <advance width="2230"/>
  <unicode hex="006D"/>
  <anchor x="1268" y="1040" name="Anchor-0"/>
  <anchor x="950" y="0" name="Anchor-2"/>
  <outline>
    <contour>
      <point x="86" y="1040" type="curve" smooth="yes"/>
      <point x="568" y="1040" type="line" smooth="yes"/>
      <point x="614.943" y="1040"/>
      <point x="638.721" y="1034.58"/>
      <point x="632.017" y="992" type="curve" smooth="yes"/>
      <point x="614.494" y="878" type="line" smooth="yes"/>
      <point x="605.528" y="819.671"/>
      <point x="625.842" y="828.355"/>
      <point x="662" y="874.847" type="curve" smooth="yes"/>
      <point x="764.656" y="1006.84"/>
      <point x="878.886" y="1078"/>
      <point x="1002" y="1078" type="curve" smooth="yes"/>
      <point x="1123.48" y="1078"/>
      <point x="1233.08" y="1041.21"/>
      <point x="1286" y="921.75" type="curve" smooth="yes"/>
      <point x="1314.95" y="856.39"/>
      <point x="1323.01" y="858.148"/>
      <point x="1362" y="904.693" type="curve" smooth="yes"/>
      <point x="1460.9" y="1022.76"/>
      <point x="1568.05" y="1078"/>
      <point x="1684" y="1078" type="curve" smooth="yes"/>
      <point x="1842" y="1078"/>
      <point x="2053" y="1014"/>
      <point x="1946" y="682" type="curve" smooth="yes"/>
      <point x="1826" y="310" type="line" smooth="yes"/>
      <point x="1821" y="294"/>
      <point x="1818" y="280"/>
      <point x="1818" y="272" type="curve" smooth="yes"/>
      <point x="1818" y="252"/>
      <point x="1828" y="244"/>
      <point x="1846" y="244" type="curve" smooth="yes"/>
      <point x="1886.05" y="244"/>
      <point x="1932.72" y="282.102"/>
      <point x="1990.54" y="396" type="curve" smooth="yes"/>
      <point x="2009.13" y="432.628"/>
      <point x="2009.64" y="431.227"/>
      <point x="2048" y="413.099" type="curve" smooth="yes"/>
      <point x="2134" y="372.462" type="line" smooth="yes"/>
      <point x="2191.06" y="345.5"/>
      <point x="2191.1" y="341.602"/>
      <point x="2161.51" y="284" type="curve" smooth="yes"/>
      <point x="2061.03" y="88.4138"/>
      <point x="1887.56" y="-40"/>
      <point x="1668" y="-40" type="curve" smooth="yes"/>
      <point x="1488" y="-40"/>
      <point x="1394" y="44"/>
      <point x="1394" y="146" type="curve" smooth="yes"/>
      <point x="1394" y="184"/>
      <point x="1403" y="220"/>
      <point x="1412" y="250" type="curve" smooth="yes"/>
      <point x="1516" y="620" type="line" smooth="yes"/>
      <point x="1554" y="748"/>
      <point x="1560" y="826"/>
      <point x="1506" y="826" type="curve" smooth="yes"/>
      <point x="1408" y="826"/>
      <point x="1260" y="597"/>
      <point x="1201" y="341" type="curve" smooth="yes"/>
      <point x="1131.73" y="42" type="line" smooth="yes"/>
      <point x="1125.3" y="14.2264"/>
      <point x="1118.71" y="0"/>
      <point x="1082" y="0" type="curve" smooth="yes"/>
      <point x="740" y="0" type="line" smooth="yes"/>
      <point x="687.535" y="0"/>
      <point x="685.979" y="11.0283"/>
      <point x="697.284" y="55" type="curve" smooth="yes"/>
      <point x="860" y="676" type="line" smooth="yes"/>
      <point x="889" y="787"/>
      <point x="880" y="826"/>
      <point x="844" y="826" type="curve" smooth="yes"/>
      <point x="746" y="826"/>
      <point x="587" y="596"/>
      <point x="528" y="339" type="curve" smooth="yes"/>
      <point x="461.965" y="52" type="line" smooth="yes"/>
      <point x="454.146" y="18.0172"/>
      <point x="440.873" y="0"/>
      <point x="396" y="0" type="curve" smooth="yes"/>
      <point x="106" y="0" type="line" smooth="yes"/>
      <point x="36.4307" y="0"/>
      <point x="33.25" y="14.0497"/>
      <point x="45.2675" y="66" type="curve" smooth="yes"/>
      <point x="208.583" y="772" type="line" smooth="yes"/>
      <point x="219.502" y="819.202"/>
      <point x="213.275" y="830"/>
      <point x="150" y="830" type="curve" smooth="yes"/>
      <point x="100" y="830" type="line" smooth="yes"/>
      <point x="48.1162" y="830"/>
      <point x="40" y="832.192"/>
      <point x="40" y="884" type="curve" smooth="yes"/>
      <point x="40" y="988" type="line" smooth="yes"/>
      <point x="40" y="1031.9"/>
      <point x="42.206" y="1040"/>
    </contour>
  </outline>
</glyph>
<glyph name="n" format="2">
  <advance width="1598"/>
  <unicode hex="006E"/>
  <anchor x="770" y="1040" name="Anchor-0"/>
  <anchor x="650" y="0" name="Anchor-2"/>
  <outline>
    <contour>
      <point x="80" y="1040" type="curve" smooth="yes"/>
      <point x="612" y="1040" type="line" smooth="yes"/>
      <point x="648.461" y="1040"/>
      <point x="658.494" y="1032.03"/>
      <point x="651.195" y="1002" type="curve" smooth="yes"/>
      <point x="616.255" y="860" type="line" smooth="yes"/>
      <point x="603.885" y="809.728"/>
      <point x="613.457" y="800.739"/>
      <point x="652" y="852.038" type="curve" smooth="yes"/>
      <point x="766.402" y="1004.3"/>
      <point x="897.929" y="1078"/>
      <point x="1052" y="1078" type="curve" smooth="yes"/>
      <point x="1210" y="1078"/>
      <point x="1421" y="1014"/>
      <point x="1314" y="682" type="curve" smooth="yes"/>
      <point x="1194" y="310" type="line" smooth="yes"/>
      <point x="1189" y="294"/>
      <point x="1186" y="280"/>
      <point x="1186" y="272" type="curve" smooth="yes"/>
      <point x="1186" y="252"/>
      <point x="1196" y="244"/>
      <point x="1214" y="244" type="curve" smooth="yes"/>
      <point x="1253.81" y="244"/>
      <point x="1300.17" y="281.656"/>
      <point x="1357.52" y="394" type="curve" smooth="yes"/>
      <point x="1371.17" y="420.735"/>
      <point x="1384.39" y="432.121"/>
      <point x="1415" y="417.659" type="curve" smooth="yes"/>
      <point x="1516" y="365.846" type="line" smooth="yes"/>
      <point x="1562.24" y="343.998"/>
      <point x="1556.58" y="338.281"/>
      <point x="1534" y="292.881" type="curve" smooth="yes"/>
      <point x="1434.24" y="92.3104"/>
      <point x="1258.87" y="-40"/>
      <point x="1036" y="-40" type="curve" smooth="yes"/>
      <point x="856" y="-40"/>
      <point x="762" y="44"/>
      <point x="762" y="146" type="curve" smooth="yes"/>
      <point x="762" y="184"/>
      <point x="771" y="220"/>
      <point x="780" y="250" type="curve" smooth="yes"/>
      <point x="884" y="620" type="line" smooth="yes"/>
      <point x="922" y="748"/>
      <point x="926" y="826"/>
      <point x="854" y="826" type="curve" smooth="yes"/>
      <point x="737" y="826"/>
      <point x="588" y="597"/>
      <point x="529" y="341" type="curve" smooth="yes"/>
      <point x="461.804" y="48" type="line" smooth="yes"/>
      <point x="452.399" y="7.40723"/>
      <point x="443.345" y="0"/>
      <point x="394" y="0" type="curve" smooth="yes"/>
      <point x="96" y="0" type="line" smooth="yes"/>
      <point x="28.3799" y="0"/>
      <point x="32.5693" y="11.1069"/>
      <point x="44.3422" y="62" type="curve" smooth="yes"/>
      <point x="209.046" y="774" type="line" smooth="yes"/>
      <point x="220.241" y="822.397"/>
      <point x="220.877" y="830"/>
      <point x="158" y="830" type="curve" smooth="yes"/>
      <point x="87" y="830" type="line" smooth="yes"/>
      <point x="45.2227" y="830"/>
      <point x="40" y="837.745"/>
      <point x="40" y="878" type="curve" smooth="yes"/>
      <point x="40" y="996" type="line" smooth="yes"/>
      <point x="40" y="1033.19"/>
      <point x="43.868" y="1040"/>
    </contour>
  </outline>
</glyph>
<glyph name="o" format="2">
  <advance width="1376"/>
  <unicode hex="006F"/>
  <anchor x="767" y="1040" name="Anchor-0"/>
  <anchor x="505" y="0" name="Anchor-2"/>
  <outline>
    <contour>
      <point x="20" y="400" type="curve" smooth="yes"/>
      <point x="20" y="780"/>
      <point x="336" y="1080"/>
      <point x="798" y="1080" type="curve" smooth="yes"/>
      <point x="1100" y="1080"/>
      <point x="1296" y="940"/>
      <point x="1296" y="640" type="curve" smooth="yes"/>
      <point x="1296" y="260"/>
      <point x="980" y="-40"/>
      <point x="518" y="-40" type="curve" smooth="yes"/>
      <point x="216" y="-40"/>
      <point x="20" y="100"/>
    </contour>
    <contour>
      <point x="470" y="340" type="curve" smooth="yes"/>
      <point x="470" y="212"/>
      <point x="500" y="180"/>
      <point x="558" y="180" type="curve" smooth="yes"/>
      <point x="696" y="180"/>
      <point x="846" y="432"/>
      <point x="846" y="700" type="curve" smooth="yes"/>
      <point x="846" y="828"/>
      <point x="816" y="860"/>
      <point x="758" y="860" type="curve" smooth="yes"/>
      <point x="620" y="860"/>
      <point x="470" y="608"/>
    </contour>
  </outline>
</glyph>
<glyph name="p" format="2">
  <advance width="1422"/>
  <unicode hex="0070"/>
  <anchor x="1007" y="1040" name="Anchor-0"/>
  <anchor x="787" y="0" name="Anchor-2"/>
  <outline>
    <contour>
      <point x="74" y="1040" type="curve" smooth="yes"/>
      <point x="590" y="1040" type="line" smooth="yes"/>
      <point x="623.5" y="1040"/>
      <point x="637.41" y="1038.09"/>
      <point x="628.427" y="1008" type="curve" smooth="yes"/>
      <point x="608.122" y="940" type="line" smooth="yes"/>
      <point x="595.55" y="897.899"/>
      <point x="597.441" y="886.95"/>
      <point x="639" y="930.88" type="curve" smooth="yes"/>
      <point x="723.604" y="1020.31"/>
      <point x="831.686" y="1078"/>
      <point x="978" y="1078" type="curve" smooth="yes"/>
      <point x="1176" y="1078"/>
      <point x="1342" y="958"/>
      <point x="1342" y="658" type="curve" smooth="yes"/>
      <point x="1342" y="218"/>
      <point x="996" y="-40"/>
      <point x="758" y="-40" type="curve" smooth="yes"/>
      <point x="651.869" y="-40"/>
      <point x="565.398" y="-7.24477"/>
      <point x="506" y="57.4681" type="curve" smooth="yes"/>
      <point x="469.236" y="97.5218"/>
      <point x="457.645" y="79.2401"/>
      <point x="448.727" y="40" type="curve" smooth="yes"/>
      <point x="338.546" y="-448" type="line" smooth="yes"/>
      <point x="328.628" y="-491.638"/>
      <point x="320.892" y="-500"/>
      <point x="268" y="-500" type="curve" smooth="yes"/>
      <point x="-18" y="-500" type="line" smooth="yes"/>
      <point x="-91.0518" y="-500"/>
      <point x="-89.4035" y="-479.89"/>
      <point x="-77.0857" y="-426" type="curve" smooth="yes"/>
      <point x="199.943" y="786" type="line" smooth="yes"/>
      <point x="207.937" y="820.976"/>
      <point x="208.966" y="830"/>
      <point x="162" y="830" type="curve" smooth="yes"/>
      <point x="74" y="830" type="line" smooth="yes"/>
      <point x="30.3691" y="830"/>
      <point x="28" y="837.97"/>
      <point x="28" y="882" type="curve" smooth="yes"/>
      <point x="28" y="998" type="line" smooth="yes"/>
      <point x="28" y="1036.69"/>
      <point x="37.6101" y="1040"/>
    </contour>
    <contour>
      <point x="536" y="398" type="curve" smooth="yes"/>
      <point x="536" y="288"/>
      <point x="558" y="198"/>
      <point x="614" y="198" type="curve" smooth="yes"/>
      <point x="740" y="198"/>
      <point x="872" y="430"/>
      <point x="872" y="678" type="curve" smooth="yes"/>
      <point x="872" y="806"/>
      <point x="844" y="850"/>
      <point x="784" y="850" type="curve" smooth="yes"/>
      <point x="702" y="850"/>
      <point x="536" y="666"/>
    </contour>
  </outline>
</glyph>
<glyph name="q" format="2">
  <advance width="1322"/>
  <unicode hex="0071"/>
  <anchor x="725" y="1040" name="Anchor-0"/>
  <anchor x="375" y="0" name="Anchor-2"/>
  <outline>
    <contour>
      <point x="20" y="380" type="curve" smooth="yes"/>
      <point x="20" y="820"/>
      <point x="366" y="1078"/>
      <point x="604" y="1078" type="curve" smooth="yes"/>
      <point x="729.065" y="1078"/>
      <point x="813.009" y="1031.09"/>
      <point x="869.944" y="944" type="curve" smooth="yes"/>
      <point x="896.209" y="903.826"/>
      <point x="907.671" y="893.472"/>
      <point x="919.509" y="944" type="curve" smooth="yes"/>
      <point x="933.566" y="1004" type="line" smooth="yes"/>
      <point x="941.52" y="1037.95"/>
      <point x="951.634" y="1040"/>
      <point x="994" y="1040" type="curve" smooth="yes"/>
      <point x="1280" y="1040" type="line" smooth="yes"/>
      <point x="1338.1" y="1040"/>
      <point x="1340.95" y="1035.5"/>
      <point x="1330.38" y="990" type="curve" smooth="yes"/>
      <point x="1046.94" y="-230" type="line" smooth="yes"/>
      <point x="1036.91" y="-273.156"/>
      <point x="1028.78" y="-290"/>
      <point x="1088" y="-290" type="curve" smooth="yes"/>
      <point x="1170" y="-290" type="line" smooth="yes"/>
      <point x="1209.99" y="-290"/>
      <point x="1214" y="-298.604"/>
      <point x="1214" y="-340" type="curve" smooth="yes"/>
      <point x="1214" y="-445" type="line" smooth="yes"/>
      <point x="1214" y="-494.117"/>
      <point x="1207.59" y="-500"/>
      <point x="1160" y="-500" type="curve" smooth="yes"/>
      <point x="638" y="-500" type="line" smooth="yes"/>
      <point x="575.34" y="-500"/>
      <point x="565.722" y="-492.582"/>
      <point x="576.997" y="-444" type="curve" smooth="yes"/>
      <point x="681.898" y="8" type="line" smooth="yes"/>
      <point x="690.046" y="43.1117"/>
      <point x="680.287" y="59.9064"/>
      <point x="618" y="22.3599" type="curve" smooth="yes"/>
      <point x="552.778" y="-16.9557"/>
      <point x="475.208" y="-40"/>
      <point x="384" y="-40" type="curve" smooth="yes"/>
      <point x="186" y="-40"/>
      <point x="20" y="80"/>
    </contour>
    <contour>
      <point x="826" y="640" type="curve" smooth="yes"/>
      <point x="826" y="750"/>
      <point x="814" y="850"/>
      <point x="738" y="850" type="curve" smooth="yes"/>
      <point x="632" y="850"/>
      <point x="490" y="608"/>
      <point x="490" y="360" type="curve" smooth="yes"/>
      <point x="490" y="232"/>
      <point x="518" y="188"/>
      <point x="578" y="188" type="curve" smooth="yes"/>
      <point x="660" y="188"/>
      <point x="826" y="372"/>
    </contour>
  </outline>
</glyph>
<glyph name="r" format="2">
  <advance width="1304"/>
  <unicode hex="0072"/>
  <anchor x="764" y="1040" name="Anchor-0"/>
  <anchor x="287" y="0" name="Anchor-2"/>
  <outline>
    <contour>
      <point x="74" y="1040" type="curve" smooth="yes"/>
      <point x="570" y="1040" type="line" smooth="yes"/>
      <point x="623.343" y="1040"/>
      <point x="648.019" y="1034.03"/>
      <point x="636.6" y="984" type="curve" smooth="yes"/>
      <point x="621.533" y="918" type="line" smooth="yes"/>
      <point x="610.774" y="870.865"/>
      <point x="612.257" y="844.31"/>
      <point x="653" y="898.644" type="curve" smooth="yes"/>
      <point x="739.056" y="1013.41"/>
      <point x="850.166" y="1086"/>
      <point x="1014" y="1086" type="curve" smooth="yes"/>
      <point x="1192" y="1086"/>
      <point x="1324" y="984"/>
      <point x="1324" y="828" type="curve" smooth="yes"/>
      <point x="1324" y="644"/>
      <point x="1202" y="530"/>
      <point x="1042" y="530" type="curve" smooth="yes"/>
      <point x="914" y="530"/>
      <point x="814" y="628"/>
      <point x="814" y="730" type="curve" smooth="yes"/>
      <point x="814" y="818"/>
      <point x="850" y="836"/>
      <point x="850" y="850" type="curve" smooth="yes"/>
      <point x="850" y="858"/>
      <point x="842" y="860"/>
      <point x="830" y="860" type="curve" smooth="yes"/>
      <point x="756" y="860"/>
      <point x="604" y="664"/>
      <point x="539" y="387" type="curve" smooth="yes"/>
      <point x="466.098" y="70" type="line" smooth="yes"/>
      <point x="454.04" y="17.5683"/>
      <point x="452.075" y="0"/>
      <point x="384" y="0" type="curve" smooth="yes"/>
      <point x="100" y="0" type="line" smooth="yes"/>
      <point x="43.04" y="0"/>
      <point x="31.2929" y="5.58907"/>
      <point x="41.5663" y="50" type="curve" smooth="yes"/>
      <point x="211.359" y="774" type="line" smooth="yes"/>
      <point x="222.524" y="822.267"/>
      <point x="220.827" y="830"/>
      <point x="162" y="830" type="curve" smooth="yes"/>
      <point x="86" y="830" type="line" smooth="yes"/>
      <point x="42.3691" y="830"/>
      <point x="40" y="837.97"/>
      <point x="40" y="882" type="curve" smooth="yes"/>
      <point x="40" y="999" type="line" smooth="yes"/>
      <point x="40" y="1030.1"/>
      <point x="43.8477" y="1040"/>
    </contour>
  </outline>
</glyph>
<glyph name="s" format="2">
  <advance width="1252"/>
  <unicode hex="0073"/>
  <anchor x="719" y="1040" name="Anchor-0"/>
  <anchor x="430" y="0" name="Anchor-2"/>
  <outline>
    <contour>
      <point x="682" y="260" type="curve" smooth="yes"/>
      <point x="682" y="414"/>
      <point x="206" y="468"/>
      <point x="206" y="760" type="curve" smooth="yes"/>
      <point x="206" y="998"/>
      <point x="436" y="1084"/>
      <point x="702" y="1084" type="curve" smooth="yes"/>
      <point x="1038" y="1084"/>
      <point x="1232" y="914"/>
      <point x="1232" y="782" type="curve" smooth="yes"/>
      <point x="1232" y="662"/>
      <point x="1158" y="584"/>
      <point x="1034" y="584" type="curve" smooth="yes"/>
      <point x="940" y="584"/>
      <point x="848" y="650"/>
      <point x="848" y="740" type="curve" smooth="yes"/>
      <point x="848" y="838"/>
      <point x="890" y="838"/>
      <point x="890" y="862" type="curve" smooth="yes"/>
      <point x="890" y="882"/>
      <point x="816" y="904"/>
      <point x="772" y="904" type="curve" smooth="yes"/>
      <point x="686" y="904"/>
      <point x="618" y="866"/>
      <point x="618" y="812" type="curve" smooth="yes"/>
      <point x="618" y="632"/>
      <point x="1128" y="604"/>
      <point x="1128" y="278" type="curve" smooth="yes"/>
      <point x="1128" y="10"/>
      <point x="828" y="-44"/>
      <point x="554" y="-44" type="curve" smooth="yes"/>
      <point x="236" y="-44"/>
      <point x="-20" y="72"/>
      <point x="-20" y="272" type="curve" smooth="yes"/>
      <point x="-20" y="418"/>
      <point x="78" y="522"/>
      <point x="208" y="522" type="curve" smooth="yes"/>
      <point x="314" y="522"/>
      <point x="402" y="458"/>
      <point x="402" y="364" type="curve" smooth="yes"/>
      <point x="402" y="258"/>
      <point x="310" y="250"/>
      <point x="310" y="220" type="curve" smooth="yes"/>
      <point x="310" y="182"/>
      <point x="404" y="156"/>
      <point x="498" y="156" type="curve" smooth="yes"/>
      <point x="598" y="156"/>
      <point x="682" y="178"/>
    </contour>
  </outline>
</glyph>
<glyph name="t" format="2">
  <advance width="950"/>
  <unicode hex="0074"/>
  <anchor x="700" y="1277" name="Anchor-0"/>
  <anchor x="859" y="1153" name="Anchor-1"/>
  <anchor x="395" y="0" name="Anchor-2"/>
  <outline>
    <contour>
      <point x="82" y="1040" type="curve" smooth="yes"/>
      <point x="224" y="1040" type="line" smooth="yes"/>
      <point x="263.451" y="1040"/>
      <point x="259.861" y="1047.7"/>
      <point x="267.187" y="1078" type="curve" smooth="yes"/>
      <point x="295.165" y="1192" type="line" smooth="yes"/>
      <point x="300.783" y="1215.24"/>
      <point x="309.487" y="1221.52"/>
      <point x="336" y="1222.83" type="curve" smooth="yes"/>
      <point x="462.171" y="1229.03"/>
      <point x="537.468" y="1265.84"/>
      <point x="576" y="1291.38" type="curve" smooth="yes"/>
      <point x="616.112" y="1317.96"/>
      <point x="609.088" y="1316"/>
      <point x="673" y="1316" type="curve" smooth="yes"/>
      <point x="721.747" y="1316"/>
      <point x="740.668" y="1314.4"/>
      <point x="731.695" y="1278" type="curve" smooth="yes"/>
      <point x="683.869" y="1084" type="line" smooth="yes"/>
      <point x="674.47" y="1047.97"/>
      <point x="673.204" y="1040"/>
      <point x="718" y="1040" type="curve" smooth="yes"/>
      <point x="866" y="1040" type="line" smooth="yes"/>
      <point x="895.265" y="1040"/>
      <point x="910" y="1038.23"/>
      <point x="910" y="1006" type="curve" smooth="yes"/>
      <point x="910" y="884" type="line" smooth="yes"/>
      <point x="910" y="838.105"/>
      <point x="907.798" y="830"/>
      <point x="862" y="830" type="curve" smooth="yes"/>
      <point x="656" y="830" type="line" smooth="yes"/>
      <point x="620.336" y="830"/>
      <point x="615.035" y="820.136"/>
      <point x="607.695" y="792" type="curve" smooth="yes"/>
      <point x="486" y="324" type="line" smooth="yes"/>
      <point x="476" y="286"/>
      <point x="466" y="236"/>
      <point x="514" y="236" type="curve" smooth="yes"/>
      <point x="559.342" y="236"/>
      <point x="603.162" y="284.659"/>
      <point x="656.07" y="378" type="curve" smooth="yes"/>
      <point x="671.655" y="405.496"/>
      <point x="681.487" y="421.41"/>
      <point x="714" y="404.566" type="curve" smooth="yes"/>
      <point x="810" y="354.651" type="line" smooth="yes"/>
      <point x="847.073" y="335.444"/>
      <point x="846.2" y="331.226"/>
      <point x="830.255" y="290" type="curve" smooth="yes"/>
      <point x="748.526" y="78.6972"/>
      <point x="566.082" y="-40"/>
      <point x="340" y="-40" type="curve" smooth="yes"/>
      <point x="124" y="-40"/>
      <point x="30" y="60"/>
      <point x="72" y="252" type="curve" smooth="yes"/>
      <point x="198.54" y="782" type="line" smooth="yes"/>
      <point x="205.648" y="811.771"/>
      <point x="212.67" y="830"/>
      <point x="170" y="830" type="curve" smooth="yes"/>
      <point x="80" y="830" type="line" smooth="yes"/>
      <point x="40.7071" y="830"/>
      <point x="20" y="831.668"/>
      <point x="20" y="875" type="curve" smooth="yes"/>
      <point x="20" y="995" type="line" smooth="yes"/>
      <point x="20" y="1038.74"/>
      <point x="42.2196" y="1040"/>
    </contour>
  </outline>
</glyph>
<glyph name="u" format="2">
  <advance width="1768"/>
  <unicode hex="0075"/>
  <anchor x="989" y="1040" name="Anchor-0"/>
  <anchor x="582" y="0" name="Anchor-2"/>
  <anchor x="1442" y="50" name="Anchor-3"/>
  <outline>
    <contour>
      <point x="42" y="743.068" type="curve" smooth="yes"/>
      <point x="141.404" y="945.906"/>
      <point x="317.634" y="1080"/>
      <point x="542" y="1080" type="curve" smooth="yes"/>
      <point x="780" y="1080"/>
      <point x="846" y="958"/>
      <point x="798" y="790" type="curve" smooth="yes"/>
      <point x="694" y="420" type="line" smooth="yes"/>
      <point x="656" y="292"/>
      <point x="652" y="214"/>
      <point x="724" y="214" type="curve" smooth="yes"/>
      <point x="824" y="214"/>
      <point x="996" y="462"/>
      <point x="1056" y="728" type="curve" smooth="yes"/>
      <point x="1111.64" y="976" type="line" smooth="yes"/>
      <point x="1120.1" y="1013.68"/>
      <point x="1123.94" y="1040"/>
      <point x="1174" y="1040" type="curve" smooth="yes"/>
      <point x="1491" y="1040" type="line" smooth="yes"/>
      <point x="1548.87" y="1040"/>
      <point x="1561.99" y="1039.96"/>
      <point x="1549.66" y="994" type="curve" smooth="yes"/>
      <point x="1364" y="302" type="line" smooth="yes"/>
      <point x="1356" y="272"/>
      <point x="1348" y="234"/>
      <point x="1386" y="234" type="curve" smooth="yes"/>
      <point x="1425.89" y="234"/>
      <point x="1471.8" y="277.623"/>
      <point x="1522.43" y="374" type="curve" smooth="yes"/>
      <point x="1537.08" y="401.906"/>
      <point x="1550.44" y="421.517"/>
      <point x="1584" y="405.659" type="curve" smooth="yes"/>
      <point x="1671" y="362.956" type="line" smooth="yes"/>
      <point x="1708.86" y="345.066"/>
      <point x="1728.61" y="334.78"/>
      <point x="1710" y="296.336" type="curve" smooth="yes"/>
      <point x="1605.3" y="80.0107"/>
      <point x="1430.36" y="-50"/>
      <point x="1202" y="-50" type="curve" smooth="yes"/>
      <point x="1047.2" y="-50"/>
      <point x="951.502" y="39.0331"/>
      <point x="950.229" y="150" type="curve" smooth="yes"/>
      <point x="950" y="170" type="line" smooth="yes"/>
      <point x="949.807" y="186.843"/>
      <point x="937.164" y="185.252"/>
      <point x="919" y="163.992" type="curve" smooth="yes"/>
      <point x="810.194" y="36.6445"/>
      <point x="666.45" y="-38"/>
      <point x="526" y="-38" type="curve" smooth="yes"/>
      <point x="368" y="-38"/>
      <point x="152" y="28"/>
      <point x="264" y="358" type="curve"/>
      <point x="384" y="730" type="line" smooth="yes"/>
      <point x="394" y="760"/>
      <point x="400" y="796"/>
      <point x="364" y="796" type="curve" smooth="yes"/>
      <point x="324.427" y="796"/>
      <point x="278.384" y="758.791"/>
      <point x="221.504" y="648" type="curve" smooth="yes"/>
      <point x="201.33" y="608.705"/>
      <point x="201.616" y="608.181"/>
      <point x="160" y="627.846" type="curve" smooth="yes"/>
      <point x="52" y="678.879" type="line" smooth="yes"/>
      <point x="13.1921" y="697.217"/>
      <point x="23.9376" y="706.211"/>
    </contour>
  </outline>
</glyph>
<glyph name="v" format="2">
  <advance width="1312"/>
  <unicode hex="0076"/>
  <anchor x="903" y="1040" name="Anchor-0"/>
  <anchor x="567" y="0" name="Anchor-2"/>
  <outline>
    <contour>
      <point x="870" y="684" type="curve" smooth="yes"/>
      <point x="740" y="684"/>
      <point x="682" y="760"/>
      <point x="682" y="876" type="curve" smooth="yes"/>
      <point x="682" y="996"/>
      <point x="780" y="1098"/>
      <point x="988" y="1098" type="curve" smooth="yes"/>
      <point x="1148" y="1098"/>
      <point x="1292" y="980"/>
      <point x="1292" y="758" type="curve" smooth="yes"/>
      <point x="1292" y="411"/>
      <point x="939" y="277"/>
      <point x="331" y="-11" type="curve" smooth="yes"/>
      <point x="292" y="-29"/>
      <point x="271" y="-49"/>
      <point x="232" y="-28" type="curve" smooth="yes"/>
      <point x="115" y="34" type="line" smooth="yes"/>
      <point x="95" y="45"/>
      <point x="95" y="48"/>
      <point x="102" y="76" type="curve" smooth="yes"/>
      <point x="113" y="119"/>
      <point x="134" y="177"/>
      <point x="134" y="240" type="curve" smooth="yes"/>
      <point x="134" y="434"/>
      <point x="20" y="538"/>
      <point x="20" y="726" type="curve" smooth="yes"/>
      <point x="20" y="919"/>
      <point x="234" y="969"/>
      <point x="465" y="1069" type="curve" smooth="yes"/>
      <point x="488" y="1079"/>
      <point x="489" y="1082"/>
      <point x="500" y="1059" type="curve" smooth="yes"/>
      <point x="559" y="929" type="line" smooth="yes"/>
      <point x="569" y="907"/>
      <point x="571" y="908"/>
      <point x="551" y="895" type="curve" smooth="yes"/>
      <point x="511" y="869"/>
      <point x="466" y="827"/>
      <point x="466" y="770" type="curve" smooth="yes"/>
      <point x="466" y="631"/>
      <point x="594" y="633"/>
      <point x="607" y="387" type="curve" smooth="yes"/>
      <point x="608" y="371"/>
      <point x="609" y="361"/>
      <point x="611" y="356" type="curve" smooth="yes"/>
      <point x="616" y="343"/>
      <point x="626" y="356"/>
      <point x="649" y="369" type="curve" smooth="yes"/>
      <point x="888" y="508"/>
      <point x="1074" y="632"/>
      <point x="1074" y="746" type="curve" smooth="yes"/>
      <point x="1074" y="774"/>
      <point x="1068" y="786"/>
      <point x="1054" y="786" type="curve" smooth="yes"/>
      <point x="1012" y="786"/>
      <point x="994" y="684"/>
    </contour>
  </outline>
</glyph>
<glyph name="w" format="2">
  <advance width="2160"/>
  <unicode hex="0077"/>
  <anchor x="1136" y="1040" name="Anchor-0"/>
  <anchor x="957" y="0" name="Anchor-2"/>
  <outline>
    <contour>
      <point x="65" y="747.122" type="curve" smooth="yes"/>
      <point x="164.927" y="946.57"/>
      <point x="339.874" y="1078"/>
      <point x="562" y="1078" type="curve" smooth="yes"/>
      <point x="742" y="1078"/>
      <point x="836" y="994"/>
      <point x="836" y="892" type="curve" smooth="yes"/>
      <point x="836" y="854"/>
      <point x="827" y="818"/>
      <point x="818" y="788" type="curve" smooth="yes"/>
      <point x="722" y="438" type="line" smooth="yes"/>
      <point x="684" y="310"/>
      <point x="678" y="232"/>
      <point x="732" y="232" type="curve" smooth="yes"/>
      <point x="831" y="232"/>
      <point x="976" y="448"/>
      <point x="1032" y="707" type="curve" smooth="yes"/>
      <point x="1093.41" y="991" type="line" smooth="yes"/>
      <point x="1102.17" y="1031.54"/>
      <point x="1107.97" y="1040"/>
      <point x="1159" y="1040" type="curve" smooth="yes"/>
      <point x="1485" y="1040" type="line" smooth="yes"/>
      <point x="1555.72" y="1040"/>
      <point x="1551.07" y="1030.29"/>
      <point x="1537.07" y="973" type="curve" smooth="yes"/>
      <point x="1402" y="418" type="line" smooth="yes"/>
      <point x="1362" y="250"/>
      <point x="1338" y="176"/>
      <point x="1466" y="176" type="curve" smooth="yes"/>
      <point x="1730" y="176"/>
      <point x="1884" y="524"/>
      <point x="1884" y="700" type="curve" smooth="yes"/>
      <point x="1884" y="712"/>
      <point x="1882" y="718"/>
      <point x="1876" y="718" type="curve" smooth="yes"/>
      <point x="1854" y="718"/>
      <point x="1866" y="694"/>
      <point x="1782" y="694" type="curve" smooth="yes"/>
      <point x="1692" y="694"/>
      <point x="1626" y="760"/>
      <point x="1626" y="876" type="curve" smooth="yes"/>
      <point x="1626" y="976"/>
      <point x="1704" y="1068"/>
      <point x="1852" y="1068" type="curve" smooth="yes"/>
      <point x="1968" y="1068"/>
      <point x="2120" y="1000"/>
      <point x="2120" y="798" type="curve" smooth="yes"/>
      <point x="2120" y="498"/>
      <point x="1908" y="-40"/>
      <point x="1438" y="-40" type="curve" smooth="yes"/>
      <point x="1301.46" y="-40"/>
      <point x="1104.1" y="-5.89453"/>
      <point x="1022" y="171.935" type="curve" smooth="yes"/>
      <point x="995.526" y="229.275"/>
      <point x="976.008" y="224.459"/>
      <point x="923" y="162.62" type="curve" smooth="yes"/>
      <point x="806.518" y="26.7295"/>
      <point x="670.519" y="-40"/>
      <point x="546" y="-40" type="curve" smooth="yes"/>
      <point x="388" y="-40"/>
      <point x="177" y="24"/>
      <point x="284" y="356" type="curve" smooth="yes"/>
      <point x="404" y="728" type="line" smooth="yes"/>
      <point x="409" y="744"/>
      <point x="412" y="758"/>
      <point x="412" y="766" type="curve" smooth="yes"/>
      <point x="412" y="786"/>
      <point x="402" y="794"/>
      <point x="384" y="794" type="curve" smooth="yes"/>
      <point x="344.309" y="794"/>
      <point x="298.107" y="756.568"/>
      <point x="240.991" y="645" type="curve" smooth="yes"/>
      <point x="219.666" y="603.343"/>
      <point x="217.625" y="608.067"/>
      <point x="175" y="628.209" type="curve" smooth="yes"/>
      <point x="81" y="672.626" type="line" smooth="yes"/>
      <point x="34.511" y="694.594"/>
      <point x="42.2918" y="701.798"/>
    </contour>
  </outline>
</glyph>
<glyph name="x" format="2">
  <advance width="1584"/>
  <unicode hex="0078"/>
  <anchor x="944" y="1040" name="Anchor-0"/>
  <anchor x="497" y="2" name="Anchor-2"/>
  <outline>
    <contour>
      <point x="-140" y="268" type="curve" smooth="yes"/>
      <point x="-140" y="416"/>
      <point x="-24" y="538"/>
      <point x="96" y="538" type="curve" smooth="yes"/>
      <point x="232" y="538"/>
      <point x="302" y="470"/>
      <point x="302" y="360" type="curve" smooth="yes"/>
      <point x="302" y="236"/>
      <point x="204" y="226"/>
      <point x="204" y="184" type="curve" smooth="yes"/>
      <point x="204" y="164"/>
      <point x="218" y="160"/>
      <point x="242" y="160" type="curve" smooth="yes"/>
      <point x="306" y="160"/>
      <point x="409" y="254"/>
      <point x="499" y="373" type="curve" smooth="yes"/>
      <point x="525" y="408"/>
      <point x="521" y="424"/>
      <point x="510" y="474" type="curve" smooth="yes"/>
      <point x="489" y="566"/>
      <point x="468" y="654"/>
      <point x="442" y="725" type="curve" smooth="yes"/>
      <point x="434" y="746"/>
      <point x="417" y="780"/>
      <point x="384" y="780" type="curve" smooth="yes"/>
      <point x="347" y="780"/>
      <point x="310" y="746"/>
      <point x="265" y="662" type="curve" smooth="yes"/>
      <point x="249" y="632"/>
      <point x="251" y="621"/>
      <point x="219" y="639" type="curve" smooth="yes"/>
      <point x="94" y="710" type="line" smooth="yes"/>
      <point x="64" y="727"/>
      <point x="74" y="736"/>
      <point x="88" y="768" type="curve" smooth="yes"/>
      <point x="162" y="932"/>
      <point x="310" y="1084"/>
      <point x="534" y="1084" type="curve" smooth="yes"/>
      <point x="729" y="1084"/>
      <point x="822" y="953"/>
      <point x="848" y="857" type="curve" smooth="yes"/>
      <point x="849" y="855"/>
      <point x="849" y="852"/>
      <point x="850" y="850" type="curve" smooth="yes"/>
      <point x="859" y="815"/>
      <point x="871" y="829"/>
      <point x="887" y="850" type="curve" smooth="yes"/>
      <point x="982" y="976"/>
      <point x="1106" y="1080"/>
      <point x="1266" y="1080" type="curve" smooth="yes"/>
      <point x="1468" y="1080"/>
      <point x="1604" y="952"/>
      <point x="1604" y="768" type="curve" smooth="yes"/>
      <point x="1604" y="620"/>
      <point x="1498" y="518"/>
      <point x="1378" y="518" type="curve" smooth="yes"/>
      <point x="1262" y="518"/>
      <point x="1162" y="576"/>
      <point x="1162" y="686" type="curve" smooth="yes"/>
      <point x="1162" y="810"/>
      <point x="1260" y="820"/>
      <point x="1260" y="862" type="curve" smooth="yes"/>
      <point x="1260" y="882"/>
      <point x="1246" y="886"/>
      <point x="1222" y="886" type="curve" smooth="yes"/>
      <point x="1155" y="886"/>
      <point x="1044" y="778"/>
      <point x="951" y="647" type="curve" smooth="yes"/>
      <point x="926" y="611"/>
      <point x="916" y="600"/>
      <point x="928" y="549" type="curve" smooth="yes"/>
      <point x="946" y="471"/>
      <point x="967" y="391"/>
      <point x="998" y="307" type="curve" smooth="yes"/>
      <point x="1006" y="286"/>
      <point x="1027" y="256"/>
      <point x="1058" y="256" type="curve" smooth="yes"/>
      <point x="1098" y="256"/>
      <point x="1143" y="303"/>
      <point x="1191" y="384" type="curve" smooth="yes"/>
      <point x="1212" y="420"/>
      <point x="1210" y="440"/>
      <point x="1248" y="414" type="curve" smooth="yes"/>
      <point x="1345" y="349" type="line" smooth="yes"/>
      <point x="1372" y="331"/>
      <point x="1378" y="330"/>
      <point x="1363" y="296" type="curve" smooth="yes"/>
      <point x="1289" y="127"/>
      <point x="1121" y="-40"/>
      <point x="910" y="-40" type="curve" smooth="yes"/>
      <point x="722" y="-40"/>
      <point x="639" y="43"/>
      <point x="600" y="126" type="curve" smooth="yes"/>
      <point x="594" y="140"/>
      <point x="589" y="150"/>
      <point x="585" y="158" type="curve" smooth="yes"/>
      <point x="569" y="189"/>
      <point x="568" y="172"/>
      <point x="532" y="131" type="curve" smooth="yes"/>
      <point x="443" y="31"/>
      <point x="334" y="-44"/>
      <point x="198" y="-44" type="curve" smooth="yes"/>
      <point x="-4" y="-44"/>
      <point x="-140" y="84"/>
    </contour>
  </outline>
</glyph>
